<svg width="34" height="34" viewBox="0 0 34 34" fill="none" xmlns="http://www.w3.org/2000/svg">
<mask id="mask0_9_5512" style="mask-type:luminance" maskUnits="userSpaceOnUse" x="1" y="1" width="31" height="31">
<path fill-rule="evenodd" clip-rule="evenodd" d="M1.41666 1.41699H31.8651V31.8665H1.41666V1.41699Z" fill="white"/>
</mask>
<g mask="url(#mask0_9_5512)">
<path fill-rule="evenodd" clip-rule="evenodd" d="M8.65355 27.8732C9.47521 27.8732 10.2501 28.1849 11.0704 28.515C16.0953 30.8383 22.0382 29.7815 25.91 25.9112C31.0185 20.7998 31.0185 12.4854 25.91 7.37691C23.4365 4.90341 20.147 3.54199 16.645 3.54199C13.1415 3.54199 9.85063 4.90483 7.37855 7.37833C3.50538 11.2487 2.45138 17.1916 4.75346 22.1683C5.08496 22.9886 5.40513 23.7876 5.40513 24.6177C5.40513 25.4465 5.12038 26.2809 4.86963 27.0176C4.6628 27.6239 4.34971 28.5391 4.55088 28.7402C4.7478 28.9442 5.66863 28.6227 6.27638 28.4144C7.00597 28.1651 7.8333 27.8789 8.65355 27.8732ZM16.6095 31.8668C14.4449 31.8668 12.266 31.4092 10.2275 30.4657C9.6268 30.2249 9.06438 29.9982 8.66063 29.9982C8.19596 30.0011 7.57121 30.2164 6.96771 30.4247C5.72955 30.8497 4.18821 31.3795 3.0478 30.2433C1.91163 29.1057 2.4358 27.5687 2.85796 26.3319C3.06621 25.7227 3.28013 25.0937 3.28013 24.6177C3.28013 24.2267 3.09171 23.7281 2.80271 23.0098C0.149298 17.2794 1.37613 10.3732 5.87688 5.87524C8.74988 3.00083 12.5735 1.41699 16.6435 1.41699C20.7136 1.41699 24.5386 2.99941 27.4116 5.87383C33.3503 11.8125 33.3503 21.4742 27.4116 27.4128C24.5004 30.3255 20.5805 31.8668 16.6095 31.8668Z" fill="#024EDF"/>
</g>
<path fill-rule="evenodd" clip-rule="evenodd" d="M22.2364 18.6475C21.4544 18.6475 20.8141 18.0143 20.8141 17.2309C20.8141 16.4475 21.4417 15.8142 22.2237 15.8142H22.2364C23.0184 15.8142 23.6531 16.4475 23.6531 17.2309C23.6531 18.0143 23.0184 18.6475 22.2364 18.6475Z" fill="#024EDF"/>
<path fill-rule="evenodd" clip-rule="evenodd" d="M16.5573 18.6475C15.7753 18.6475 15.1349 18.0143 15.1349 17.2309C15.1349 16.4475 15.7611 15.8142 16.5445 15.8142H16.5573C17.3393 15.8142 17.9739 16.4475 17.9739 17.2309C17.9739 18.0143 17.3393 18.6475 16.5573 18.6475Z" fill="#024EDF"/>
<path fill-rule="evenodd" clip-rule="evenodd" d="M10.8776 18.6475C10.0956 18.6475 9.45526 18.0143 9.45526 17.2309C9.45526 16.4475 10.0828 15.8142 10.8648 15.8142H10.8776C11.6596 15.8142 12.2943 16.4475 12.2943 17.2309C12.2943 18.0143 11.6596 18.6475 10.8776 18.6475Z" fill="#024EDF"/>
</svg>
