<svg width="34" height="34" viewBox="0 0 34 34" fill="none" xmlns="http://www.w3.org/2000/svg">
<path fill-rule="evenodd" clip-rule="evenodd" d="M12.7251 8.92996C12.6797 8.92996 12.6344 8.93563 12.5891 8.94696C8.38156 9.98254 4.95889 14.5414 4.95889 19.1087C4.95889 24.8547 9.63389 29.5297 15.3813 29.5297C20.5621 29.5297 24.8914 25.8393 25.6762 20.7535C25.6819 20.711 25.7017 20.5877 25.5856 20.4503C25.4751 20.3214 25.2994 20.2449 25.1152 20.2449C23.1163 20.2449 21.5906 20.2902 20.3991 20.3242C17.5148 20.4106 16.322 20.4432 15.1433 19.5691C13.3668 18.253 13.2166 15.992 13.2166 9.34221C13.2166 9.22321 13.1656 9.12404 13.0636 9.04471C12.9687 8.96963 12.8483 8.92996 12.7251 8.92996ZM15.3813 31.6547C8.46231 31.6547 2.83389 26.0263 2.83389 19.1087C2.83389 13.6234 6.98189 8.13804 12.0805 6.88288C12.8766 6.68879 13.7323 6.87013 14.3755 7.37163C14.9889 7.85329 15.3416 8.57154 15.3416 9.34221C15.3416 15.5543 15.5513 17.226 16.4084 17.862C16.9708 18.2771 17.7415 18.2729 20.3382 18.2006C21.5452 18.1652 23.0908 18.1199 25.1152 18.1199C25.9227 18.1199 26.6835 18.4655 27.1991 19.0676C27.678 19.6272 27.8876 20.3582 27.7771 21.0779C26.8308 27.205 21.6175 31.6547 15.3813 31.6547Z" fill="#024EDF"/>
<mask id="mask0_6_5333" style="mask-type:luminance" maskUnits="userSpaceOnUse" x="17" y="1" width="16" height="15">
<path fill-rule="evenodd" clip-rule="evenodd" d="M17.6716 1.41748H32.4318V15.994H17.6716V1.41748Z" fill="white"/>
</mask>
<g mask="url(#mask0_6_5333)">
<path fill-rule="evenodd" clip-rule="evenodd" d="M19.8486 3.54422C19.6928 7.1128 19.9237 11.7226 20.0314 13.5487C20.0371 13.6578 20.1164 13.7371 20.2241 13.7428C21.6804 13.8264 26.6982 14.0587 30.3065 13.5275C30.315 11.5385 28.9536 8.84113 26.9036 6.79263C24.8013 4.69313 22.3136 3.54422 19.8798 3.54422H19.8486ZM24.5293 15.9939C22.6735 15.9939 21.0401 15.9188 20.1008 15.865C18.9193 15.7955 17.9786 14.8535 17.9106 13.672C17.8001 11.7991 17.5607 7.04055 17.7307 3.36005C17.7775 2.29047 18.6416 1.43905 19.6985 1.42063C22.7259 1.3328 25.8496 2.73813 28.4053 5.28955C30.8958 7.77863 32.4768 11.0497 32.4315 13.6238C32.4145 14.6282 31.6849 15.4669 30.6989 15.6156C28.7751 15.906 26.5226 15.9939 24.5293 15.9939Z" fill="#024EDF"/>
</g>
</svg>
