<svg width="34" height="34" viewBox="0 0 34 34" fill="none" xmlns="http://www.w3.org/2000/svg">
<mask id="mask0_9_5546" style="mask-type:luminance" maskUnits="userSpaceOnUse" x="2" y="4" width="29" height="28">
<path fill-rule="evenodd" clip-rule="evenodd" d="M2.83334 4.25049H30.4569V31.8741H2.83334V4.25049Z" fill="white"/>
</mask>
<g mask="url(#mask0_9_5546)">
<path fill-rule="evenodd" clip-rule="evenodd" d="M15.307 20.9917L20.4877 29.3968C20.7144 29.7652 21.0685 29.7609 21.2116 29.7411C21.3547 29.7212 21.699 29.6334 21.8236 29.2155L28.302 7.33507C28.4154 6.94832 28.2071 6.68482 28.1136 6.59132C28.023 6.49782 27.7637 6.29807 27.3883 6.40432L5.49229 12.8162C5.0772 12.938 4.98654 13.2865 4.9667 13.4296C4.94687 13.5755 4.9412 13.9367 5.30812 14.1677L13.8095 19.4844L21.3207 11.8939C21.733 11.4774 22.4059 11.4732 22.8238 11.8854C23.2417 12.2977 23.2445 12.972 22.8323 13.3885L15.307 20.9917ZM21.1011 31.8746C20.1151 31.8746 19.2113 31.3731 18.6786 30.5117L13.1862 21.5995L4.18187 15.9682C3.21145 15.3605 2.70429 14.2782 2.86154 13.1406C3.01737 12.003 3.79795 11.0992 4.89445 10.7776L26.7905 4.36574C27.7977 4.07107 28.8772 4.35016 29.6195 5.08966C30.3619 5.83624 30.6381 6.92707 30.3378 7.93857L23.8594 29.8176C23.535 30.9183 22.6283 31.6961 21.4935 31.8477C21.3604 31.8647 21.2315 31.8746 21.1011 31.8746Z" fill="#024EDF"/>
</g>
</svg>
