<svg width="34" height="34" viewBox="0 0 34 34" fill="none" xmlns="http://www.w3.org/2000/svg">
<path fill-rule="evenodd" clip-rule="evenodd" d="M16.9931 24.6876C16.4066 24.6876 15.9306 24.2116 15.9306 23.6251V20.031C15.9306 19.4445 16.4066 18.9685 16.9931 18.9685C17.5796 18.9685 18.0556 19.4445 18.0556 20.031V23.6251C18.0556 24.2116 17.5796 24.6876 16.9931 24.6876Z" fill="#024EDF"/>
<mask id="mask0_9_5522" style="mask-type:luminance" maskUnits="userSpaceOnUse" x="2" y="6" width="30" height="16">
<path fill-rule="evenodd" clip-rule="evenodd" d="M2.83362 6.48828H31.1525V21.0955H2.83362V6.48828Z" fill="white"/>
</mask>
<g mask="url(#mask0_9_5522)">
<path fill-rule="evenodd" clip-rule="evenodd" d="M4.95862 16.14C8.32462 17.969 12.569 18.9705 16.9861 18.9705C21.4118 18.9705 25.6604 17.969 29.0278 16.14V11.8872C29.0278 10.0809 27.5672 8.61328 25.7694 8.61328H8.23112C6.42628 8.61328 4.95862 10.0753 4.95862 11.873V16.14ZM16.9861 21.0955C11.964 21.0955 7.12328 19.88 3.3592 17.6757C3.03337 17.4859 2.83362 17.1374 2.83362 16.7591V11.873C2.83362 8.9037 5.2547 6.48828 8.23112 6.48828H25.7695C28.7388 6.48828 31.1528 8.90937 31.1528 11.8872V16.7591C31.1528 17.1374 30.9516 17.4859 30.6272 17.6757C26.8631 19.88 22.0181 21.0955 16.9861 21.0955Z" fill="#024EDF"/>
</g>
<mask id="mask1_9_5522" style="mask-type:luminance" maskUnits="userSpaceOnUse" x="10" y="2" width="14" height="7">
<path fill-rule="evenodd" clip-rule="evenodd" d="M10.9722 2.8335H23.0139V8.60769H10.9722V2.8335Z" fill="white"/>
</mask>
<g mask="url(#mask1_9_5522)">
<path fill-rule="evenodd" clip-rule="evenodd" d="M21.9514 8.60759C21.3649 8.60759 20.8889 8.13159 20.8889 7.54509V7.02659C20.8889 5.88617 19.961 4.95825 18.8206 4.95825H15.1656C14.0251 4.95825 13.0972 5.88617 13.0972 7.02659V7.54509C13.0972 8.13159 12.6212 8.60759 12.0347 8.60759C11.4482 8.60759 10.9722 8.13159 10.9722 7.54509V7.02659C10.9722 4.71459 12.8536 2.83325 15.1656 2.83325H18.8206C21.1326 2.83325 23.0139 4.71459 23.0139 7.02659V7.54509C23.0139 8.13159 22.5379 8.60759 21.9514 8.60759Z" fill="#024EDF"/>
</g>
<path fill-rule="evenodd" clip-rule="evenodd" d="M25.2094 30.7984H8.77611C5.83653 30.7984 3.36161 28.502 3.1392 25.5695L2.87003 22.0151C2.82611 21.43 3.26528 20.9186 3.85036 20.8747C4.43828 20.8534 4.94545 21.2685 4.99078 21.855L5.25853 25.408C5.39736 27.2383 6.94153 28.6734 8.77611 28.6734H25.2094C27.044 28.6734 28.5896 27.2383 28.727 25.408L28.9962 21.855C29.0415 21.2685 29.5614 20.852 30.1366 20.8747C30.7217 20.9186 31.1594 21.43 31.1155 22.0151L30.8464 25.5695C30.6239 28.502 28.149 30.7984 25.2094 30.7984Z" fill="#024EDF"/>
</svg>
