<svg width="170" height="28" viewBox="0 0 170 28" fill="none" xmlns="http://www.w3.org/2000/svg">
<path d="M17.892 8.136C17.724 7.968 17.412 7.74 16.956 7.452C16.524 7.164 15.984 6.888 15.336 6.624C14.712 6.36 14.028 6.132 13.284 5.94C12.54 5.724 11.784 5.616 11.016 5.616C9.672 5.616 8.652 5.868 7.956 6.372C7.284 6.876 6.948 7.584 6.948 8.496C6.948 9.192 7.164 9.744 7.596 10.152C8.028 10.56 8.676 10.908 9.54 11.196C10.404 11.484 11.484 11.796 12.78 12.132C14.46 12.54 15.912 13.044 17.136 13.644C18.384 14.22 19.332 14.988 19.98 15.948C20.652 16.884 20.988 18.132 20.988 19.692C20.988 21.06 20.736 22.236 20.232 23.22C19.728 24.18 19.032 24.96 18.144 25.56C17.256 26.16 16.248 26.604 15.12 26.892C13.992 27.156 12.792 27.288 11.52 27.288C10.248 27.288 8.976 27.156 7.704 26.892C6.432 26.628 5.208 26.256 4.032 25.776C2.856 25.272 1.776 24.672 0.792 23.976L2.988 19.692C3.204 19.908 3.588 20.196 4.14 20.556C4.692 20.892 5.364 21.24 6.156 21.6C6.948 21.936 7.812 22.224 8.748 22.464C9.684 22.704 10.632 22.824 11.592 22.824C12.936 22.824 13.956 22.596 14.652 22.14C15.348 21.684 15.696 21.036 15.696 20.196C15.696 19.428 15.42 18.828 14.868 18.396C14.316 17.964 13.548 17.592 12.564 17.28C11.58 16.944 10.416 16.584 9.072 16.2C7.464 15.744 6.12 15.24 5.04 14.688C3.96 14.112 3.156 13.392 2.628 12.528C2.1 11.664 1.836 10.584 1.836 9.288C1.836 7.536 2.244 6.072 3.06 4.896C3.9 3.696 5.028 2.796 6.444 2.196C7.86 1.572 9.432 1.26 11.16 1.26C12.36 1.26 13.488 1.392 14.544 1.656C15.624 1.92 16.632 2.268 17.568 2.7C18.504 3.132 19.344 3.6 20.088 4.104L17.892 8.136ZM35.1563 26.028C34.7483 26.196 34.2563 26.388 33.6803 26.604C33.1043 26.82 32.4803 26.988 31.8083 27.108C31.1603 27.252 30.5003 27.324 29.8283 27.324C28.9403 27.324 28.1243 27.168 27.3803 26.856C26.6363 26.544 26.0363 26.052 25.5803 25.38C25.1483 24.684 24.9323 23.784 24.9323 22.68V11.844H22.4483V8.136H24.9323V2.016H29.7563V8.136H33.7163V11.844H29.7563V21.06C29.7803 21.708 29.9603 22.176 30.2963 22.464C30.6323 22.752 31.0523 22.896 31.5563 22.896C32.0603 22.896 32.5523 22.812 33.0323 22.644C33.5123 22.476 33.8963 22.332 34.1843 22.212L35.1563 26.028ZM36.3727 21.42C36.3727 20.196 36.7087 19.128 37.3807 18.216C38.0767 17.28 39.0367 16.56 40.2607 16.056C41.4847 15.552 42.8887 15.3 44.4727 15.3C45.2647 15.3 46.0687 15.36 46.8847 15.48C47.7007 15.6 48.4087 15.792 49.0087 16.056V15.048C49.0087 13.848 48.6487 12.924 47.9287 12.276C47.2327 11.628 46.1887 11.304 44.7967 11.304C43.7647 11.304 42.7807 11.484 41.8447 11.844C40.9087 12.204 39.9247 12.732 38.8927 13.428L37.3447 10.26C38.5927 9.444 39.8647 8.832 41.1607 8.424C42.4807 8.016 43.8607 7.812 45.3007 7.812C47.9887 7.812 50.0767 8.484 51.5647 9.828C53.0767 11.172 53.8327 13.092 53.8327 15.588V21.6C53.8327 22.104 53.9167 22.464 54.0847 22.68C54.2767 22.896 54.5767 23.028 54.9847 23.076V27C54.5527 27.072 54.1567 27.132 53.7967 27.18C53.4607 27.228 53.1727 27.252 52.9327 27.252C51.9727 27.252 51.2407 27.036 50.7367 26.604C50.2567 26.172 49.9567 25.644 49.8367 25.02L49.7287 24.048C48.9127 25.104 47.8927 25.92 46.6687 26.496C45.4447 27.072 44.1967 27.36 42.9247 27.36C41.6767 27.36 40.5487 27.108 39.5407 26.604C38.5567 26.076 37.7767 25.368 37.2007 24.48C36.6487 23.568 36.3727 22.548 36.3727 21.42ZM48.1087 22.392C48.3727 22.104 48.5887 21.816 48.7567 21.528C48.9247 21.24 49.0087 20.976 49.0087 20.736V18.828C48.4327 18.588 47.8087 18.408 47.1367 18.288C46.4647 18.144 45.8287 18.072 45.2287 18.072C43.9807 18.072 42.9487 18.348 42.1327 18.9C41.3407 19.428 40.9447 20.136 40.9447 21.024C40.9447 21.504 41.0767 21.96 41.3407 22.392C41.6047 22.824 41.9887 23.172 42.4927 23.436C42.9967 23.7 43.5967 23.832 44.2927 23.832C45.0127 23.832 45.7207 23.7 46.4167 23.436C47.1127 23.148 47.6767 22.8 48.1087 22.392ZM69.5725 12.312C68.1085 12.312 66.8005 12.6 65.6485 13.176C64.4965 13.728 63.6685 14.532 63.1645 15.588V27H58.3405V8.136H62.7685V12.168C63.4405 10.872 64.2925 9.852 65.3245 9.108C66.3565 8.364 67.4485 7.956 68.6005 7.884C68.8645 7.884 69.0685 7.884 69.2125 7.884C69.3565 7.884 69.4765 7.896 69.5725 7.92V12.312ZM83.5664 26.028C83.1584 26.196 82.6664 26.388 82.0904 26.604C81.5144 26.82 80.8904 26.988 80.2184 27.108C79.5704 27.252 78.9104 27.324 78.2384 27.324C77.3504 27.324 76.5344 27.168 75.7904 26.856C75.0464 26.544 74.4464 26.052 73.9904 25.38C73.5584 24.684 73.3424 23.784 73.3424 22.68V11.844H70.8584V8.136H73.3424V2.016H78.1664V8.136H82.1264V11.844H78.1664V21.06C78.1904 21.708 78.3704 22.176 78.7064 22.464C79.0424 22.752 79.4624 22.896 79.9664 22.896C80.4704 22.896 80.9624 22.812 81.4424 22.644C81.9224 22.476 82.3064 22.332 82.5944 22.212L83.5664 26.028Z" fill="white"/>
<path d="M86.5468 27V1.44H91.5148V22.644H104.547V27H86.5468ZM105.806 21.42C105.806 20.196 106.142 19.128 106.814 18.216C107.51 17.28 108.47 16.56 109.694 16.056C110.918 15.552 112.322 15.3 113.906 15.3C114.698 15.3 115.502 15.36 116.318 15.48C117.134 15.6 117.842 15.792 118.442 16.056V15.048C118.442 13.848 118.082 12.924 117.362 12.276C116.666 11.628 115.622 11.304 114.23 11.304C113.198 11.304 112.214 11.484 111.278 11.844C110.342 12.204 109.358 12.732 108.326 13.428L106.778 10.26C108.026 9.444 109.298 8.832 110.594 8.424C111.914 8.016 113.294 7.812 114.734 7.812C117.422 7.812 119.51 8.484 120.998 9.828C122.51 11.172 123.266 13.092 123.266 15.588V21.6C123.266 22.104 123.35 22.464 123.518 22.68C123.71 22.896 124.01 23.028 124.418 23.076V27C123.986 27.072 123.59 27.132 123.23 27.18C122.894 27.228 122.606 27.252 122.366 27.252C121.406 27.252 120.674 27.036 120.17 26.604C119.69 26.172 119.39 25.644 119.27 25.02L119.162 24.048C118.346 25.104 117.326 25.92 116.102 26.496C114.878 27.072 113.63 27.36 112.358 27.36C111.11 27.36 109.982 27.108 108.974 26.604C107.99 26.076 107.21 25.368 106.634 24.48C106.082 23.568 105.806 22.548 105.806 21.42ZM117.542 22.392C117.806 22.104 118.022 21.816 118.19 21.528C118.358 21.24 118.442 20.976 118.442 20.736V18.828C117.866 18.588 117.242 18.408 116.57 18.288C115.898 18.144 115.262 18.072 114.662 18.072C113.414 18.072 112.382 18.348 111.566 18.9C110.774 19.428 110.378 20.136 110.378 21.024C110.378 21.504 110.51 21.96 110.774 22.392C111.038 22.824 111.422 23.172 111.926 23.436C112.43 23.7 113.03 23.832 113.726 23.832C114.446 23.832 115.154 23.7 115.85 23.436C116.546 23.148 117.11 22.8 117.542 22.392ZM145.306 27H140.482V16.416C140.482 14.904 140.218 13.8 139.69 13.104C139.162 12.408 138.43 12.06 137.494 12.06C136.846 12.06 136.186 12.228 135.514 12.564C134.866 12.9 134.278 13.368 133.75 13.968C133.222 14.544 132.838 15.216 132.598 15.984V27H127.774V8.136H132.13V11.628C132.61 10.812 133.222 10.128 133.966 9.576C134.71 9 135.562 8.568 136.522 8.28C137.506 7.968 138.538 7.812 139.618 7.812C140.794 7.812 141.754 8.028 142.498 8.46C143.266 8.868 143.842 9.432 144.226 10.152C144.634 10.848 144.91 11.64 145.054 12.528C145.222 13.416 145.306 14.316 145.306 15.228V27ZM148.349 17.568C148.349 15.744 148.709 14.1 149.429 12.636C150.149 11.148 151.145 9.972 152.417 9.108C153.689 8.244 155.141 7.812 156.773 7.812C158.165 7.812 159.413 8.16 160.517 8.856C161.645 9.528 162.521 10.392 163.145 11.448V0.719999H167.969V21.6C167.969 22.104 168.053 22.464 168.221 22.68C168.389 22.896 168.677 23.028 169.085 23.076V27C168.245 27.168 167.561 27.252 167.033 27.252C166.169 27.252 165.449 27.036 164.873 26.604C164.321 26.172 164.009 25.608 163.937 24.912L163.865 23.724C163.169 24.9 162.221 25.8 161.021 26.424C159.845 27.048 158.609 27.36 157.313 27.36C156.017 27.36 154.817 27.108 153.713 26.604C152.633 26.1 151.685 25.404 150.869 24.516C150.077 23.628 149.453 22.596 148.997 21.42C148.565 20.22 148.349 18.936 148.349 17.568ZM163.145 20.088V15.588C162.905 14.892 162.521 14.268 161.993 13.716C161.465 13.164 160.877 12.732 160.229 12.42C159.581 12.084 158.933 11.916 158.285 11.916C157.541 11.916 156.869 12.072 156.269 12.384C155.669 12.696 155.141 13.116 154.685 13.644C154.253 14.172 153.917 14.784 153.677 15.48C153.461 16.176 153.353 16.908 153.353 17.676C153.353 18.444 153.473 19.176 153.713 19.872C153.977 20.544 154.349 21.132 154.829 21.636C155.309 22.14 155.861 22.536 156.485 22.824C157.133 23.112 157.829 23.256 158.573 23.256C159.029 23.256 159.485 23.184 159.941 23.04C160.421 22.872 160.865 22.656 161.273 22.392C161.705 22.104 162.077 21.768 162.389 21.384C162.725 20.976 162.977 20.544 163.145 20.088Z" fill="#024EDF"/>
</svg>
