<svg width="843" height="134" viewBox="0 0 843 134" fill="none" xmlns="http://www.w3.org/2000/svg">
<path d="M86.46 37.68C85.62 36.84 84.06 35.7 81.78 34.26C79.62 32.82 76.92 31.44 73.68 30.12C70.56 28.8 67.14 27.66 63.42 26.7C59.7 25.62 55.92 25.08 52.08 25.08C45.36 25.08 40.26 26.34 36.78 28.86C33.42 31.38 31.74 34.92 31.74 39.48C31.74 42.96 32.82 45.72 34.98 47.76C37.14 49.8 40.38 51.54 44.7 52.98C49.02 54.42 54.42 55.98 60.9 57.66C69.3 59.7 76.56 62.22 82.68 65.22C88.92 68.1 93.66 71.94 96.9 76.74C100.26 81.42 101.94 87.66 101.94 95.46C101.94 102.3 100.68 108.18 98.16 113.1C95.64 117.9 92.16 121.8 87.72 124.8C83.28 127.8 78.24 130.02 72.6 131.46C66.96 132.78 60.96 133.44 54.6 133.44C48.24 133.44 41.88 132.78 35.52 131.46C29.16 130.14 23.04 128.28 17.16 125.88C11.28 123.36 5.88 120.36 0.96 116.88L11.94 95.46C13.02 96.54 14.94 97.98 17.7 99.78C20.46 101.46 23.82 103.2 27.78 105C31.74 106.68 36.06 108.12 40.74 109.32C45.42 110.52 50.16 111.12 54.96 111.12C61.68 111.12 66.78 109.98 70.26 107.7C73.74 105.42 75.48 102.18 75.48 97.98C75.48 94.14 74.1 91.14 71.34 88.98C68.58 86.82 64.74 84.96 59.82 83.4C54.9 81.72 49.08 79.92 42.36 78C34.32 75.72 27.6 73.2 22.2 70.44C16.8 67.56 12.78 63.96 10.14 59.64C7.5 55.32 6.18 49.92 6.18 43.44C6.18 34.68 8.22 27.36 12.3 21.48C16.5 15.48 22.14 10.98 29.22 7.98C36.3 4.86 44.16 3.29999 52.8 3.29999C58.8 3.29999 64.44 3.95999 69.72 5.27999C75.12 6.59999 80.16 8.34 84.84 10.5C89.52 12.66 93.72 15 97.44 17.52L86.46 37.68ZM172.781 127.14C170.741 127.98 168.281 128.94 165.401 130.02C162.521 131.1 159.401 131.94 156.041 132.54C152.801 133.26 149.501 133.62 146.141 133.62C141.701 133.62 137.621 132.84 133.901 131.28C130.181 129.72 127.181 127.26 124.901 123.9C122.741 120.42 121.661 115.92 121.661 110.4V56.22H109.241V37.68H121.661V7.08H145.781V37.68H165.581V56.22H145.781V102.3C145.901 105.54 146.801 107.88 148.481 109.32C150.161 110.76 152.261 111.48 154.781 111.48C157.301 111.48 159.761 111.06 162.161 110.22C164.561 109.38 166.481 108.66 167.921 108.06L172.781 127.14ZM178.863 104.1C178.863 97.98 180.543 92.64 183.903 88.08C187.383 83.4 192.183 79.8 198.303 77.28C204.423 74.76 211.443 73.5 219.363 73.5C223.323 73.5 227.343 73.8 231.423 74.4C235.503 75 239.043 75.96 242.043 77.28V72.24C242.043 66.24 240.243 61.62 236.643 58.38C233.163 55.14 227.943 53.52 220.983 53.52C215.823 53.52 210.903 54.42 206.223 56.22C201.543 58.02 196.623 60.66 191.463 64.14L183.723 48.3C189.963 44.22 196.323 41.16 202.803 39.12C209.403 37.08 216.303 36.06 223.503 36.06C236.943 36.06 247.383 39.42 254.823 46.14C262.383 52.86 266.163 62.46 266.163 74.94V105C266.163 107.52 266.583 109.32 267.423 110.4C268.383 111.48 269.883 112.14 271.923 112.38V132C269.763 132.36 267.783 132.66 265.983 132.9C264.303 133.14 262.863 133.26 261.663 133.26C256.863 133.26 253.203 132.18 250.683 130.02C248.283 127.86 246.783 125.22 246.183 122.1L245.643 117.24C241.563 122.52 236.463 126.6 230.343 129.48C224.223 132.36 217.983 133.8 211.623 133.8C205.383 133.8 199.743 132.54 194.703 130.02C189.783 127.38 185.883 123.84 183.003 119.4C180.243 114.84 178.863 109.74 178.863 104.1ZM237.543 108.96C238.863 107.52 239.943 106.08 240.783 104.64C241.623 103.2 242.043 101.88 242.043 100.68V91.14C239.163 89.94 236.043 89.04 232.683 88.44C229.323 87.72 226.143 87.36 223.143 87.36C216.903 87.36 211.743 88.74 207.663 91.5C203.703 94.14 201.723 97.68 201.723 102.12C201.723 104.52 202.383 106.8 203.703 108.96C205.023 111.12 206.943 112.86 209.463 114.18C211.983 115.5 214.983 116.16 218.463 116.16C222.063 116.16 225.603 115.5 229.083 114.18C232.563 112.74 235.383 111 237.543 108.96ZM344.863 58.56C337.543 58.56 331.003 60 325.243 62.88C319.483 65.64 315.343 69.66 312.823 74.94V132H288.703V37.68H310.843V57.84C314.203 51.36 318.463 46.26 323.623 42.54C328.783 38.82 334.243 36.78 340.003 36.42C341.323 36.42 342.343 36.42 343.063 36.42C343.783 36.42 344.383 36.48 344.863 36.6V58.56ZM414.832 127.14C412.792 127.98 410.332 128.94 407.452 130.02C404.572 131.1 401.452 131.94 398.092 132.54C394.852 133.26 391.552 133.62 388.192 133.62C383.752 133.62 379.672 132.84 375.952 131.28C372.232 129.72 369.232 127.26 366.952 123.9C364.792 120.42 363.712 115.92 363.712 110.4V56.22H351.292V37.68H363.712V7.08H387.832V37.68H407.632V56.22H387.832V102.3C387.952 105.54 388.852 107.88 390.532 109.32C392.212 110.76 394.312 111.48 396.832 111.48C399.352 111.48 401.812 111.06 404.212 110.22C406.612 109.38 408.532 108.66 409.972 108.06L414.832 127.14Z" fill="white"/>
<path d="M429.734 132V4.19999H454.574V110.22H519.734V132H429.734ZM526.031 104.1C526.031 97.98 527.711 92.64 531.071 88.08C534.551 83.4 539.351 79.8 545.471 77.28C551.591 74.76 558.611 73.5 566.531 73.5C570.491 73.5 574.511 73.8 578.591 74.4C582.671 75 586.211 75.96 589.211 77.28V72.24C589.211 66.24 587.411 61.62 583.811 58.38C580.331 55.14 575.111 53.52 568.151 53.52C562.991 53.52 558.071 54.42 553.391 56.22C548.711 58.02 543.791 60.66 538.631 64.14L530.891 48.3C537.131 44.22 543.491 41.16 549.971 39.12C556.571 37.08 563.471 36.06 570.671 36.06C584.111 36.06 594.551 39.42 601.991 46.14C609.551 52.86 613.331 62.46 613.331 74.94V105C613.331 107.52 613.751 109.32 614.591 110.4C615.551 111.48 617.051 112.14 619.091 112.38V132C616.931 132.36 614.951 132.66 613.151 132.9C611.471 133.14 610.031 133.26 608.831 133.26C604.031 133.26 600.371 132.18 597.851 130.02C595.451 127.86 593.951 125.22 593.351 122.1L592.811 117.24C588.731 122.52 583.631 126.6 577.511 129.48C571.391 132.36 565.151 133.8 558.791 133.8C552.551 133.8 546.911 132.54 541.871 130.02C536.951 127.38 533.051 123.84 530.171 119.4C527.411 114.84 526.031 109.74 526.031 104.1ZM584.711 108.96C586.031 107.52 587.111 106.08 587.951 104.64C588.791 103.2 589.211 101.88 589.211 100.68V91.14C586.331 89.94 583.211 89.04 579.851 88.44C576.491 87.72 573.311 87.36 570.311 87.36C564.071 87.36 558.911 88.74 554.831 91.5C550.871 94.14 548.891 97.68 548.891 102.12C548.891 104.52 549.551 106.8 550.871 108.96C552.191 111.12 554.111 112.86 556.631 114.18C559.151 115.5 562.151 116.16 565.631 116.16C569.231 116.16 572.771 115.5 576.251 114.18C579.731 112.74 582.551 111 584.711 108.96ZM723.531 132H699.411V79.08C699.411 71.52 698.091 66 695.451 62.52C692.811 59.04 689.151 57.3 684.471 57.3C681.231 57.3 677.931 58.14 674.571 59.82C671.331 61.5 668.391 63.84 665.751 66.84C663.111 69.72 661.191 73.08 659.991 76.92V132H635.871V37.68H657.651V55.14C660.051 51.06 663.111 47.64 666.831 44.88C670.551 42 674.811 39.84 679.611 38.4C684.531 36.84 689.691 36.06 695.091 36.06C700.971 36.06 705.771 37.14 709.491 39.3C713.331 41.34 716.211 44.16 718.131 47.76C720.171 51.24 721.551 55.2 722.271 59.64C723.111 64.08 723.531 68.58 723.531 73.14V132ZM738.743 84.84C738.743 75.72 740.543 67.5 744.143 60.18C747.743 52.74 752.723 46.86 759.083 42.54C765.443 38.22 772.703 36.06 780.863 36.06C787.823 36.06 794.063 37.8 799.583 41.28C805.223 44.64 809.603 48.96 812.723 54.24V0.599997H836.843V105C836.843 107.52 837.263 109.32 838.103 110.4C838.943 111.48 840.383 112.14 842.423 112.38V132C838.223 132.84 834.803 133.26 832.163 133.26C827.843 133.26 824.243 132.18 821.363 130.02C818.603 127.86 817.043 125.04 816.683 121.56L816.323 115.62C812.843 121.5 808.103 126 802.103 129.12C796.223 132.24 790.043 133.8 783.563 133.8C777.083 133.8 771.083 132.54 765.563 130.02C760.163 127.5 755.423 124.02 751.343 119.58C747.383 115.14 744.263 109.98 741.983 104.1C739.823 98.1 738.743 91.68 738.743 84.84ZM812.723 97.44V74.94C811.523 71.46 809.603 68.34 806.963 65.58C804.323 62.82 801.383 60.66 798.143 59.1C794.903 57.42 791.663 56.58 788.423 56.58C784.703 56.58 781.343 57.36 778.343 58.92C775.343 60.48 772.703 62.58 770.423 65.22C768.263 67.86 766.583 70.92 765.383 74.4C764.303 77.88 763.763 81.54 763.763 85.38C763.763 89.22 764.363 92.88 765.563 96.36C766.883 99.72 768.743 102.66 771.143 105.18C773.543 107.7 776.303 109.68 779.423 111.12C782.663 112.56 786.143 113.28 789.863 113.28C792.143 113.28 794.423 112.92 796.703 112.2C799.103 111.36 801.323 110.28 803.363 108.96C805.523 107.52 807.383 105.84 808.943 103.92C810.623 101.88 811.883 99.72 812.723 97.44Z" fill="black"/>
</svg>
