<svg width="895" height="100" viewBox="0 0 895 100" fill="none" xmlns="http://www.w3.org/2000/svg">
<rect y="47" width="895" height="2" rx="1" fill="url(#paint0_linear_6_5331)" fill-opacity="0.2"/>
<circle cx="32" cy="48" r="6" fill="#024EDF"/>
<circle cx="676" cy="48" r="17" fill="#3799F3" fill-opacity="0.1"/>
<circle cx="676" cy="48" r="27.5" stroke="#024EDF" stroke-opacity="0.04"/>
<circle cx="676" cy="48" r="47.5" stroke="#024EDF" stroke-opacity="0.04"/>
<circle cx="175" cy="48" r="6" fill="#024EDF"/>
<circle cx="354" cy="48" r="6" fill="#024EDF"/>
<circle cx="515" cy="48" r="6" fill="#024EDF"/>
<circle cx="676" cy="48" r="6" fill="#024EDF"/>
<path d="M47.26 26V16.816H53.77V26H52.608V17.796H48.422V26H47.26ZM58.8174 26.168C58.3974 26.168 57.9961 26.0887 57.6134 25.93C57.2401 25.7713 56.9088 25.5427 56.6194 25.244C56.3301 24.936 56.0968 24.5627 55.9194 24.124C55.7514 23.676 55.6674 23.172 55.6674 22.612C55.6674 22.0427 55.7514 21.5387 55.9194 21.1C56.0968 20.652 56.3301 20.274 56.6194 19.966C56.9088 19.658 57.2401 19.4247 57.6134 19.266C57.9961 19.1073 58.3974 19.028 58.8174 19.028C59.2374 19.028 59.6341 19.1073 60.0074 19.266C60.3901 19.4247 60.7261 19.658 61.0154 19.966C61.3048 20.274 61.5334 20.652 61.7014 21.1C61.8788 21.5387 61.9674 22.0427 61.9674 22.612C61.9674 23.172 61.8788 23.676 61.7014 24.124C61.5334 24.5627 61.3048 24.936 61.0154 25.244C60.7261 25.5427 60.3901 25.7713 60.0074 25.93C59.6341 26.0887 59.2374 26.168 58.8174 26.168ZM58.8174 25.216C59.1068 25.216 59.3728 25.1553 59.6154 25.034C59.8581 24.9033 60.0634 24.726 60.2314 24.502C60.4088 24.2687 60.5441 23.9933 60.6374 23.676C60.7308 23.3587 60.7774 23.004 60.7774 22.612C60.7774 22.22 60.7308 21.8653 60.6374 21.548C60.5441 21.2213 60.4088 20.9413 60.2314 20.708C60.0634 20.4747 59.8581 20.2973 59.6154 20.176C59.3728 20.0453 59.1068 19.98 58.8174 19.98C58.5281 19.98 58.2621 20.0453 58.0194 20.176C57.7768 20.2973 57.5668 20.4747 57.3894 20.708C57.2214 20.9413 57.0908 21.2213 56.9974 21.548C56.9041 21.8653 56.8574 22.22 56.8574 22.612C56.8574 23.004 56.9041 23.3587 56.9974 23.676C57.0908 23.9933 57.2214 24.2687 57.3894 24.502C57.5668 24.726 57.7768 24.9033 58.0194 25.034C58.2621 25.1553 58.5281 25.216 58.8174 25.216ZM63.9973 26V28.408H63.0033L62.8773 25.79V25.062H63.2133C63.3067 25.006 63.3953 24.9313 63.4793 24.838C63.5727 24.7353 63.6567 24.5813 63.7313 24.376C63.806 24.1707 63.8807 23.8953 63.9553 23.55C64.03 23.2047 64.1 22.7567 64.1653 22.206L64.5293 19.196H68.7573V25.062H69.7513V25.79L69.6393 28.408H68.6453V26H63.9973ZM65.1733 22.43C65.0987 23.102 64.996 23.648 64.8653 24.068C64.744 24.488 64.604 24.8193 64.4453 25.062H67.6093V20.134H65.4393L65.1733 22.43ZM72.8332 26.168C72.2639 26.168 71.7879 26 71.4052 25.664C71.0319 25.328 70.8452 24.852 70.8452 24.236C70.8452 23.4893 71.1765 22.92 71.8392 22.528C72.5019 22.1267 73.5612 21.8467 75.0172 21.688C75.0172 21.4733 74.9939 21.2633 74.9472 21.058C74.9099 20.8527 74.8399 20.6707 74.7372 20.512C74.6345 20.3533 74.4899 20.2273 74.3032 20.134C74.1259 20.0313 73.8972 19.98 73.6172 19.98C73.2252 19.98 72.8565 20.0547 72.5112 20.204C72.1659 20.3533 71.8579 20.5213 71.5872 20.708L71.1392 19.91C71.4565 19.7047 71.8439 19.5087 72.3012 19.322C72.7585 19.126 73.2625 19.028 73.8132 19.028C74.6439 19.028 75.2459 19.2847 75.6192 19.798C75.9925 20.302 76.1792 20.9787 76.1792 21.828V26H75.2272L75.1292 25.188H75.0872C74.7605 25.4587 74.4105 25.692 74.0372 25.888C73.6639 26.0747 73.2625 26.168 72.8332 26.168ZM73.1692 25.244C73.4959 25.244 73.8039 25.1693 74.0932 25.02C74.3825 24.8613 74.6905 24.6327 75.0172 24.334V22.444C74.4479 22.5187 73.9672 22.6073 73.5752 22.71C73.1925 22.8127 72.8799 22.934 72.6372 23.074C72.4039 23.214 72.2312 23.3773 72.1192 23.564C72.0165 23.7413 71.9652 23.9373 71.9652 24.152C71.9652 24.544 72.0819 24.824 72.3152 24.992C72.5485 25.16 72.8332 25.244 73.1692 25.244ZM82.0439 26V23.284C81.9225 23.312 81.8105 23.3353 81.7079 23.354C81.6145 23.3633 81.5165 23.3773 81.4139 23.396C81.3205 23.4053 81.2179 23.4147 81.1059 23.424C80.9939 23.424 80.8632 23.424 80.7139 23.424C79.8459 23.424 79.1739 23.242 78.6979 22.878C78.2312 22.514 77.9979 21.9073 77.9979 21.058V19.196H79.1459V21.058C79.1459 21.562 79.2859 21.926 79.5659 22.15C79.8552 22.374 80.3125 22.486 80.9379 22.486C81.1432 22.486 81.3299 22.4767 81.4979 22.458C81.6659 22.4393 81.8479 22.4067 82.0439 22.36V19.196H83.1919V26H82.0439ZM87.0519 26.168C86.4826 26.168 86.0066 26 85.6239 25.664C85.2506 25.328 85.0639 24.852 85.0639 24.236C85.0639 23.4893 85.3953 22.92 86.0579 22.528C86.7206 22.1267 87.7799 21.8467 89.2359 21.688C89.2359 21.4733 89.2126 21.2633 89.1659 21.058C89.1286 20.8527 89.0586 20.6707 88.9559 20.512C88.8533 20.3533 88.7086 20.2273 88.5219 20.134C88.3446 20.0313 88.1159 19.98 87.8359 19.98C87.4439 19.98 87.0753 20.0547 86.7299 20.204C86.3846 20.3533 86.0766 20.5213 85.8059 20.708L85.3579 19.91C85.6753 19.7047 86.0626 19.5087 86.5199 19.322C86.9773 19.126 87.4813 19.028 88.0319 19.028C88.8626 19.028 89.4646 19.2847 89.8379 19.798C90.2113 20.302 90.3979 20.9787 90.3979 21.828V26H89.4459L89.3479 25.188H89.3059C88.9793 25.4587 88.6293 25.692 88.2559 25.888C87.8826 26.0747 87.4813 26.168 87.0519 26.168ZM87.3879 25.244C87.7146 25.244 88.0226 25.1693 88.3119 25.02C88.6013 24.8613 88.9093 24.6327 89.2359 24.334V22.444C88.6666 22.5187 88.1859 22.6073 87.7939 22.71C87.4113 22.8127 87.0986 22.934 86.8559 23.074C86.6226 23.214 86.4499 23.3773 86.3379 23.564C86.2353 23.7413 86.1839 23.9373 86.1839 24.152C86.1839 24.544 86.3006 24.824 86.5339 24.992C86.7673 25.16 87.0519 25.244 87.3879 25.244ZM97.2874 26.168C96.8114 26.168 96.3634 26.1073 95.9434 25.986C95.5234 25.8553 95.1127 25.6267 94.7114 25.3L95.2014 24.558C95.5187 24.8193 95.8407 25.0013 96.1674 25.104C96.5034 25.1973 96.844 25.244 97.1894 25.244C97.4227 25.244 97.642 25.216 97.8474 25.16C98.0527 25.104 98.23 25.0247 98.3794 24.922C98.538 24.8193 98.6594 24.6933 98.7434 24.544C98.8367 24.3853 98.8834 24.2127 98.8834 24.026C98.8834 23.634 98.734 23.3447 98.4354 23.158C98.1367 22.9713 97.7074 22.878 97.1474 22.878H96.2094V22.052H96.9794C97.53 22.052 97.9407 21.9587 98.2114 21.772C98.482 21.576 98.6174 21.31 98.6174 20.974C98.6174 20.6287 98.4867 20.372 98.2254 20.204C97.964 20.0267 97.6234 19.938 97.2034 19.938C96.8114 19.938 96.4707 19.9893 96.1814 20.092C95.9014 20.1947 95.626 20.344 95.3554 20.54L94.8654 19.784C95.192 19.5507 95.5467 19.3687 95.9294 19.238C96.3214 19.098 96.7647 19.028 97.2594 19.028C97.5954 19.028 97.9127 19.0653 98.2114 19.14C98.51 19.2147 98.7714 19.3267 98.9954 19.476C99.2194 19.6253 99.3967 19.8167 99.5274 20.05C99.6674 20.2833 99.7374 20.554 99.7374 20.862C99.7374 21.1887 99.6394 21.4873 99.4434 21.758C99.2474 22.0287 98.972 22.234 98.6174 22.374V22.43C99.0094 22.5327 99.3407 22.7193 99.6114 22.99C99.8914 23.2513 100.031 23.6293 100.031 24.124C100.031 24.4413 99.9567 24.726 99.8074 24.978C99.658 25.23 99.4574 25.4447 99.2054 25.622C98.9534 25.7993 98.6594 25.9347 98.3234 26.028C97.9967 26.1213 97.6514 26.168 97.2874 26.168ZM103.294 26.168C102.725 26.168 102.249 26 101.866 25.664C101.493 25.328 101.306 24.852 101.306 24.236C101.306 23.4893 101.637 22.92 102.3 22.528C102.963 22.1267 104.022 21.8467 105.478 21.688C105.478 21.4733 105.455 21.2633 105.408 21.058C105.371 20.8527 105.301 20.6707 105.198 20.512C105.095 20.3533 104.951 20.2273 104.764 20.134C104.587 20.0313 104.358 19.98 104.078 19.98C103.686 19.98 103.317 20.0547 102.972 20.204C102.627 20.3533 102.319 20.5213 102.048 20.708L101.6 19.91C101.917 19.7047 102.305 19.5087 102.762 19.322C103.219 19.126 103.723 19.028 104.274 19.028C105.105 19.028 105.707 19.2847 106.08 19.798C106.453 20.302 106.64 20.9787 106.64 21.828V26H105.688L105.59 25.188H105.548C105.221 25.4587 104.871 25.692 104.498 25.888C104.125 26.0747 103.723 26.168 103.294 26.168ZM103.63 25.244C103.957 25.244 104.265 25.1693 104.554 25.02C104.843 24.8613 105.151 24.6327 105.478 24.334V22.444C104.909 22.5187 104.428 22.6073 104.036 22.71C103.653 22.8127 103.341 22.934 103.098 23.074C102.865 23.214 102.692 23.3773 102.58 23.564C102.477 23.7413 102.426 23.9373 102.426 24.152C102.426 24.544 102.543 24.824 102.776 24.992C103.009 25.16 103.294 25.244 103.63 25.244ZM112.533 26V23.312H111.273H111.259L109.383 26H108.081L110.153 23.158C109.714 23.0273 109.345 22.808 109.047 22.5C108.748 22.1827 108.599 21.7533 108.599 21.212C108.599 20.8387 108.664 20.526 108.795 20.274C108.935 20.0127 109.121 19.8027 109.355 19.644C109.597 19.4853 109.882 19.3733 110.209 19.308C110.535 19.2333 110.89 19.196 111.273 19.196H113.681V26H112.533ZM111.469 22.472H112.533V20.092H111.469C110.937 20.092 110.517 20.1853 110.209 20.372C109.91 20.5493 109.761 20.8387 109.761 21.24C109.761 21.6413 109.91 21.9493 110.209 22.164C110.517 22.3693 110.937 22.472 111.469 22.472ZM115.972 26V19.196H118.59C118.964 19.196 119.304 19.2287 119.612 19.294C119.92 19.3593 120.182 19.462 120.396 19.602C120.62 19.7327 120.793 19.91 120.914 20.134C121.036 20.3487 121.096 20.61 121.096 20.918C121.096 21.3007 120.994 21.6133 120.788 21.856C120.592 22.0987 120.317 22.2713 119.962 22.374V22.416C120.158 22.4627 120.34 22.528 120.508 22.612C120.686 22.696 120.84 22.8033 120.97 22.934C121.101 23.0647 121.204 23.2233 121.278 23.41C121.353 23.5967 121.39 23.8113 121.39 24.054C121.39 24.39 121.32 24.6793 121.18 24.922C121.05 25.1647 120.863 25.37 120.62 25.538C120.387 25.6967 120.107 25.8133 119.78 25.888C119.454 25.9627 119.094 26 118.702 26H115.972ZM117.106 22.052H118.394C118.964 22.052 119.37 21.9633 119.612 21.786C119.855 21.5993 119.976 21.3473 119.976 21.03C119.976 20.7127 119.86 20.4653 119.626 20.288C119.393 20.1107 119.01 20.022 118.478 20.022H117.106V22.052ZM117.106 25.174H118.576C119.136 25.174 119.552 25.0713 119.822 24.866C120.102 24.6607 120.242 24.3667 120.242 23.984C120.242 23.6387 120.098 23.368 119.808 23.172C119.519 22.976 119.085 22.878 118.506 22.878H117.106V25.174ZM123.082 26V19.196H124.23V21.996H125.546L126.218 20.484C126.348 20.1853 126.479 19.9427 126.61 19.756C126.74 19.5693 126.88 19.4247 127.03 19.322C127.179 19.21 127.333 19.1353 127.492 19.098C127.65 19.0513 127.823 19.028 128.01 19.028C128.159 19.028 128.29 19.0513 128.402 19.098L128.206 20.176C128.159 20.1573 128.122 20.148 128.094 20.148C128.066 20.148 128.028 20.148 127.982 20.148C127.888 20.148 127.8 20.162 127.716 20.19C127.641 20.2087 127.562 20.2507 127.478 20.316C127.403 20.3813 127.324 20.4747 127.24 20.596C127.156 20.7173 127.072 20.876 126.988 21.072L126.414 22.416L128.724 26H127.464L125.574 22.934H124.23V26H123.082ZM130.054 26V19.196H131.174V22.024C131.174 22.388 131.16 22.7893 131.132 23.228C131.114 23.6573 131.09 24.0913 131.062 24.53H131.118C131.249 24.3153 131.398 24.0727 131.566 23.802C131.744 23.5313 131.893 23.2887 132.014 23.074L134.59 19.196H135.668V26H134.548V23.172C134.548 22.808 134.558 22.4113 134.576 21.982C134.604 21.5433 134.632 21.1 134.66 20.652H134.604C134.474 20.8667 134.32 21.114 134.142 21.394C133.974 21.6647 133.83 21.9027 133.708 22.108L131.118 26H130.054Z" fill="black"/>
<path d="M192.892 26.168C192.22 26.168 191.618 26.0653 191.086 25.86C190.554 25.6453 190.055 25.3 189.588 24.824L190.246 24.026C190.647 24.4367 191.053 24.726 191.464 24.894C191.875 25.062 192.346 25.146 192.878 25.146C193.177 25.146 193.457 25.1087 193.718 25.034C193.979 24.95 194.208 24.8333 194.404 24.684C194.6 24.5253 194.754 24.334 194.866 24.11C194.987 23.886 195.048 23.6293 195.048 23.34C195.048 22.752 194.833 22.318 194.404 22.038C193.975 21.758 193.363 21.618 192.57 21.618H191.534V20.722H192.29C193.102 20.722 193.685 20.5913 194.04 20.33C194.395 20.0593 194.572 19.6627 194.572 19.14C194.572 18.6547 194.399 18.2907 194.054 18.048C193.718 17.796 193.293 17.67 192.78 17.67C192.351 17.67 191.954 17.7493 191.59 17.908C191.226 18.0573 190.904 18.2627 190.624 18.524L189.994 17.74C190.321 17.4133 190.731 17.152 191.226 16.956C191.721 16.7507 192.248 16.648 192.808 16.648C193.237 16.648 193.629 16.704 193.984 16.816C194.348 16.9187 194.656 17.0727 194.908 17.278C195.169 17.474 195.37 17.7213 195.51 18.02C195.65 18.3093 195.72 18.636 195.72 19C195.72 19.4853 195.603 19.9147 195.37 20.288C195.137 20.652 194.796 20.9133 194.348 21.072V21.128C194.88 21.2307 195.319 21.478 195.664 21.87C196.019 22.2527 196.196 22.7613 196.196 23.396C196.196 23.8347 196.107 24.2267 195.93 24.572C195.762 24.9173 195.529 25.2113 195.23 25.454C194.931 25.6873 194.581 25.8647 194.18 25.986C193.779 26.1073 193.349 26.168 192.892 26.168ZM199.468 26.168C198.899 26.168 198.423 26 198.04 25.664C197.667 25.328 197.48 24.852 197.48 24.236C197.48 23.4893 197.811 22.92 198.474 22.528C199.137 22.1267 200.196 21.8467 201.652 21.688C201.652 21.4733 201.629 21.2633 201.582 21.058C201.545 20.8527 201.475 20.6707 201.372 20.512C201.269 20.3533 201.125 20.2273 200.938 20.134C200.761 20.0313 200.532 19.98 200.252 19.98C199.86 19.98 199.491 20.0547 199.146 20.204C198.801 20.3533 198.493 20.5213 198.222 20.708L197.774 19.91C198.091 19.7047 198.479 19.5087 198.936 19.322C199.393 19.126 199.897 19.028 200.448 19.028C201.279 19.028 201.881 19.2847 202.254 19.798C202.627 20.302 202.814 20.9787 202.814 21.828V26H201.862L201.764 25.188H201.722C201.395 25.4587 201.045 25.692 200.672 25.888C200.299 26.0747 199.897 26.168 199.468 26.168ZM199.804 25.244C200.131 25.244 200.439 25.1693 200.728 25.02C201.017 24.8613 201.325 24.6327 201.652 24.334V22.444C201.083 22.5187 200.602 22.6073 200.21 22.71C199.827 22.8127 199.515 22.934 199.272 23.074C199.039 23.214 198.866 23.3773 198.754 23.564C198.651 23.7413 198.6 23.9373 198.6 24.152C198.6 24.544 198.717 24.824 198.95 24.992C199.183 25.16 199.468 25.244 199.804 25.244ZM204.955 26V19.196H207.573C207.946 19.196 208.287 19.2287 208.595 19.294C208.903 19.3593 209.164 19.462 209.379 19.602C209.603 19.7327 209.775 19.91 209.897 20.134C210.018 20.3487 210.079 20.61 210.079 20.918C210.079 21.3007 209.976 21.6133 209.771 21.856C209.575 22.0987 209.299 22.2713 208.945 22.374V22.416C209.141 22.4627 209.323 22.528 209.491 22.612C209.668 22.696 209.822 22.8033 209.953 22.934C210.083 23.0647 210.186 23.2233 210.261 23.41C210.335 23.5967 210.373 23.8113 210.373 24.054C210.373 24.39 210.303 24.6793 210.163 24.922C210.032 25.1647 209.845 25.37 209.603 25.538C209.369 25.6967 209.089 25.8133 208.763 25.888C208.436 25.9627 208.077 26 207.685 26H204.955ZM206.089 22.052H207.377C207.946 22.052 208.352 21.9633 208.595 21.786C208.837 21.5993 208.959 21.3473 208.959 21.03C208.959 20.7127 208.842 20.4653 208.609 20.288C208.375 20.1107 207.993 20.022 207.461 20.022H206.089V22.052ZM206.089 25.174H207.559C208.119 25.174 208.534 25.0713 208.805 24.866C209.085 24.6607 209.225 24.3667 209.225 23.984C209.225 23.6387 209.08 23.368 208.791 23.172C208.501 22.976 208.067 22.878 207.489 22.878H206.089V25.174ZM214.822 26.168C214.365 26.168 213.935 26.0887 213.534 25.93C213.142 25.762 212.797 25.5287 212.498 25.23C212.209 24.922 211.98 24.5487 211.812 24.11C211.644 23.6713 211.56 23.172 211.56 22.612C211.56 22.052 211.644 21.5527 211.812 21.114C211.989 20.666 212.218 20.288 212.498 19.98C212.787 19.672 213.114 19.4387 213.478 19.28C213.842 19.112 214.22 19.028 214.612 19.028C215.041 19.028 215.424 19.1027 215.76 19.252C216.105 19.4013 216.39 19.616 216.614 19.896C216.847 20.176 217.025 20.512 217.146 20.904C217.267 21.296 217.328 21.7347 217.328 22.22C217.328 22.3413 217.323 22.4627 217.314 22.584C217.314 22.696 217.305 22.794 217.286 22.878H212.694C212.741 23.606 212.965 24.1847 213.366 24.614C213.777 25.034 214.309 25.244 214.962 25.244C215.289 25.244 215.587 25.1973 215.858 25.104C216.138 25.0013 216.404 24.8707 216.656 24.712L217.062 25.468C216.763 25.6547 216.432 25.818 216.068 25.958C215.704 26.098 215.289 26.168 214.822 26.168ZM212.68 22.052H216.32C216.32 21.3613 216.171 20.8387 215.872 20.484C215.583 20.12 215.172 19.938 214.64 19.938C214.397 19.938 214.164 19.9847 213.94 20.078C213.725 20.1713 213.529 20.3113 213.352 20.498C213.175 20.6753 213.025 20.8947 212.904 21.156C212.792 21.4173 212.717 21.716 212.68 22.052ZM219.009 28.87V19.196H219.961L220.059 19.98H220.101C220.409 19.7187 220.745 19.4947 221.109 19.308C221.483 19.1213 221.87 19.028 222.271 19.028C222.71 19.028 223.097 19.112 223.433 19.28C223.769 19.4387 224.049 19.672 224.273 19.98C224.497 20.2787 224.665 20.6427 224.777 21.072C224.899 21.492 224.959 21.968 224.959 22.5C224.959 23.0787 224.88 23.5967 224.721 24.054C224.563 24.502 224.348 24.8847 224.077 25.202C223.807 25.5193 223.494 25.762 223.139 25.93C222.785 26.0887 222.411 26.168 222.019 26.168C221.702 26.168 221.385 26.098 221.067 25.958C220.759 25.818 220.447 25.6267 220.129 25.384L220.157 26.574V28.87H219.009ZM221.823 25.202C222.103 25.202 222.36 25.1413 222.593 25.02C222.836 24.8893 223.041 24.712 223.209 24.488C223.387 24.2547 223.522 23.97 223.615 23.634C223.718 23.298 223.769 22.92 223.769 22.5C223.769 22.1267 223.737 21.786 223.671 21.478C223.606 21.17 223.499 20.9087 223.349 20.694C223.209 20.47 223.023 20.2973 222.789 20.176C222.565 20.0547 222.295 19.994 221.977 19.994C221.688 19.994 221.394 20.0733 221.095 20.232C220.806 20.3907 220.493 20.6193 220.157 20.918V24.488C220.465 24.7493 220.764 24.936 221.053 25.048C221.343 25.1507 221.599 25.202 221.823 25.202ZM226.775 26V19.196H227.923V25.062H230.317V19.196H231.423V25.062H233.831V19.196H234.965V26H226.775ZM240.019 26.168C239.562 26.168 239.133 26.0887 238.731 25.93C238.339 25.762 237.994 25.5287 237.695 25.23C237.406 24.922 237.177 24.5487 237.009 24.11C236.841 23.6713 236.757 23.172 236.757 22.612C236.757 22.052 236.841 21.5527 237.009 21.114C237.187 20.666 237.415 20.288 237.695 19.98C237.985 19.672 238.311 19.4387 238.675 19.28C239.039 19.112 239.417 19.028 239.809 19.028C240.239 19.028 240.621 19.1027 240.957 19.252C241.303 19.4013 241.587 19.616 241.811 19.896C242.045 20.176 242.222 20.512 242.343 20.904C242.465 21.296 242.525 21.7347 242.525 22.22C242.525 22.3413 242.521 22.4627 242.511 22.584C242.511 22.696 242.502 22.794 242.483 22.878H237.891C237.938 23.606 238.162 24.1847 238.563 24.614C238.974 25.034 239.506 25.244 240.159 25.244C240.486 25.244 240.785 25.1973 241.055 25.104C241.335 25.0013 241.601 24.8707 241.853 24.712L242.259 25.468C241.961 25.6547 241.629 25.818 241.265 25.958C240.901 26.098 240.486 26.168 240.019 26.168ZM237.877 22.052H241.517C241.517 21.3613 241.368 20.8387 241.069 20.484C240.78 20.12 240.369 19.938 239.837 19.938C239.595 19.938 239.361 19.9847 239.137 20.078C238.923 20.1713 238.727 20.3113 238.549 20.498C238.372 20.6753 238.223 20.8947 238.101 21.156C237.989 21.4173 237.915 21.716 237.877 22.052ZM244.207 26V19.196H245.355V21.954H248.631V19.196H249.779V26H248.631V22.976H245.355V26H244.207ZM252.068 26V19.196H253.188V22.024C253.188 22.388 253.174 22.7893 253.146 23.228C253.127 23.6573 253.104 24.0913 253.076 24.53H253.132C253.263 24.3153 253.412 24.0727 253.58 23.802C253.757 23.5313 253.907 23.2887 254.028 23.074L256.604 19.196H257.682V26H256.562V23.172C256.562 22.808 256.571 22.4113 256.59 21.982C256.618 21.5433 256.646 21.1 256.674 20.652H256.618C256.487 20.8667 256.333 21.114 256.156 21.394C255.988 21.6647 255.843 21.9027 255.722 22.108L253.132 26H252.068ZM262.742 26.168C262.285 26.168 261.855 26.0887 261.454 25.93C261.062 25.762 260.717 25.5287 260.418 25.23C260.129 24.922 259.9 24.5487 259.732 24.11C259.564 23.6713 259.48 23.172 259.48 22.612C259.48 22.052 259.564 21.5527 259.732 21.114C259.909 20.666 260.138 20.288 260.418 19.98C260.707 19.672 261.034 19.4387 261.398 19.28C261.762 19.112 262.14 19.028 262.532 19.028C262.961 19.028 263.344 19.1027 263.68 19.252C264.025 19.4013 264.31 19.616 264.534 19.896C264.767 20.176 264.945 20.512 265.066 20.904C265.187 21.296 265.248 21.7347 265.248 22.22C265.248 22.3413 265.243 22.4627 265.234 22.584C265.234 22.696 265.225 22.794 265.206 22.878H260.614C260.661 23.606 260.885 24.1847 261.286 24.614C261.697 25.034 262.229 25.244 262.882 25.244C263.209 25.244 263.507 25.1973 263.778 25.104C264.058 25.0013 264.324 24.8707 264.576 24.712L264.982 25.468C264.683 25.6547 264.352 25.818 263.988 25.958C263.624 26.098 263.209 26.168 262.742 26.168ZM260.6 22.052H264.24C264.24 21.3613 264.091 20.8387 263.792 20.484C263.503 20.12 263.092 19.938 262.56 19.938C262.317 19.938 262.084 19.9847 261.86 20.078C261.645 20.1713 261.449 20.3113 261.272 20.498C261.095 20.6753 260.945 20.8947 260.824 21.156C260.712 21.4173 260.637 21.716 260.6 22.052ZM269.732 26V19.196H275.178V26H274.03V20.134H270.88V26H269.732ZM277.47 28.87V19.196H278.422L278.52 19.98H278.562C278.87 19.7187 279.206 19.4947 279.57 19.308C279.944 19.1213 280.331 19.028 280.732 19.028C281.171 19.028 281.558 19.112 281.894 19.28C282.23 19.4387 282.51 19.672 282.734 19.98C282.958 20.2787 283.126 20.6427 283.238 21.072C283.36 21.492 283.42 21.968 283.42 22.5C283.42 23.0787 283.341 23.5967 283.182 24.054C283.024 24.502 282.809 24.8847 282.538 25.202C282.268 25.5193 281.955 25.762 281.6 25.93C281.246 26.0887 280.872 26.168 280.48 26.168C280.163 26.168 279.846 26.098 279.528 25.958C279.22 25.818 278.908 25.6267 278.59 25.384L278.618 26.574V28.87H277.47ZM280.284 25.202C280.564 25.202 280.821 25.1413 281.054 25.02C281.297 24.8893 281.502 24.712 281.67 24.488C281.848 24.2547 281.983 23.97 282.076 23.634C282.179 23.298 282.23 22.92 282.23 22.5C282.23 22.1267 282.198 21.786 282.132 21.478C282.067 21.17 281.96 20.9087 281.81 20.694C281.67 20.47 281.484 20.2973 281.25 20.176C281.026 20.0547 280.756 19.994 280.438 19.994C280.149 19.994 279.855 20.0733 279.556 20.232C279.267 20.3907 278.954 20.6193 278.618 20.918V24.488C278.926 24.7493 279.225 24.936 279.514 25.048C279.804 25.1507 280.06 25.202 280.284 25.202ZM285.236 26V19.196H286.356V22.024C286.356 22.388 286.342 22.7893 286.314 23.228C286.295 23.6573 286.272 24.0913 286.244 24.53H286.3C286.431 24.3153 286.58 24.0727 286.748 23.802C286.925 23.5313 287.075 23.2887 287.196 23.074L289.772 19.196H290.85V26H289.73V23.172C289.73 22.808 289.739 22.4113 289.758 21.982C289.786 21.5433 289.814 21.1 289.842 20.652H289.786C289.655 20.8667 289.501 21.114 289.324 21.394C289.156 21.6647 289.011 21.9027 288.89 22.108L286.3 26H285.236ZM295.91 26.168C295.453 26.168 295.023 26.0887 294.622 25.93C294.23 25.762 293.885 25.5287 293.586 25.23C293.297 24.922 293.068 24.5487 292.9 24.11C292.732 23.6713 292.648 23.172 292.648 22.612C292.648 22.052 292.732 21.5527 292.9 21.114C293.077 20.666 293.306 20.288 293.586 19.98C293.875 19.672 294.202 19.4387 294.566 19.28C294.93 19.112 295.308 19.028 295.7 19.028C296.129 19.028 296.512 19.1027 296.848 19.252C297.193 19.4013 297.478 19.616 297.702 19.896C297.935 20.176 298.113 20.512 298.234 20.904C298.355 21.296 298.416 21.7347 298.416 22.22C298.416 22.3413 298.411 22.4627 298.402 22.584C298.402 22.696 298.393 22.794 298.374 22.878H293.782C293.829 23.606 294.053 24.1847 294.454 24.614C294.865 25.034 295.397 25.244 296.05 25.244C296.377 25.244 296.675 25.1973 296.946 25.104C297.226 25.0013 297.492 24.8707 297.744 24.712L298.15 25.468C297.851 25.6547 297.52 25.818 297.156 25.958C296.792 26.098 296.377 26.168 295.91 26.168ZM293.768 22.052H297.408C297.408 21.3613 297.259 20.8387 296.96 20.484C296.671 20.12 296.26 19.938 295.728 19.938C295.485 19.938 295.252 19.9847 295.028 20.078C294.813 20.1713 294.617 20.3113 294.44 20.498C294.263 20.6753 294.113 20.8947 293.992 21.156C293.88 21.4173 293.805 21.716 293.768 22.052ZM300.097 26V19.196H301.427L302.757 22.388C302.86 22.668 302.963 22.948 303.065 23.228C303.168 23.4987 303.271 23.7693 303.373 24.04H303.429C303.532 23.7693 303.635 23.4987 303.737 23.228C303.849 22.948 303.952 22.668 304.045 22.388L305.347 19.196H306.663V26H305.613V22.948C305.613 22.7987 305.618 22.626 305.627 22.43C305.637 22.2247 305.646 22.0193 305.655 21.814C305.674 21.5993 305.688 21.3893 305.697 21.184C305.716 20.9693 305.735 20.7733 305.753 20.596H305.697C305.595 20.8667 305.487 21.142 305.375 21.422C305.273 21.6927 305.17 21.954 305.067 22.206L303.779 25.356H303.009L301.693 22.206C301.591 21.954 301.483 21.6927 301.371 21.422C301.269 21.142 301.166 20.8667 301.063 20.596H301.007C301.017 20.7733 301.026 20.9693 301.035 21.184C301.054 21.3893 301.068 21.5993 301.077 21.814C301.096 22.0193 301.11 22.2247 301.119 22.43C301.129 22.626 301.133 22.7987 301.133 22.948V26H300.097ZM310.525 26.168C309.955 26.168 309.479 26 309.097 25.664C308.723 25.328 308.537 24.852 308.537 24.236C308.537 23.4893 308.868 22.92 309.531 22.528C310.193 22.1267 311.253 21.8467 312.709 21.688C312.709 21.4733 312.685 21.2633 312.639 21.058C312.601 20.8527 312.531 20.6707 312.429 20.512C312.326 20.3533 312.181 20.2273 311.995 20.134C311.817 20.0313 311.589 19.98 311.309 19.98C310.917 19.98 310.548 20.0547 310.203 20.204C309.857 20.3533 309.549 20.5213 309.279 20.708L308.831 19.91C309.148 19.7047 309.535 19.5087 309.993 19.322C310.45 19.126 310.954 19.028 311.505 19.028C312.335 19.028 312.937 19.2847 313.311 19.798C313.684 20.302 313.871 20.9787 313.871 21.828V26H312.919L312.821 25.188H312.779C312.452 25.4587 312.102 25.692 311.729 25.888C311.355 26.0747 310.954 26.168 310.525 26.168ZM310.861 25.244C311.187 25.244 311.495 25.1693 311.785 25.02C312.074 24.8613 312.382 24.6327 312.709 24.334V22.444C312.139 22.5187 311.659 22.6073 311.267 22.71C310.884 22.8127 310.571 22.934 310.329 23.074C310.095 23.214 309.923 23.3773 309.811 23.564C309.708 23.7413 309.657 23.9373 309.657 24.152C309.657 24.544 309.773 24.824 310.007 24.992C310.24 25.16 310.525 25.244 310.861 25.244Z" fill="black"/>
<path d="M371.402 26.168C370.777 26.168 370.226 26.0513 369.75 25.818C369.274 25.5847 368.84 25.258 368.448 24.838L369.092 24.11C369.4 24.4367 369.736 24.6933 370.1 24.88C370.473 25.0573 370.898 25.146 371.374 25.146C372.186 25.146 372.83 24.8613 373.306 24.292C373.782 23.7133 374.043 22.8407 374.09 21.674H370.24V20.68H374.076C373.992 19.7 373.717 18.9533 373.25 18.44C372.793 17.9267 372.163 17.67 371.36 17.67C370.949 17.67 370.571 17.7493 370.226 17.908C369.881 18.0573 369.573 18.2673 369.302 18.538L368.658 17.782C368.957 17.4833 369.344 17.222 369.82 16.998C370.305 16.7647 370.833 16.648 371.402 16.648C371.981 16.648 372.508 16.7507 372.984 16.956C373.46 17.1613 373.866 17.4647 374.202 17.866C374.538 18.2673 374.799 18.7667 374.986 19.364C375.173 19.952 375.266 20.6333 375.266 21.408C375.266 22.192 375.168 22.8827 374.972 23.48C374.785 24.068 374.519 24.5627 374.174 24.964C373.829 25.356 373.418 25.6547 372.942 25.86C372.475 26.0653 371.962 26.168 371.402 26.168ZM377.146 26V19.196H378.294V21.996H379.61L380.282 20.484C380.413 20.1853 380.543 19.9427 380.674 19.756C380.805 19.5693 380.945 19.4247 381.094 19.322C381.243 19.21 381.397 19.1353 381.556 19.098C381.715 19.0513 381.887 19.028 382.074 19.028C382.223 19.028 382.354 19.0513 382.466 19.098L382.27 20.176C382.223 20.1573 382.186 20.148 382.158 20.148C382.13 20.148 382.093 20.148 382.046 20.148C381.953 20.148 381.864 20.162 381.78 20.19C381.705 20.2087 381.626 20.2507 381.542 20.316C381.467 20.3813 381.388 20.4747 381.304 20.596C381.22 20.7173 381.136 20.876 381.052 21.072L380.478 22.416L382.788 26H381.528L379.638 22.934H378.294V26H377.146ZM386.574 26.168C386.126 26.168 385.706 26.0887 385.314 25.93C384.922 25.7713 384.582 25.5427 384.292 25.244C384.012 24.936 383.788 24.5627 383.62 24.124C383.462 23.676 383.382 23.172 383.382 22.612C383.382 22.0427 383.471 21.5387 383.648 21.1C383.826 20.652 384.064 20.274 384.362 19.966C384.661 19.658 385.006 19.4247 385.398 19.266C385.8 19.1073 386.22 19.028 386.658 19.028C387.106 19.028 387.489 19.1073 387.806 19.266C388.124 19.4247 388.404 19.6113 388.646 19.826L388.058 20.582C387.862 20.4047 387.652 20.26 387.428 20.148C387.214 20.036 386.971 19.98 386.7 19.98C386.392 19.98 386.108 20.0453 385.846 20.176C385.585 20.2973 385.361 20.4747 385.174 20.708C384.988 20.9413 384.838 21.2213 384.726 21.548C384.624 21.8653 384.572 22.22 384.572 22.612C384.572 23.004 384.624 23.3587 384.726 23.676C384.829 23.9933 384.969 24.2687 385.146 24.502C385.333 24.726 385.557 24.9033 385.818 25.034C386.08 25.1553 386.364 25.216 386.672 25.216C386.99 25.216 387.279 25.1507 387.54 25.02C387.811 24.88 388.054 24.7167 388.268 24.53L388.772 25.3C388.464 25.5707 388.124 25.7853 387.75 25.944C387.377 26.0933 386.985 26.168 386.574 26.168ZM390.271 26V19.196H395.717V26H394.569V20.134H391.419V26H390.271ZM400.767 26.168C400.31 26.168 399.881 26.0887 399.479 25.93C399.087 25.762 398.742 25.5287 398.443 25.23C398.154 24.922 397.925 24.5487 397.757 24.11C397.589 23.6713 397.505 23.172 397.505 22.612C397.505 22.052 397.589 21.5527 397.757 21.114C397.935 20.666 398.163 20.288 398.443 19.98C398.733 19.672 399.059 19.4387 399.423 19.28C399.787 19.112 400.165 19.028 400.557 19.028C400.987 19.028 401.369 19.1027 401.705 19.252C402.051 19.4013 402.335 19.616 402.559 19.896C402.793 20.176 402.97 20.512 403.091 20.904C403.213 21.296 403.273 21.7347 403.273 22.22C403.273 22.3413 403.269 22.4627 403.259 22.584C403.259 22.696 403.25 22.794 403.231 22.878H398.639C398.686 23.606 398.91 24.1847 399.311 24.614C399.722 25.034 400.254 25.244 400.907 25.244C401.234 25.244 401.533 25.1973 401.803 25.104C402.083 25.0013 402.349 24.8707 402.601 24.712L403.007 25.468C402.709 25.6547 402.377 25.818 402.013 25.958C401.649 26.098 401.234 26.168 400.767 26.168ZM398.625 22.052H402.265C402.265 21.3613 402.116 20.8387 401.817 20.484C401.528 20.12 401.117 19.938 400.585 19.938C400.343 19.938 400.109 19.9847 399.885 20.078C399.671 20.1713 399.475 20.3113 399.297 20.498C399.12 20.6753 398.971 20.8947 398.849 21.156C398.737 21.4173 398.663 21.716 398.625 22.052ZM404.955 28.87V19.196H405.907L406.005 19.98H406.047C406.355 19.7187 406.691 19.4947 407.055 19.308C407.428 19.1213 407.815 19.028 408.217 19.028C408.655 19.028 409.043 19.112 409.379 19.28C409.715 19.4387 409.995 19.672 410.219 19.98C410.443 20.2787 410.611 20.6427 410.723 21.072C410.844 21.492 410.905 21.968 410.905 22.5C410.905 23.0787 410.825 23.5967 410.667 24.054C410.508 24.502 410.293 24.8847 410.023 25.202C409.752 25.5193 409.439 25.762 409.085 25.93C408.73 26.0887 408.357 26.168 407.965 26.168C407.647 26.168 407.33 26.098 407.013 25.958C406.705 25.818 406.392 25.6267 406.075 25.384L406.103 26.574V28.87H404.955ZM407.769 25.202C408.049 25.202 408.305 25.1413 408.539 25.02C408.781 24.8893 408.987 24.712 409.155 24.488C409.332 24.2547 409.467 23.97 409.561 23.634C409.663 23.298 409.715 22.92 409.715 22.5C409.715 22.1267 409.682 21.786 409.617 21.478C409.551 21.17 409.444 20.9087 409.295 20.694C409.155 20.47 408.968 20.2973 408.735 20.176C408.511 20.0547 408.24 19.994 407.923 19.994C407.633 19.994 407.339 20.0733 407.041 20.232C406.751 20.3907 406.439 20.6193 406.103 20.918V24.488C406.411 24.7493 406.709 24.936 406.999 25.048C407.288 25.1507 407.545 25.202 407.769 25.202ZM413.986 26V20.134H411.704V19.196H417.416V20.134H415.134V26H413.986ZM418.927 26V19.196H420.047V22.024C420.047 22.388 420.033 22.7893 420.005 23.228C419.987 23.6573 419.963 24.0913 419.935 24.53H419.991C420.122 24.3153 420.271 24.0727 420.439 23.802C420.617 23.5313 420.766 23.2887 420.887 23.074L423.463 19.196H424.541V26H423.421V23.172C423.421 22.808 423.431 22.4113 423.449 21.982C423.477 21.5433 423.505 21.1 423.533 20.652H423.477C423.347 20.8667 423.193 21.114 423.015 21.394C422.847 21.6647 422.703 21.9027 422.581 22.108L419.991 26H418.927ZM428.789 26.168C428.313 26.168 427.865 26.1073 427.445 25.986C427.025 25.8553 426.615 25.6267 426.213 25.3L426.703 24.558C427.021 24.8193 427.343 25.0013 427.669 25.104C428.005 25.1973 428.346 25.244 428.691 25.244C428.925 25.244 429.144 25.216 429.349 25.16C429.555 25.104 429.732 25.0247 429.881 24.922C430.04 24.8193 430.161 24.6933 430.245 24.544C430.339 24.3853 430.385 24.2127 430.385 24.026C430.385 23.634 430.236 23.3447 429.937 23.158C429.639 22.9713 429.209 22.878 428.649 22.878H427.711V22.052H428.481C429.032 22.052 429.443 21.9587 429.713 21.772C429.984 21.576 430.119 21.31 430.119 20.974C430.119 20.6287 429.989 20.372 429.727 20.204C429.466 20.0267 429.125 19.938 428.705 19.938C428.313 19.938 427.973 19.9893 427.683 20.092C427.403 20.1947 427.128 20.344 426.857 20.54L426.367 19.784C426.694 19.5507 427.049 19.3687 427.431 19.238C427.823 19.098 428.267 19.028 428.761 19.028C429.097 19.028 429.415 19.0653 429.713 19.14C430.012 19.2147 430.273 19.3267 430.497 19.476C430.721 19.6253 430.899 19.8167 431.029 20.05C431.169 20.2833 431.239 20.554 431.239 20.862C431.239 21.1887 431.141 21.4873 430.945 21.758C430.749 22.0287 430.474 22.234 430.119 22.374V22.43C430.511 22.5327 430.843 22.7193 431.113 22.99C431.393 23.2513 431.533 23.6293 431.533 24.124C431.533 24.4413 431.459 24.726 431.309 24.978C431.16 25.23 430.959 25.4447 430.707 25.622C430.455 25.7993 430.161 25.9347 429.825 26.028C429.499 26.1213 429.153 26.168 428.789 26.168ZM434.796 26.168C434.227 26.168 433.751 26 433.368 25.664C432.995 25.328 432.808 24.852 432.808 24.236C432.808 23.4893 433.139 22.92 433.802 22.528C434.465 22.1267 435.524 21.8467 436.98 21.688C436.98 21.4733 436.957 21.2633 436.91 21.058C436.873 20.8527 436.803 20.6707 436.7 20.512C436.597 20.3533 436.453 20.2273 436.266 20.134C436.089 20.0313 435.86 19.98 435.58 19.98C435.188 19.98 434.819 20.0547 434.474 20.204C434.129 20.3533 433.821 20.5213 433.55 20.708L433.102 19.91C433.419 19.7047 433.807 19.5087 434.264 19.322C434.721 19.126 435.225 19.028 435.776 19.028C436.607 19.028 437.209 19.2847 437.582 19.798C437.955 20.302 438.142 20.9787 438.142 21.828V26H437.19L437.092 25.188H437.05C436.723 25.4587 436.373 25.692 436 25.888C435.627 26.0747 435.225 26.168 434.796 26.168ZM435.132 25.244C435.459 25.244 435.767 25.1693 436.056 25.02C436.345 24.8613 436.653 24.6327 436.98 24.334V22.444C436.411 22.5187 435.93 22.6073 435.538 22.71C435.155 22.8127 434.843 22.934 434.6 23.074C434.367 23.214 434.194 23.3773 434.082 23.564C433.979 23.7413 433.928 23.9373 433.928 24.152C433.928 24.544 434.045 24.824 434.278 24.992C434.511 25.16 434.796 25.244 435.132 25.244Z" fill="black"/>
<path d="M531.842 20.862L531.408 22.262H534.166L533.732 20.862C533.564 20.3487 533.405 19.84 533.256 19.336C533.107 18.8227 532.957 18.3 532.808 17.768H532.752C532.612 18.3 532.467 18.8227 532.318 19.336C532.169 19.84 532.01 20.3487 531.842 20.862ZM529.042 26L532.15 16.816H533.466L536.574 26H535.328L534.46 23.2H531.114L530.232 26H529.042ZM537.763 26V19.196H538.911V21.996H540.227L540.899 20.484C541.03 20.1853 541.161 19.9427 541.291 19.756C541.422 19.5693 541.562 19.4247 541.711 19.322C541.861 19.21 542.015 19.1353 542.173 19.098C542.332 19.0513 542.505 19.028 542.691 19.028C542.841 19.028 542.971 19.0513 543.083 19.098L542.887 20.176C542.841 20.1573 542.803 20.148 542.775 20.148C542.747 20.148 542.71 20.148 542.663 20.148C542.57 20.148 542.481 20.162 542.397 20.19C542.323 20.2087 542.243 20.2507 542.159 20.316C542.085 20.3813 542.005 20.4747 541.921 20.596C541.837 20.7173 541.753 20.876 541.669 21.072L541.095 22.416L543.405 26H542.145L540.255 22.934H538.911V26H537.763ZM547.191 26.168C546.743 26.168 546.323 26.0887 545.931 25.93C545.539 25.7713 545.199 25.5427 544.909 25.244C544.629 24.936 544.405 24.5627 544.237 24.124C544.079 23.676 543.999 23.172 543.999 22.612C543.999 22.0427 544.088 21.5387 544.265 21.1C544.443 20.652 544.681 20.274 544.979 19.966C545.278 19.658 545.623 19.4247 546.015 19.266C546.417 19.1073 546.837 19.028 547.275 19.028C547.723 19.028 548.106 19.1073 548.423 19.266C548.741 19.4247 549.021 19.6113 549.263 19.826L548.675 20.582C548.479 20.4047 548.269 20.26 548.045 20.148C547.831 20.036 547.588 19.98 547.317 19.98C547.009 19.98 546.725 20.0453 546.463 20.176C546.202 20.2973 545.978 20.4747 545.791 20.708C545.605 20.9413 545.455 21.2213 545.343 21.548C545.241 21.8653 545.189 22.22 545.189 22.612C545.189 23.004 545.241 23.3587 545.343 23.676C545.446 23.9933 545.586 24.2687 545.763 24.502C545.95 24.726 546.174 24.9033 546.435 25.034C546.697 25.1553 546.981 25.216 547.289 25.216C547.607 25.216 547.896 25.1507 548.157 25.02C548.428 24.88 548.671 24.7167 548.885 24.53L549.389 25.3C549.081 25.5707 548.741 25.7853 548.367 25.944C547.994 26.0933 547.602 26.168 547.191 26.168ZM553.345 26.168C552.888 26.168 552.459 26.0887 552.057 25.93C551.665 25.762 551.32 25.5287 551.021 25.23C550.732 24.922 550.503 24.5487 550.335 24.11C550.167 23.6713 550.083 23.172 550.083 22.612C550.083 22.052 550.167 21.5527 550.335 21.114C550.513 20.666 550.741 20.288 551.021 19.98C551.311 19.672 551.637 19.4387 552.001 19.28C552.365 19.112 552.743 19.028 553.135 19.028C553.565 19.028 553.947 19.1027 554.283 19.252C554.629 19.4013 554.913 19.616 555.137 19.896C555.371 20.176 555.548 20.512 555.669 20.904C555.791 21.296 555.851 21.7347 555.851 22.22C555.851 22.3413 555.847 22.4627 555.837 22.584C555.837 22.696 555.828 22.794 555.809 22.878H551.217C551.264 23.606 551.488 24.1847 551.889 24.614C552.3 25.034 552.832 25.244 553.485 25.244C553.812 25.244 554.111 25.1973 554.381 25.104C554.661 25.0013 554.927 24.8707 555.179 24.712L555.585 25.468C555.287 25.6547 554.955 25.818 554.591 25.958C554.227 26.098 553.812 26.168 553.345 26.168ZM551.203 22.052H554.843C554.843 21.3613 554.694 20.8387 554.395 20.484C554.106 20.12 553.695 19.938 553.163 19.938C552.921 19.938 552.687 19.9847 552.463 20.078C552.249 20.1713 552.053 20.3113 551.875 20.498C551.698 20.6753 551.549 20.8947 551.427 21.156C551.315 21.4173 551.241 21.716 551.203 22.052ZM557.141 26.168C557.01 26.168 556.898 26.1587 556.805 26.14C556.721 26.1213 556.627 26.0933 556.525 26.056L556.749 24.992C556.795 25.0107 556.842 25.0247 556.889 25.034C556.935 25.0433 556.991 25.048 557.057 25.048C557.299 25.048 557.495 24.936 557.645 24.712C557.794 24.4787 557.901 24.11 557.967 23.606C558.06 22.8687 558.149 22.136 558.233 21.408C558.317 20.6707 558.401 19.9333 558.485 19.196H562.671V26H561.509V20.134H559.395C559.32 20.7593 559.245 21.3893 559.171 22.024C559.096 22.6493 559.021 23.2747 558.947 23.9C558.751 25.412 558.149 26.168 557.141 26.168ZM567.728 26.168C567.271 26.168 566.842 26.0887 566.44 25.93C566.048 25.762 565.703 25.5287 565.404 25.23C565.115 24.922 564.886 24.5487 564.718 24.11C564.55 23.6713 564.466 23.172 564.466 22.612C564.466 22.052 564.55 21.5527 564.718 21.114C564.896 20.666 565.124 20.288 565.404 19.98C565.694 19.672 566.02 19.4387 566.384 19.28C566.748 19.112 567.126 19.028 567.518 19.028C567.948 19.028 568.33 19.1027 568.666 19.252C569.012 19.4013 569.296 19.616 569.52 19.896C569.754 20.176 569.931 20.512 570.052 20.904C570.174 21.296 570.234 21.7347 570.234 22.22C570.234 22.3413 570.23 22.4627 570.22 22.584C570.22 22.696 570.211 22.794 570.192 22.878H565.6C565.647 23.606 565.871 24.1847 566.272 24.614C566.683 25.034 567.215 25.244 567.868 25.244C568.195 25.244 568.494 25.1973 568.764 25.104C569.044 25.0013 569.31 24.8707 569.562 24.712L569.968 25.468C569.67 25.6547 569.338 25.818 568.974 25.958C568.61 26.098 568.195 26.168 567.728 26.168ZM565.586 22.052H569.226C569.226 21.3613 569.077 20.8387 568.778 20.484C568.489 20.12 568.078 19.938 567.546 19.938C567.304 19.938 567.07 19.9847 566.846 20.078C566.632 20.1713 566.436 20.3113 566.258 20.498C566.081 20.6753 565.932 20.8947 565.81 21.156C565.698 21.4173 565.624 21.716 565.586 22.052ZM571.916 28.87V19.196H572.868L572.966 19.98H573.008C573.316 19.7187 573.652 19.4947 574.016 19.308C574.389 19.1213 574.776 19.028 575.178 19.028C575.616 19.028 576.004 19.112 576.34 19.28C576.676 19.4387 576.956 19.672 577.18 19.98C577.404 20.2787 577.572 20.6427 577.684 21.072C577.805 21.492 577.866 21.968 577.866 22.5C577.866 23.0787 577.786 23.5967 577.628 24.054C577.469 24.502 577.254 24.8847 576.984 25.202C576.713 25.5193 576.4 25.762 576.046 25.93C575.691 26.0887 575.318 26.168 574.926 26.168C574.608 26.168 574.291 26.098 573.974 25.958C573.666 25.818 573.353 25.6267 573.036 25.384L573.064 26.574V28.87H571.916ZM574.73 25.202C575.01 25.202 575.266 25.1413 575.5 25.02C575.742 24.8893 575.948 24.712 576.116 24.488C576.293 24.2547 576.428 23.97 576.522 23.634C576.624 23.298 576.676 22.92 576.676 22.5C576.676 22.1267 576.643 21.786 576.578 21.478C576.512 21.17 576.405 20.9087 576.256 20.694C576.116 20.47 575.929 20.2973 575.696 20.176C575.472 20.0547 575.201 19.994 574.884 19.994C574.594 19.994 574.3 20.0733 574.002 20.232C573.712 20.3907 573.4 20.6193 573.064 20.918V24.488C573.372 24.7493 573.67 24.936 573.96 25.048C574.249 25.1507 574.506 25.202 574.73 25.202ZM581.058 26.168C580.488 26.168 580.012 26 579.63 25.664C579.256 25.328 579.07 24.852 579.07 24.236C579.07 23.4893 579.401 22.92 580.064 22.528C580.726 22.1267 581.786 21.8467 583.242 21.688C583.242 21.4733 583.218 21.2633 583.172 21.058C583.134 20.8527 583.064 20.6707 582.962 20.512C582.859 20.3533 582.714 20.2273 582.528 20.134C582.35 20.0313 582.122 19.98 581.842 19.98C581.45 19.98 581.081 20.0547 580.736 20.204C580.39 20.3533 580.082 20.5213 579.812 20.708L579.364 19.91C579.681 19.7047 580.068 19.5087 580.526 19.322C580.983 19.126 581.487 19.028 582.038 19.028C582.868 19.028 583.47 19.2847 583.844 19.798C584.217 20.302 584.404 20.9787 584.404 21.828V26H583.452L583.354 25.188H583.312C582.985 25.4587 582.635 25.692 582.262 25.888C581.888 26.0747 581.487 26.168 581.058 26.168ZM581.394 25.244C581.72 25.244 582.028 25.1693 582.318 25.02C582.607 24.8613 582.915 24.6327 583.242 24.334V22.444C582.672 22.5187 582.192 22.6073 581.8 22.71C581.417 22.8127 581.104 22.934 580.862 23.074C580.628 23.214 580.456 23.3773 580.344 23.564C580.241 23.7413 580.19 23.9373 580.19 24.152C580.19 24.544 580.306 24.824 580.54 24.992C580.773 25.16 581.058 25.244 581.394 25.244ZM587.851 26V20.134H585.569V19.196H591.281V20.134H588.999V26H587.851ZM595.247 26.168C594.827 26.168 594.426 26.0887 594.043 25.93C593.67 25.7713 593.338 25.5427 593.049 25.244C592.76 24.936 592.526 24.5627 592.349 24.124C592.181 23.676 592.097 23.172 592.097 22.612C592.097 22.0427 592.181 21.5387 592.349 21.1C592.526 20.652 592.76 20.274 593.049 19.966C593.338 19.658 593.67 19.4247 594.043 19.266C594.426 19.1073 594.827 19.028 595.247 19.028C595.667 19.028 596.064 19.1073 596.437 19.266C596.82 19.4247 597.156 19.658 597.445 19.966C597.734 20.274 597.963 20.652 598.131 21.1C598.308 21.5387 598.397 22.0427 598.397 22.612C598.397 23.172 598.308 23.676 598.131 24.124C597.963 24.5627 597.734 24.936 597.445 25.244C597.156 25.5427 596.82 25.7713 596.437 25.93C596.064 26.0887 595.667 26.168 595.247 26.168ZM595.247 25.216C595.536 25.216 595.802 25.1553 596.045 25.034C596.288 24.9033 596.493 24.726 596.661 24.502C596.838 24.2687 596.974 23.9933 597.067 23.676C597.16 23.3587 597.207 23.004 597.207 22.612C597.207 22.22 597.16 21.8653 597.067 21.548C596.974 21.2213 596.838 20.9413 596.661 20.708C596.493 20.4747 596.288 20.2973 596.045 20.176C595.802 20.0453 595.536 19.98 595.247 19.98C594.958 19.98 594.692 20.0453 594.449 20.176C594.206 20.2973 593.996 20.4747 593.819 20.708C593.651 20.9413 593.52 21.2213 593.427 21.548C593.334 21.8653 593.287 22.22 593.287 22.612C593.287 23.004 593.334 23.3587 593.427 23.676C593.52 23.9933 593.651 24.2687 593.819 24.502C593.996 24.726 594.206 24.9033 594.449 25.034C594.692 25.1553 594.958 25.216 595.247 25.216ZM600.189 28.87V19.196H601.141L601.239 19.98H601.281C601.589 19.7187 601.925 19.4947 602.289 19.308C602.662 19.1213 603.05 19.028 603.451 19.028C603.89 19.028 604.277 19.112 604.613 19.28C604.949 19.4387 605.229 19.672 605.453 19.98C605.677 20.2787 605.845 20.6427 605.957 21.072C606.078 21.492 606.139 21.968 606.139 22.5C606.139 23.0787 606.06 23.5967 605.901 24.054C605.742 24.502 605.528 24.8847 605.257 25.202C604.986 25.5193 604.674 25.762 604.319 25.93C603.964 26.0887 603.591 26.168 603.199 26.168C602.882 26.168 602.564 26.098 602.247 25.958C601.939 25.818 601.626 25.6267 601.309 25.384L601.337 26.574V28.87H600.189ZM603.003 25.202C603.283 25.202 603.54 25.1413 603.773 25.02C604.016 24.8893 604.221 24.712 604.389 24.488C604.566 24.2547 604.702 23.97 604.795 23.634C604.898 23.298 604.949 22.92 604.949 22.5C604.949 22.1267 604.916 21.786 604.851 21.478C604.786 21.17 604.678 20.9087 604.529 20.694C604.389 20.47 604.202 20.2973 603.969 20.176C603.745 20.0547 603.474 19.994 603.157 19.994C602.868 19.994 602.574 20.0733 602.275 20.232C601.986 20.3907 601.673 20.6193 601.337 20.918V24.488C601.645 24.7493 601.944 24.936 602.233 25.048C602.522 25.1507 602.779 25.202 603.003 25.202Z" fill="black"/>
<path d="M694.788 26.168C694.172 26.168 693.607 26.0607 693.094 25.846C692.59 25.622 692.156 25.3047 691.792 24.894C691.428 24.4833 691.143 23.984 690.938 23.396C690.742 22.808 690.644 22.1407 690.644 21.394C690.644 20.6473 690.742 19.9847 690.938 19.406C691.143 18.818 691.428 18.328 691.792 17.936C692.156 17.5347 692.59 17.2313 693.094 17.026C693.607 16.8113 694.172 16.704 694.788 16.704C695.404 16.704 695.964 16.8113 696.468 17.026C696.981 17.2313 697.42 17.5347 697.784 17.936C698.148 18.3373 698.428 18.832 698.624 19.42C698.829 19.9987 698.932 20.6567 698.932 21.394C698.932 22.1407 698.829 22.808 698.624 23.396C698.428 23.984 698.148 24.4833 697.784 24.894C697.42 25.3047 696.981 25.622 696.468 25.846C695.964 26.0607 695.404 26.168 694.788 26.168ZM694.788 24.39C695.413 24.39 695.908 24.124 696.272 23.592C696.636 23.0507 696.818 22.318 696.818 21.394C696.818 20.4793 696.636 19.7653 696.272 19.252C695.908 18.7387 695.413 18.482 694.788 18.482C694.163 18.482 693.668 18.7387 693.304 19.252C692.94 19.7653 692.758 20.4793 692.758 21.394C692.758 22.318 692.94 23.0507 693.304 23.592C693.668 24.124 694.163 24.39 694.788 24.39ZM700.48 26V19.056H705.254V20.666H702.538V26H700.48ZM705.689 26.168C705.531 26.168 705.386 26.154 705.255 26.126C705.125 26.098 704.994 26.0607 704.863 26.014L705.199 24.166C705.255 24.1847 705.311 24.1987 705.367 24.208C705.423 24.2173 705.484 24.222 705.549 24.222C705.736 24.222 705.895 24.1473 706.025 23.998C706.165 23.8393 706.259 23.5687 706.305 23.186C706.399 22.4953 706.478 21.8093 706.543 21.128C706.618 20.4467 706.697 19.756 706.781 19.056H711.905V26H709.847V20.666H708.405C708.34 21.1793 708.275 21.6973 708.209 22.22C708.153 22.7333 708.088 23.2467 708.013 23.76C707.901 24.544 707.654 25.1413 707.271 25.552C706.889 25.9627 706.361 26.168 705.689 26.168ZM715.465 26.168C715.147 26.168 714.858 26.112 714.597 26C714.345 25.8973 714.13 25.7527 713.953 25.566C713.775 25.37 713.635 25.146 713.533 24.894C713.439 24.642 713.393 24.3667 713.393 24.068C713.393 23.34 713.701 22.7707 714.317 22.36C714.933 21.9493 715.927 21.674 717.299 21.534C717.28 21.226 717.187 20.9833 717.019 20.806C716.86 20.6193 716.589 20.526 716.207 20.526C715.908 20.526 715.609 20.582 715.311 20.694C715.021 20.806 714.709 20.96 714.373 21.156L713.631 19.798C714.079 19.5273 714.545 19.308 715.031 19.14C715.525 18.972 716.048 18.888 716.599 18.888C717.495 18.888 718.176 19.1447 718.643 19.658C719.119 20.162 719.357 20.9507 719.357 22.024V26H717.677L717.537 25.286H717.481C717.182 25.5473 716.869 25.762 716.543 25.93C716.216 26.0887 715.857 26.168 715.465 26.168ZM716.165 24.572C716.398 24.572 716.599 24.5207 716.767 24.418C716.935 24.3153 717.112 24.1707 717.299 23.984V22.766C716.571 22.8687 716.067 23.018 715.787 23.214C715.507 23.41 715.367 23.6433 715.367 23.914C715.367 24.138 715.437 24.306 715.577 24.418C715.726 24.5207 715.922 24.572 716.165 24.572ZM721.098 26V19.056H723.128V24.39H724.822V19.056H726.796V24.39H728.49V19.056H730.534V26H721.098ZM735.444 26.168C734.949 26.168 734.487 26.0887 734.058 25.93C733.628 25.762 733.255 25.524 732.938 25.216C732.62 24.8987 732.373 24.516 732.196 24.068C732.018 23.62 731.93 23.1067 731.93 22.528C731.93 21.968 732.023 21.464 732.21 21.016C732.396 20.5587 732.639 20.176 732.938 19.868C733.246 19.5507 733.596 19.308 733.988 19.14C734.38 18.972 734.786 18.888 735.206 18.888C735.7 18.888 736.13 18.972 736.494 19.14C736.867 19.308 737.175 19.5413 737.418 19.84C737.67 20.1387 737.856 20.4933 737.978 20.904C738.099 21.3053 738.16 21.744 738.16 22.22C738.16 22.4067 738.15 22.584 738.132 22.752C738.113 22.92 738.094 23.046 738.076 23.13H733.918C734.011 23.634 734.216 24.0073 734.534 24.25C734.86 24.4833 735.257 24.6 735.724 24.6C736.218 24.6 736.718 24.446 737.222 24.138L737.908 25.384C737.553 25.6267 737.156 25.818 736.718 25.958C736.288 26.098 735.864 26.168 735.444 26.168ZM733.904 21.772H736.41C736.41 21.38 736.321 21.0627 736.144 20.82C735.966 20.5773 735.668 20.456 735.248 20.456C734.921 20.456 734.632 20.5633 734.38 20.778C734.137 20.9927 733.978 21.324 733.904 21.772ZM739.582 26V19.056H741.64V21.562H743.866V19.056H745.924V26H743.866V23.354H741.64V26H739.582ZM747.73 26V19.056H749.718V20.988C749.718 21.3333 749.7 21.7253 749.662 22.164C749.625 22.5933 749.588 23.0227 749.55 23.452H749.592C749.704 23.2373 749.84 22.9947 749.998 22.724C750.157 22.444 750.288 22.2013 750.39 21.996L752.196 19.056H754.072V26H752.084V24.068C752.084 23.7133 752.103 23.3213 752.14 22.892C752.178 22.4627 752.22 22.0333 752.266 21.604H752.21C752.098 21.8187 751.963 22.066 751.804 22.346C751.655 22.626 751.524 22.864 751.412 23.06L749.606 26H747.73ZM759 26.168C758.506 26.168 758.044 26.0887 757.614 25.93C757.185 25.762 756.812 25.524 756.494 25.216C756.177 24.8987 755.93 24.516 755.752 24.068C755.575 23.62 755.486 23.1067 755.486 22.528C755.486 21.968 755.58 21.464 755.766 21.016C755.953 20.5587 756.196 20.176 756.494 19.868C756.802 19.5507 757.152 19.308 757.544 19.14C757.936 18.972 758.342 18.888 758.762 18.888C759.257 18.888 759.686 18.972 760.05 19.14C760.424 19.308 760.732 19.5413 760.974 19.84C761.226 20.1387 761.413 20.4933 761.534 20.904C761.656 21.3053 761.716 21.744 761.716 22.22C761.716 22.4067 761.707 22.584 761.688 22.752C761.67 22.92 761.651 23.046 761.632 23.13H757.474C757.568 23.634 757.773 24.0073 758.09 24.25C758.417 24.4833 758.814 24.6 759.28 24.6C759.775 24.6 760.274 24.446 760.778 24.138L761.464 25.384C761.11 25.6267 760.713 25.818 760.274 25.958C759.845 26.098 759.42 26.168 759 26.168ZM757.46 21.772H759.966C759.966 21.38 759.878 21.0627 759.7 20.82C759.523 20.5773 759.224 20.456 758.804 20.456C758.478 20.456 758.188 20.5633 757.936 20.778C757.694 20.9927 757.535 21.324 757.46 21.772ZM765.941 28.576V19.056H767.621L767.761 19.742H767.817C768.088 19.4993 768.391 19.2987 768.727 19.14C769.073 18.972 769.427 18.888 769.791 18.888C770.211 18.888 770.589 18.972 770.925 19.14C771.261 19.308 771.546 19.546 771.779 19.854C772.013 20.162 772.19 20.5353 772.311 20.974C772.442 21.4033 772.507 21.884 772.507 22.416C772.507 23.0133 772.423 23.5453 772.255 24.012C772.097 24.4693 771.877 24.8613 771.597 25.188C771.327 25.5053 771.014 25.748 770.659 25.916C770.314 26.084 769.955 26.168 769.581 26.168C769.283 26.168 768.993 26.1073 768.713 25.986C768.433 25.8553 768.172 25.6733 767.929 25.44L767.999 26.546V28.576H765.941ZM769.105 24.488C769.46 24.488 769.763 24.3293 770.015 24.012C770.267 23.6853 770.393 23.1627 770.393 22.444C770.393 21.1933 769.992 20.568 769.189 20.568C768.788 20.568 768.391 20.778 767.999 21.198V24.04C768.186 24.208 768.373 24.3247 768.559 24.39C768.746 24.4553 768.928 24.488 769.105 24.488ZM777.075 26.168C776.58 26.168 776.118 26.0887 775.689 25.93C775.259 25.762 774.886 25.524 774.569 25.216C774.251 24.8987 774.004 24.516 773.827 24.068C773.649 23.62 773.561 23.1067 773.561 22.528C773.561 21.968 773.654 21.464 773.841 21.016C774.027 20.5587 774.27 20.176 774.569 19.868C774.877 19.5507 775.227 19.308 775.619 19.14C776.011 18.972 776.417 18.888 776.837 18.888C777.331 18.888 777.761 18.972 778.125 19.14C778.498 19.308 778.806 19.5413 779.049 19.84C779.301 20.1387 779.487 20.4933 779.609 20.904C779.73 21.3053 779.791 21.744 779.791 22.22C779.791 22.4067 779.781 22.584 779.763 22.752C779.744 22.92 779.725 23.046 779.707 23.13H775.549C775.642 23.634 775.847 24.0073 776.165 24.25C776.491 24.4833 776.888 24.6 777.355 24.6C777.849 24.6 778.349 24.446 778.853 24.138L779.539 25.384C779.184 25.6267 778.787 25.818 778.349 25.958C777.919 26.098 777.495 26.168 777.075 26.168ZM775.535 21.772H778.041C778.041 21.38 777.952 21.0627 777.775 20.82C777.597 20.5773 777.299 20.456 776.879 20.456C776.552 20.456 776.263 20.5633 776.011 20.778C775.768 20.9927 775.609 21.324 775.535 21.772ZM783.383 26.168C782.907 26.168 782.449 26.112 782.011 26C781.581 25.888 781.143 25.6687 780.695 25.342L781.493 24.04C781.782 24.236 782.076 24.3807 782.375 24.474C782.673 24.558 782.944 24.6 783.187 24.6C783.551 24.6 783.854 24.53 784.097 24.39C784.349 24.25 784.475 24.0587 784.475 23.816C784.475 23.3587 784.12 23.13 783.411 23.13H782.305V21.772H783.285C783.938 21.772 784.265 21.548 784.265 21.1C784.265 20.6707 783.915 20.456 783.215 20.456C782.916 20.456 782.636 20.4887 782.375 20.554C782.113 20.6193 781.847 20.7407 781.577 20.918L780.821 19.602C781.203 19.3593 781.605 19.182 782.025 19.07C782.445 18.9487 782.888 18.888 783.355 18.888C783.728 18.888 784.087 18.93 784.433 19.014C784.778 19.0887 785.081 19.2053 785.343 19.364C785.613 19.5227 785.828 19.728 785.987 19.98C786.145 20.232 786.225 20.5307 786.225 20.876C786.225 21.156 786.136 21.436 785.959 21.716C785.791 21.996 785.515 22.1967 785.133 22.318V22.374C785.553 22.486 785.884 22.6727 786.127 22.934C786.369 23.186 786.491 23.55 786.491 24.026C786.491 24.3807 786.402 24.6933 786.225 24.964C786.047 25.2253 785.814 25.4447 785.525 25.622C785.235 25.7993 784.904 25.9347 784.531 26.028C784.157 26.1213 783.775 26.168 783.383 26.168ZM788.532 28.716C788.317 28.716 788.135 28.702 787.986 28.674C787.836 28.6553 787.692 28.6227 787.552 28.576L787.916 27.008C787.981 27.0267 788.056 27.0453 788.14 27.064C788.224 27.0827 788.303 27.092 788.378 27.092C788.723 27.092 788.989 27.008 789.176 26.84C789.362 26.672 789.502 26.4527 789.596 26.182L789.694 25.818L787.02 19.056H789.092L790.086 22.038C790.188 22.3553 790.282 22.6773 790.366 23.004C790.45 23.3307 790.538 23.6667 790.632 24.012H790.688C790.762 23.6853 790.837 23.3587 790.912 23.032C790.996 22.696 791.08 22.3647 791.164 22.038L792.004 19.056H793.978L791.57 26.07C791.402 26.5087 791.224 26.8913 791.038 27.218C790.86 27.554 790.65 27.8293 790.408 28.044C790.174 28.268 789.904 28.436 789.596 28.548C789.297 28.66 788.942 28.716 788.532 28.716ZM794.844 26.168C794.685 26.168 794.54 26.154 794.41 26.126C794.279 26.098 794.148 26.0607 794.018 26.014L794.354 24.166C794.41 24.1847 794.466 24.1987 794.522 24.208C794.578 24.2173 794.638 24.222 794.704 24.222C794.89 24.222 795.049 24.1473 795.18 23.998C795.32 23.8393 795.413 23.5687 795.46 23.186C795.553 22.4953 795.632 21.8093 795.698 21.128C795.772 20.4467 795.852 19.756 795.936 19.056H801.06V26H799.002V20.666H797.56C797.494 21.1793 797.429 21.6973 797.364 22.22C797.308 22.7333 797.242 23.2467 797.168 23.76C797.056 24.544 796.808 25.1413 796.426 25.552C796.043 25.9627 795.516 26.168 794.844 26.168ZM802.869 26V19.056H804.927V21.268H805.697C806.117 21.268 806.509 21.31 806.873 21.394C807.237 21.4687 807.55 21.5993 807.811 21.786C808.082 21.9727 808.292 22.2153 808.441 22.514C808.6 22.8127 808.679 23.1767 808.679 23.606C808.679 24.054 808.6 24.432 808.441 24.74C808.292 25.0387 808.082 25.286 807.811 25.482C807.55 25.6687 807.237 25.804 806.873 25.888C806.509 25.9627 806.117 26 805.697 26H802.869ZM804.927 24.432H805.613C806.341 24.432 806.705 24.152 806.705 23.592C806.705 23.06 806.341 22.794 805.613 22.794H804.927V24.432ZM810.683 26V20.666H808.639V19.056H814.799V20.666H812.741V26H810.683ZM817.553 26.168C817.235 26.168 816.946 26.112 816.685 26C816.433 25.8973 816.218 25.7527 816.041 25.566C815.863 25.37 815.723 25.146 815.621 24.894C815.527 24.642 815.481 24.3667 815.481 24.068C815.481 23.34 815.789 22.7707 816.405 22.36C817.021 21.9493 818.015 21.674 819.387 21.534C819.368 21.226 819.275 20.9833 819.107 20.806C818.948 20.6193 818.677 20.526 818.295 20.526C817.996 20.526 817.697 20.582 817.399 20.694C817.109 20.806 816.797 20.96 816.461 21.156L815.719 19.798C816.167 19.5273 816.633 19.308 817.119 19.14C817.613 18.972 818.136 18.888 818.687 18.888C819.583 18.888 820.264 19.1447 820.731 19.658C821.207 20.162 821.445 20.9507 821.445 22.024V26H819.765L819.625 25.286H819.569C819.27 25.5473 818.957 25.762 818.631 25.93C818.304 26.0887 817.945 26.168 817.553 26.168ZM818.253 24.572C818.486 24.572 818.687 24.5207 818.855 24.418C819.023 24.3153 819.2 24.1707 819.387 23.984V22.766C818.659 22.8687 818.155 23.018 817.875 23.214C817.595 23.41 817.455 23.6433 817.455 23.914C817.455 24.138 817.525 24.306 817.665 24.418C817.814 24.5207 818.01 24.572 818.253 24.572ZM824.437 26V20.666H822.393V19.056H828.553V20.666H826.495V26H824.437ZM832.566 26.168C832.127 26.168 831.702 26.0887 831.292 25.93C830.881 25.762 830.517 25.524 830.2 25.216C829.892 24.908 829.644 24.53 829.458 24.082C829.271 23.6247 829.178 23.1067 829.178 22.528C829.178 21.9493 829.271 21.436 829.458 20.988C829.644 20.5307 829.892 20.148 830.2 19.84C830.517 19.532 830.881 19.2987 831.292 19.14C831.702 18.972 832.127 18.888 832.566 18.888C833.004 18.888 833.424 18.972 833.826 19.14C834.236 19.2987 834.596 19.532 834.904 19.84C835.221 20.148 835.473 20.5307 835.66 20.988C835.846 21.436 835.94 21.9493 835.94 22.528C835.94 23.1067 835.846 23.6247 835.66 24.082C835.473 24.53 835.221 24.908 834.904 25.216C834.596 25.524 834.236 25.762 833.826 25.93C833.424 26.0887 833.004 26.168 832.566 26.168ZM832.566 24.502C832.986 24.502 833.303 24.3247 833.518 23.97C833.732 23.6153 833.84 23.1347 833.84 22.528C833.84 21.9213 833.732 21.4407 833.518 21.086C833.303 20.7313 832.986 20.554 832.566 20.554C832.136 20.554 831.814 20.7313 831.6 21.086C831.394 21.4407 831.292 21.9213 831.292 22.528C831.292 23.1347 831.394 23.6153 831.6 23.97C831.814 24.3247 832.136 24.502 832.566 24.502ZM837.349 26V19.056H840.303C840.695 19.056 841.059 19.0887 841.395 19.154C841.731 19.21 842.025 19.3127 842.277 19.462C842.529 19.602 842.725 19.7887 842.865 20.022C843.015 20.2553 843.089 20.5447 843.089 20.89C843.089 21.1887 843.001 21.4733 842.823 21.744C842.646 22.0147 842.347 22.206 841.927 22.318V22.374C842.366 22.4767 842.711 22.654 842.963 22.906C843.225 23.158 843.355 23.522 843.355 23.998C843.355 24.3527 843.276 24.6607 843.117 24.922C842.968 25.174 842.763 25.3793 842.501 25.538C842.24 25.6967 841.932 25.8133 841.577 25.888C841.232 25.9627 840.863 26 840.471 26H837.349ZM839.351 21.772H840.163C840.509 21.772 840.756 21.716 840.905 21.604C841.055 21.4827 841.129 21.3147 841.129 21.1C841.129 20.8853 841.055 20.7173 840.905 20.596C840.765 20.4747 840.523 20.414 840.177 20.414H839.351V21.772ZM839.351 24.642H840.345C840.719 24.642 840.98 24.572 841.129 24.432C841.288 24.2827 841.367 24.0913 841.367 23.858C841.367 23.6527 841.283 23.48 841.115 23.34C840.957 23.2 840.695 23.13 840.331 23.13H839.351V24.642Z" fill="#024EDF"/>
<path d="M30.386 27V15.264H33.032V27H30.386Z" fill="#024EDF"/>
<path d="M170.386 27V15.264H173.032V27H170.386ZM175.8 27V15.264H178.446V27H175.8Z" fill="#024EDF"/>
<path d="M346.386 27V15.264H349.032V27H346.386ZM351.8 27V15.264H354.446V27H351.8ZM357.214 27V15.264H359.86V27H357.214Z" fill="#024EDF"/>
<path d="M509.386 27V15.264H512.032V27H509.386ZM516.834 27L513.288 15.264H516.096L517.5 20.736C517.68 21.384 517.836 22.014 517.968 22.626C518.112 23.226 518.274 23.85 518.454 24.498H518.526C518.694 23.85 518.85 23.226 518.994 22.626C519.138 22.014 519.294 21.384 519.462 20.736L520.848 15.264H523.548L520.02 27H516.834Z" fill="#024EDF"/>
<path d="M674.42 27L670.874 15.264H673.682L675.086 20.736C675.266 21.384 675.422 22.014 675.554 22.626C675.698 23.226 675.86 23.85 676.04 24.498H676.112C676.28 23.85 676.436 23.226 676.58 22.626C676.724 22.014 676.88 21.384 677.048 20.736L678.434 15.264H681.134L677.606 27H674.42Z" fill="#024EDF"/>
<path d="M47.422 95V93.776H50.05V85.316H47.962V84.362C48.49 84.266 48.946 84.152 49.33 84.02C49.726 83.876 50.08 83.708 50.392 83.516H51.526V93.776H53.902V95H47.422ZM57.1973 95.216C56.8973 95.216 56.6393 95.114 56.4233 94.91C56.2193 94.694 56.1173 94.424 56.1173 94.1C56.1173 93.752 56.2193 93.476 56.4233 93.272C56.6393 93.056 56.8973 92.948 57.1973 92.948C57.4853 92.948 57.7313 93.056 57.9353 93.272C58.1513 93.476 58.2593 93.752 58.2593 94.1C58.2593 94.424 58.1513 94.694 57.9353 94.91C57.7313 95.114 57.4853 95.216 57.1973 95.216ZM63.9117 95.216C62.7477 95.216 61.8417 94.7 61.1937 93.668C60.5457 92.636 60.2217 91.154 60.2217 89.222C60.2217 87.29 60.5457 85.82 61.1937 84.812C61.8417 83.804 62.7477 83.3 63.9117 83.3C65.0637 83.3 65.9637 83.804 66.6117 84.812C67.2597 85.82 67.5837 87.29 67.5837 89.222C67.5837 91.154 67.2597 92.636 66.6117 93.668C65.9637 94.7 65.0637 95.216 63.9117 95.216ZM63.9117 94.028C64.2477 94.028 64.5477 93.938 64.8117 93.758C65.0877 93.566 65.3217 93.278 65.5137 92.894C65.7177 92.498 65.8737 92 65.9817 91.4C66.0897 90.788 66.1437 90.062 66.1437 89.222C66.1437 88.382 66.0897 87.662 65.9817 87.062C65.8737 86.462 65.7177 85.976 65.5137 85.604C65.3217 85.22 65.0877 84.938 64.8117 84.758C64.5477 84.578 64.2477 84.488 63.9117 84.488C63.5757 84.488 63.2697 84.578 62.9937 84.758C62.7177 84.938 62.4777 85.22 62.2737 85.604C62.0817 85.976 61.9317 86.462 61.8237 87.062C61.7157 87.662 61.6617 88.382 61.6617 89.222C61.6617 90.902 61.8657 92.126 62.2737 92.894C62.6937 93.65 63.2397 94.028 63.9117 94.028ZM69.097 95V94.118C69.961 93.254 70.729 92.474 71.401 91.778C72.073 91.082 72.637 90.44 73.093 89.852C73.549 89.252 73.897 88.706 74.137 88.214C74.377 87.71 74.497 87.224 74.497 86.756C74.497 86.096 74.317 85.556 73.957 85.136C73.597 84.716 73.051 84.506 72.319 84.506C71.839 84.506 71.395 84.644 70.987 84.92C70.579 85.184 70.207 85.508 69.871 85.892L69.025 85.046C69.505 84.518 70.015 84.098 70.555 83.786C71.095 83.462 71.743 83.3 72.499 83.3C73.567 83.3 74.407 83.612 75.019 84.236C75.631 84.848 75.937 85.664 75.937 86.684C75.937 87.224 75.817 87.77 75.577 88.322C75.349 88.862 75.025 89.426 74.605 90.014C74.197 90.59 73.705 91.196 73.129 91.832C72.565 92.456 71.941 93.122 71.257 93.83C71.569 93.806 71.893 93.782 72.229 93.758C72.565 93.734 72.883 93.722 73.183 93.722H76.513V95H69.097ZM79.5742 95.216C79.2742 95.216 79.0162 95.114 78.8002 94.91C78.5962 94.694 78.4942 94.424 78.4942 94.1C78.4942 93.752 78.5962 93.476 78.8002 93.272C79.0162 93.056 79.2742 92.948 79.5742 92.948C79.8622 92.948 80.1082 93.056 80.3122 93.272C80.5282 93.476 80.6362 93.752 80.6362 94.1C80.6362 94.424 80.5282 94.694 80.3122 94.91C80.1082 95.114 79.8622 95.216 79.5742 95.216ZM82.5266 95V94.118C83.3906 93.254 84.1586 92.474 84.8306 91.778C85.5026 91.082 86.0666 90.44 86.5226 89.852C86.9786 89.252 87.3266 88.706 87.5666 88.214C87.8066 87.71 87.9266 87.224 87.9266 86.756C87.9266 86.096 87.7466 85.556 87.3866 85.136C87.0266 84.716 86.4806 84.506 85.7486 84.506C85.2686 84.506 84.8246 84.644 84.4166 84.92C84.0086 85.184 83.6366 85.508 83.3006 85.892L82.4546 85.046C82.9346 84.518 83.4446 84.098 83.9846 83.786C84.5246 83.462 85.1726 83.3 85.9286 83.3C86.9966 83.3 87.8366 83.612 88.4486 84.236C89.0606 84.848 89.3666 85.664 89.3666 86.684C89.3666 87.224 89.2466 87.77 89.0066 88.322C88.7786 88.862 88.4546 89.426 88.0346 90.014C87.6266 90.59 87.1346 91.196 86.5586 91.832C85.9946 92.456 85.3706 93.122 84.6866 93.83C84.9986 93.806 85.3226 93.782 85.6586 93.758C85.9946 93.734 86.3126 93.722 86.6126 93.722H89.9426V95H82.5266ZM95.2359 95.216C94.0719 95.216 93.1659 94.7 92.5179 93.668C91.8699 92.636 91.5459 91.154 91.5459 89.222C91.5459 87.29 91.8699 85.82 92.5179 84.812C93.1659 83.804 94.0719 83.3 95.2359 83.3C96.3879 83.3 97.2879 83.804 97.9359 84.812C98.5839 85.82 98.9079 87.29 98.9079 89.222C98.9079 91.154 98.5839 92.636 97.9359 93.668C97.2879 94.7 96.3879 95.216 95.2359 95.216ZM95.2359 94.028C95.5719 94.028 95.8719 93.938 96.1359 93.758C96.4119 93.566 96.6459 93.278 96.8379 92.894C97.0419 92.498 97.1979 92 97.3059 91.4C97.4139 90.788 97.4679 90.062 97.4679 89.222C97.4679 88.382 97.4139 87.662 97.3059 87.062C97.1979 86.462 97.0419 85.976 96.8379 85.604C96.6459 85.22 96.4119 84.938 96.1359 84.758C95.8719 84.578 95.5719 84.488 95.2359 84.488C94.8999 84.488 94.5939 84.578 94.3179 84.758C94.0419 84.938 93.8019 85.22 93.5979 85.604C93.4059 85.976 93.2559 86.462 93.1479 87.062C93.0399 87.662 92.9859 88.382 92.9859 89.222C92.9859 90.902 93.1899 92.126 93.5979 92.894C94.0179 93.65 94.5639 94.028 95.2359 94.028ZM100.421 95V94.118C101.285 93.254 102.053 92.474 102.725 91.778C103.397 91.082 103.961 90.44 104.417 89.852C104.873 89.252 105.221 88.706 105.461 88.214C105.701 87.71 105.821 87.224 105.821 86.756C105.821 86.096 105.641 85.556 105.281 85.136C104.921 84.716 104.375 84.506 103.643 84.506C103.163 84.506 102.719 84.644 102.311 84.92C101.903 85.184 101.531 85.508 101.195 85.892L100.349 85.046C100.829 84.518 101.339 84.098 101.879 83.786C102.419 83.462 103.067 83.3 103.823 83.3C104.891 83.3 105.731 83.612 106.343 84.236C106.955 84.848 107.261 85.664 107.261 86.684C107.261 87.224 107.141 87.77 106.901 88.322C106.673 88.862 106.349 89.426 105.929 90.014C105.521 90.59 105.029 91.196 104.453 91.832C103.889 92.456 103.265 93.122 102.581 93.83C102.893 93.806 103.217 93.782 103.553 93.758C103.889 93.734 104.207 93.722 104.507 93.722H107.837V95H100.421ZM109.368 95V94.118C110.232 93.254 111 92.474 111.672 91.778C112.344 91.082 112.908 90.44 113.364 89.852C113.82 89.252 114.168 88.706 114.408 88.214C114.648 87.71 114.768 87.224 114.768 86.756C114.768 86.096 114.588 85.556 114.228 85.136C113.868 84.716 113.322 84.506 112.59 84.506C112.11 84.506 111.666 84.644 111.258 84.92C110.85 85.184 110.478 85.508 110.142 85.892L109.296 85.046C109.776 84.518 110.286 84.098 110.826 83.786C111.366 83.462 112.014 83.3 112.77 83.3C113.838 83.3 114.678 83.612 115.29 84.236C115.902 84.848 116.208 85.664 116.208 86.684C116.208 87.224 116.088 87.77 115.848 88.322C115.62 88.862 115.296 89.426 114.876 90.014C114.468 90.59 113.976 91.196 113.4 91.832C112.836 92.456 112.212 93.122 111.528 93.83C111.84 93.806 112.164 93.782 112.5 93.758C112.836 93.734 113.154 93.722 113.454 93.722H116.784V95H109.368Z" fill="#7F7F7F"/>
<path d="M190.422 95V93.776H193.05V85.316H190.962V84.362C191.49 84.266 191.946 84.152 192.33 84.02C192.726 83.876 193.08 83.708 193.392 83.516H194.526V93.776H196.902V95H190.422ZM200.197 95.216C199.897 95.216 199.639 95.114 199.423 94.91C199.219 94.694 199.117 94.424 199.117 94.1C199.117 93.752 199.219 93.476 199.423 93.272C199.639 93.056 199.897 92.948 200.197 92.948C200.485 92.948 200.731 93.056 200.935 93.272C201.151 93.476 201.259 93.752 201.259 94.1C201.259 94.424 201.151 94.694 200.935 94.91C200.731 95.114 200.485 95.216 200.197 95.216ZM206.912 95.216C205.748 95.216 204.842 94.7 204.194 93.668C203.546 92.636 203.222 91.154 203.222 89.222C203.222 87.29 203.546 85.82 204.194 84.812C204.842 83.804 205.748 83.3 206.912 83.3C208.064 83.3 208.964 83.804 209.612 84.812C210.26 85.82 210.584 87.29 210.584 89.222C210.584 91.154 210.26 92.636 209.612 93.668C208.964 94.7 208.064 95.216 206.912 95.216ZM206.912 94.028C207.248 94.028 207.548 93.938 207.812 93.758C208.088 93.566 208.322 93.278 208.514 92.894C208.718 92.498 208.874 92 208.982 91.4C209.09 90.788 209.144 90.062 209.144 89.222C209.144 88.382 209.09 87.662 208.982 87.062C208.874 86.462 208.718 85.976 208.514 85.604C208.322 85.22 208.088 84.938 207.812 84.758C207.548 84.578 207.248 84.488 206.912 84.488C206.576 84.488 206.27 84.578 205.994 84.758C205.718 84.938 205.478 85.22 205.274 85.604C205.082 85.976 204.932 86.462 204.824 87.062C204.716 87.662 204.662 88.382 204.662 89.222C204.662 90.902 204.866 92.126 205.274 92.894C205.694 93.65 206.24 94.028 206.912 94.028ZM212.097 95V94.118C212.961 93.254 213.729 92.474 214.401 91.778C215.073 91.082 215.637 90.44 216.093 89.852C216.549 89.252 216.897 88.706 217.137 88.214C217.377 87.71 217.497 87.224 217.497 86.756C217.497 86.096 217.317 85.556 216.957 85.136C216.597 84.716 216.051 84.506 215.319 84.506C214.839 84.506 214.395 84.644 213.987 84.92C213.579 85.184 213.207 85.508 212.871 85.892L212.025 85.046C212.505 84.518 213.015 84.098 213.555 83.786C214.095 83.462 214.743 83.3 215.499 83.3C216.567 83.3 217.407 83.612 218.019 84.236C218.631 84.848 218.937 85.664 218.937 86.684C218.937 87.224 218.817 87.77 218.577 88.322C218.349 88.862 218.025 89.426 217.605 90.014C217.197 90.59 216.705 91.196 216.129 91.832C215.565 92.456 214.941 93.122 214.257 93.83C214.569 93.806 214.893 93.782 215.229 93.758C215.565 93.734 215.883 93.722 216.183 93.722H219.513V95H212.097ZM222.574 95.216C222.274 95.216 222.016 95.114 221.8 94.91C221.596 94.694 221.494 94.424 221.494 94.1C221.494 93.752 221.596 93.476 221.8 93.272C222.016 93.056 222.274 92.948 222.574 92.948C222.862 92.948 223.108 93.056 223.312 93.272C223.528 93.476 223.636 93.752 223.636 94.1C223.636 94.424 223.528 94.694 223.312 94.91C223.108 95.114 222.862 95.216 222.574 95.216ZM225.527 95V94.118C226.391 93.254 227.159 92.474 227.831 91.778C228.503 91.082 229.067 90.44 229.523 89.852C229.979 89.252 230.327 88.706 230.567 88.214C230.807 87.71 230.927 87.224 230.927 86.756C230.927 86.096 230.747 85.556 230.387 85.136C230.027 84.716 229.481 84.506 228.749 84.506C228.269 84.506 227.825 84.644 227.417 84.92C227.009 85.184 226.637 85.508 226.301 85.892L225.455 85.046C225.935 84.518 226.445 84.098 226.985 83.786C227.525 83.462 228.173 83.3 228.929 83.3C229.997 83.3 230.837 83.612 231.449 84.236C232.061 84.848 232.367 85.664 232.367 86.684C232.367 87.224 232.247 87.77 232.007 88.322C231.779 88.862 231.455 89.426 231.035 90.014C230.627 90.59 230.135 91.196 229.559 91.832C228.995 92.456 228.371 93.122 227.687 93.83C227.999 93.806 228.323 93.782 228.659 93.758C228.995 93.734 229.313 93.722 229.613 93.722H232.943V95H225.527ZM238.236 95.216C237.072 95.216 236.166 94.7 235.518 93.668C234.87 92.636 234.546 91.154 234.546 89.222C234.546 87.29 234.87 85.82 235.518 84.812C236.166 83.804 237.072 83.3 238.236 83.3C239.388 83.3 240.288 83.804 240.936 84.812C241.584 85.82 241.908 87.29 241.908 89.222C241.908 91.154 241.584 92.636 240.936 93.668C240.288 94.7 239.388 95.216 238.236 95.216ZM238.236 94.028C238.572 94.028 238.872 93.938 239.136 93.758C239.412 93.566 239.646 93.278 239.838 92.894C240.042 92.498 240.198 92 240.306 91.4C240.414 90.788 240.468 90.062 240.468 89.222C240.468 88.382 240.414 87.662 240.306 87.062C240.198 86.462 240.042 85.976 239.838 85.604C239.646 85.22 239.412 84.938 239.136 84.758C238.872 84.578 238.572 84.488 238.236 84.488C237.9 84.488 237.594 84.578 237.318 84.758C237.042 84.938 236.802 85.22 236.598 85.604C236.406 85.976 236.256 86.462 236.148 87.062C236.04 87.662 235.986 88.382 235.986 89.222C235.986 90.902 236.19 92.126 236.598 92.894C237.018 93.65 237.564 94.028 238.236 94.028ZM243.421 95V94.118C244.285 93.254 245.053 92.474 245.725 91.778C246.397 91.082 246.961 90.44 247.417 89.852C247.873 89.252 248.221 88.706 248.461 88.214C248.701 87.71 248.821 87.224 248.821 86.756C248.821 86.096 248.641 85.556 248.281 85.136C247.921 84.716 247.375 84.506 246.643 84.506C246.163 84.506 245.719 84.644 245.311 84.92C244.903 85.184 244.531 85.508 244.195 85.892L243.349 85.046C243.829 84.518 244.339 84.098 244.879 83.786C245.419 83.462 246.067 83.3 246.823 83.3C247.891 83.3 248.731 83.612 249.343 84.236C249.955 84.848 250.261 85.664 250.261 86.684C250.261 87.224 250.141 87.77 249.901 88.322C249.673 88.862 249.349 89.426 248.929 90.014C248.521 90.59 248.029 91.196 247.453 91.832C246.889 92.456 246.265 93.122 245.581 93.83C245.893 93.806 246.217 93.782 246.553 93.758C246.889 93.734 247.207 93.722 247.507 93.722H250.837V95H243.421ZM252.368 95V94.118C253.232 93.254 254 92.474 254.672 91.778C255.344 91.082 255.908 90.44 256.364 89.852C256.82 89.252 257.168 88.706 257.408 88.214C257.648 87.71 257.768 87.224 257.768 86.756C257.768 86.096 257.588 85.556 257.228 85.136C256.868 84.716 256.322 84.506 255.59 84.506C255.11 84.506 254.666 84.644 254.258 84.92C253.85 85.184 253.478 85.508 253.142 85.892L252.296 85.046C252.776 84.518 253.286 84.098 253.826 83.786C254.366 83.462 255.014 83.3 255.77 83.3C256.838 83.3 257.678 83.612 258.29 84.236C258.902 84.848 259.208 85.664 259.208 86.684C259.208 87.224 259.088 87.77 258.848 88.322C258.62 88.862 258.296 89.426 257.876 90.014C257.468 90.59 256.976 91.196 256.4 91.832C255.836 92.456 255.212 93.122 254.528 93.83C254.84 93.806 255.164 93.782 255.5 93.758C255.836 93.734 256.154 93.722 256.454 93.722H259.784V95H252.368Z" fill="#7F7F7F"/>
<path d="M369.422 95V93.776H372.05V85.316H369.962V84.362C370.49 84.266 370.946 84.152 371.33 84.02C371.726 83.876 372.08 83.708 372.392 83.516H373.526V93.776H375.902V95H369.422ZM379.197 95.216C378.897 95.216 378.639 95.114 378.423 94.91C378.219 94.694 378.117 94.424 378.117 94.1C378.117 93.752 378.219 93.476 378.423 93.272C378.639 93.056 378.897 92.948 379.197 92.948C379.485 92.948 379.731 93.056 379.935 93.272C380.151 93.476 380.259 93.752 380.259 94.1C380.259 94.424 380.151 94.694 379.935 94.91C379.731 95.114 379.485 95.216 379.197 95.216ZM385.912 95.216C384.748 95.216 383.842 94.7 383.194 93.668C382.546 92.636 382.222 91.154 382.222 89.222C382.222 87.29 382.546 85.82 383.194 84.812C383.842 83.804 384.748 83.3 385.912 83.3C387.064 83.3 387.964 83.804 388.612 84.812C389.26 85.82 389.584 87.29 389.584 89.222C389.584 91.154 389.26 92.636 388.612 93.668C387.964 94.7 387.064 95.216 385.912 95.216ZM385.912 94.028C386.248 94.028 386.548 93.938 386.812 93.758C387.088 93.566 387.322 93.278 387.514 92.894C387.718 92.498 387.874 92 387.982 91.4C388.09 90.788 388.144 90.062 388.144 89.222C388.144 88.382 388.09 87.662 387.982 87.062C387.874 86.462 387.718 85.976 387.514 85.604C387.322 85.22 387.088 84.938 386.812 84.758C386.548 84.578 386.248 84.488 385.912 84.488C385.576 84.488 385.27 84.578 384.994 84.758C384.718 84.938 384.478 85.22 384.274 85.604C384.082 85.976 383.932 86.462 383.824 87.062C383.716 87.662 383.662 88.382 383.662 89.222C383.662 90.902 383.866 92.126 384.274 92.894C384.694 93.65 385.24 94.028 385.912 94.028ZM391.097 95V94.118C391.961 93.254 392.729 92.474 393.401 91.778C394.073 91.082 394.637 90.44 395.093 89.852C395.549 89.252 395.897 88.706 396.137 88.214C396.377 87.71 396.497 87.224 396.497 86.756C396.497 86.096 396.317 85.556 395.957 85.136C395.597 84.716 395.051 84.506 394.319 84.506C393.839 84.506 393.395 84.644 392.987 84.92C392.579 85.184 392.207 85.508 391.871 85.892L391.025 85.046C391.505 84.518 392.015 84.098 392.555 83.786C393.095 83.462 393.743 83.3 394.499 83.3C395.567 83.3 396.407 83.612 397.019 84.236C397.631 84.848 397.937 85.664 397.937 86.684C397.937 87.224 397.817 87.77 397.577 88.322C397.349 88.862 397.025 89.426 396.605 90.014C396.197 90.59 395.705 91.196 395.129 91.832C394.565 92.456 393.941 93.122 393.257 93.83C393.569 93.806 393.893 93.782 394.229 93.758C394.565 93.734 394.883 93.722 395.183 93.722H398.513V95H391.097ZM401.574 95.216C401.274 95.216 401.016 95.114 400.8 94.91C400.596 94.694 400.494 94.424 400.494 94.1C400.494 93.752 400.596 93.476 400.8 93.272C401.016 93.056 401.274 92.948 401.574 92.948C401.862 92.948 402.108 93.056 402.312 93.272C402.528 93.476 402.636 93.752 402.636 94.1C402.636 94.424 402.528 94.694 402.312 94.91C402.108 95.114 401.862 95.216 401.574 95.216ZM404.527 95V94.118C405.391 93.254 406.159 92.474 406.831 91.778C407.503 91.082 408.067 90.44 408.523 89.852C408.979 89.252 409.327 88.706 409.567 88.214C409.807 87.71 409.927 87.224 409.927 86.756C409.927 86.096 409.747 85.556 409.387 85.136C409.027 84.716 408.481 84.506 407.749 84.506C407.269 84.506 406.825 84.644 406.417 84.92C406.009 85.184 405.637 85.508 405.301 85.892L404.455 85.046C404.935 84.518 405.445 84.098 405.985 83.786C406.525 83.462 407.173 83.3 407.929 83.3C408.997 83.3 409.837 83.612 410.449 84.236C411.061 84.848 411.367 85.664 411.367 86.684C411.367 87.224 411.247 87.77 411.007 88.322C410.779 88.862 410.455 89.426 410.035 90.014C409.627 90.59 409.135 91.196 408.559 91.832C407.995 92.456 407.371 93.122 406.687 93.83C406.999 93.806 407.323 93.782 407.659 93.758C407.995 93.734 408.313 93.722 408.613 93.722H411.943V95H404.527ZM417.236 95.216C416.072 95.216 415.166 94.7 414.518 93.668C413.87 92.636 413.546 91.154 413.546 89.222C413.546 87.29 413.87 85.82 414.518 84.812C415.166 83.804 416.072 83.3 417.236 83.3C418.388 83.3 419.288 83.804 419.936 84.812C420.584 85.82 420.908 87.29 420.908 89.222C420.908 91.154 420.584 92.636 419.936 93.668C419.288 94.7 418.388 95.216 417.236 95.216ZM417.236 94.028C417.572 94.028 417.872 93.938 418.136 93.758C418.412 93.566 418.646 93.278 418.838 92.894C419.042 92.498 419.198 92 419.306 91.4C419.414 90.788 419.468 90.062 419.468 89.222C419.468 88.382 419.414 87.662 419.306 87.062C419.198 86.462 419.042 85.976 418.838 85.604C418.646 85.22 418.412 84.938 418.136 84.758C417.872 84.578 417.572 84.488 417.236 84.488C416.9 84.488 416.594 84.578 416.318 84.758C416.042 84.938 415.802 85.22 415.598 85.604C415.406 85.976 415.256 86.462 415.148 87.062C415.04 87.662 414.986 88.382 414.986 89.222C414.986 90.902 415.19 92.126 415.598 92.894C416.018 93.65 416.564 94.028 417.236 94.028ZM422.421 95V94.118C423.285 93.254 424.053 92.474 424.725 91.778C425.397 91.082 425.961 90.44 426.417 89.852C426.873 89.252 427.221 88.706 427.461 88.214C427.701 87.71 427.821 87.224 427.821 86.756C427.821 86.096 427.641 85.556 427.281 85.136C426.921 84.716 426.375 84.506 425.643 84.506C425.163 84.506 424.719 84.644 424.311 84.92C423.903 85.184 423.531 85.508 423.195 85.892L422.349 85.046C422.829 84.518 423.339 84.098 423.879 83.786C424.419 83.462 425.067 83.3 425.823 83.3C426.891 83.3 427.731 83.612 428.343 84.236C428.955 84.848 429.261 85.664 429.261 86.684C429.261 87.224 429.141 87.77 428.901 88.322C428.673 88.862 428.349 89.426 427.929 90.014C427.521 90.59 427.029 91.196 426.453 91.832C425.889 92.456 425.265 93.122 424.581 93.83C424.893 93.806 425.217 93.782 425.553 93.758C425.889 93.734 426.207 93.722 426.507 93.722H429.837V95H422.421ZM431.368 95V94.118C432.232 93.254 433 92.474 433.672 91.778C434.344 91.082 434.908 90.44 435.364 89.852C435.82 89.252 436.168 88.706 436.408 88.214C436.648 87.71 436.768 87.224 436.768 86.756C436.768 86.096 436.588 85.556 436.228 85.136C435.868 84.716 435.322 84.506 434.59 84.506C434.11 84.506 433.666 84.644 433.258 84.92C432.85 85.184 432.478 85.508 432.142 85.892L431.296 85.046C431.776 84.518 432.286 84.098 432.826 83.786C433.366 83.462 434.014 83.3 434.77 83.3C435.838 83.3 436.678 83.612 437.29 84.236C437.902 84.848 438.208 85.664 438.208 86.684C438.208 87.224 438.088 87.77 437.848 88.322C437.62 88.862 437.296 89.426 436.876 90.014C436.468 90.59 435.976 91.196 435.4 91.832C434.836 92.456 434.212 93.122 433.528 93.83C433.84 93.806 434.164 93.782 434.5 93.758C434.836 93.734 435.154 93.722 435.454 93.722H438.784V95H431.368Z" fill="#7F7F7F"/>
<path d="M530.422 95V93.776H533.05V85.316H530.962V84.362C531.49 84.266 531.946 84.152 532.33 84.02C532.726 83.876 533.08 83.708 533.392 83.516H534.526V93.776H536.902V95H530.422ZM540.197 95.216C539.897 95.216 539.639 95.114 539.423 94.91C539.219 94.694 539.117 94.424 539.117 94.1C539.117 93.752 539.219 93.476 539.423 93.272C539.639 93.056 539.897 92.948 540.197 92.948C540.485 92.948 540.731 93.056 540.935 93.272C541.151 93.476 541.259 93.752 541.259 94.1C541.259 94.424 541.151 94.694 540.935 94.91C540.731 95.114 540.485 95.216 540.197 95.216ZM546.912 95.216C545.748 95.216 544.842 94.7 544.194 93.668C543.546 92.636 543.222 91.154 543.222 89.222C543.222 87.29 543.546 85.82 544.194 84.812C544.842 83.804 545.748 83.3 546.912 83.3C548.064 83.3 548.964 83.804 549.612 84.812C550.26 85.82 550.584 87.29 550.584 89.222C550.584 91.154 550.26 92.636 549.612 93.668C548.964 94.7 548.064 95.216 546.912 95.216ZM546.912 94.028C547.248 94.028 547.548 93.938 547.812 93.758C548.088 93.566 548.322 93.278 548.514 92.894C548.718 92.498 548.874 92 548.982 91.4C549.09 90.788 549.144 90.062 549.144 89.222C549.144 88.382 549.09 87.662 548.982 87.062C548.874 86.462 548.718 85.976 548.514 85.604C548.322 85.22 548.088 84.938 547.812 84.758C547.548 84.578 547.248 84.488 546.912 84.488C546.576 84.488 546.27 84.578 545.994 84.758C545.718 84.938 545.478 85.22 545.274 85.604C545.082 85.976 544.932 86.462 544.824 87.062C544.716 87.662 544.662 88.382 544.662 89.222C544.662 90.902 544.866 92.126 545.274 92.894C545.694 93.65 546.24 94.028 546.912 94.028ZM552.097 95V94.118C552.961 93.254 553.729 92.474 554.401 91.778C555.073 91.082 555.637 90.44 556.093 89.852C556.549 89.252 556.897 88.706 557.137 88.214C557.377 87.71 557.497 87.224 557.497 86.756C557.497 86.096 557.317 85.556 556.957 85.136C556.597 84.716 556.051 84.506 555.319 84.506C554.839 84.506 554.395 84.644 553.987 84.92C553.579 85.184 553.207 85.508 552.871 85.892L552.025 85.046C552.505 84.518 553.015 84.098 553.555 83.786C554.095 83.462 554.743 83.3 555.499 83.3C556.567 83.3 557.407 83.612 558.019 84.236C558.631 84.848 558.937 85.664 558.937 86.684C558.937 87.224 558.817 87.77 558.577 88.322C558.349 88.862 558.025 89.426 557.605 90.014C557.197 90.59 556.705 91.196 556.129 91.832C555.565 92.456 554.941 93.122 554.257 93.83C554.569 93.806 554.893 93.782 555.229 93.758C555.565 93.734 555.883 93.722 556.183 93.722H559.513V95H552.097ZM562.574 95.216C562.274 95.216 562.016 95.114 561.8 94.91C561.596 94.694 561.494 94.424 561.494 94.1C561.494 93.752 561.596 93.476 561.8 93.272C562.016 93.056 562.274 92.948 562.574 92.948C562.862 92.948 563.108 93.056 563.312 93.272C563.528 93.476 563.636 93.752 563.636 94.1C563.636 94.424 563.528 94.694 563.312 94.91C563.108 95.114 562.862 95.216 562.574 95.216ZM565.527 95V94.118C566.391 93.254 567.159 92.474 567.831 91.778C568.503 91.082 569.067 90.44 569.523 89.852C569.979 89.252 570.327 88.706 570.567 88.214C570.807 87.71 570.927 87.224 570.927 86.756C570.927 86.096 570.747 85.556 570.387 85.136C570.027 84.716 569.481 84.506 568.749 84.506C568.269 84.506 567.825 84.644 567.417 84.92C567.009 85.184 566.637 85.508 566.301 85.892L565.455 85.046C565.935 84.518 566.445 84.098 566.985 83.786C567.525 83.462 568.173 83.3 568.929 83.3C569.997 83.3 570.837 83.612 571.449 84.236C572.061 84.848 572.367 85.664 572.367 86.684C572.367 87.224 572.247 87.77 572.007 88.322C571.779 88.862 571.455 89.426 571.035 90.014C570.627 90.59 570.135 91.196 569.559 91.832C568.995 92.456 568.371 93.122 567.687 93.83C567.999 93.806 568.323 93.782 568.659 93.758C568.995 93.734 569.313 93.722 569.613 93.722H572.943V95H565.527ZM578.236 95.216C577.072 95.216 576.166 94.7 575.518 93.668C574.87 92.636 574.546 91.154 574.546 89.222C574.546 87.29 574.87 85.82 575.518 84.812C576.166 83.804 577.072 83.3 578.236 83.3C579.388 83.3 580.288 83.804 580.936 84.812C581.584 85.82 581.908 87.29 581.908 89.222C581.908 91.154 581.584 92.636 580.936 93.668C580.288 94.7 579.388 95.216 578.236 95.216ZM578.236 94.028C578.572 94.028 578.872 93.938 579.136 93.758C579.412 93.566 579.646 93.278 579.838 92.894C580.042 92.498 580.198 92 580.306 91.4C580.414 90.788 580.468 90.062 580.468 89.222C580.468 88.382 580.414 87.662 580.306 87.062C580.198 86.462 580.042 85.976 579.838 85.604C579.646 85.22 579.412 84.938 579.136 84.758C578.872 84.578 578.572 84.488 578.236 84.488C577.9 84.488 577.594 84.578 577.318 84.758C577.042 84.938 576.802 85.22 576.598 85.604C576.406 85.976 576.256 86.462 576.148 87.062C576.04 87.662 575.986 88.382 575.986 89.222C575.986 90.902 576.19 92.126 576.598 92.894C577.018 93.65 577.564 94.028 578.236 94.028ZM583.421 95V94.118C584.285 93.254 585.053 92.474 585.725 91.778C586.397 91.082 586.961 90.44 587.417 89.852C587.873 89.252 588.221 88.706 588.461 88.214C588.701 87.71 588.821 87.224 588.821 86.756C588.821 86.096 588.641 85.556 588.281 85.136C587.921 84.716 587.375 84.506 586.643 84.506C586.163 84.506 585.719 84.644 585.311 84.92C584.903 85.184 584.531 85.508 584.195 85.892L583.349 85.046C583.829 84.518 584.339 84.098 584.879 83.786C585.419 83.462 586.067 83.3 586.823 83.3C587.891 83.3 588.731 83.612 589.343 84.236C589.955 84.848 590.261 85.664 590.261 86.684C590.261 87.224 590.141 87.77 589.901 88.322C589.673 88.862 589.349 89.426 588.929 90.014C588.521 90.59 588.029 91.196 587.453 91.832C586.889 92.456 586.265 93.122 585.581 93.83C585.893 93.806 586.217 93.782 586.553 93.758C586.889 93.734 587.207 93.722 587.507 93.722H590.837V95H583.421ZM592.368 95V94.118C593.232 93.254 594 92.474 594.672 91.778C595.344 91.082 595.908 90.44 596.364 89.852C596.82 89.252 597.168 88.706 597.408 88.214C597.648 87.71 597.768 87.224 597.768 86.756C597.768 86.096 597.588 85.556 597.228 85.136C596.868 84.716 596.322 84.506 595.59 84.506C595.11 84.506 594.666 84.644 594.258 84.92C593.85 85.184 593.478 85.508 593.142 85.892L592.296 85.046C592.776 84.518 593.286 84.098 593.826 83.786C594.366 83.462 595.014 83.3 595.77 83.3C596.838 83.3 597.678 83.612 598.29 84.236C598.902 84.848 599.208 85.664 599.208 86.684C599.208 87.224 599.088 87.77 598.848 88.322C598.62 88.862 598.296 89.426 597.876 90.014C597.468 90.59 596.976 91.196 596.4 91.832C595.836 92.456 595.212 93.122 594.528 93.83C594.84 93.806 595.164 93.782 595.5 93.758C595.836 93.734 596.154 93.722 596.454 93.722H599.784V95H592.368Z" fill="#7F7F7F"/>
<path d="M691.422 95V93.776H694.05V85.316H691.962V84.362C692.49 84.266 692.946 84.152 693.33 84.02C693.726 83.876 694.08 83.708 694.392 83.516H695.526V93.776H697.902V95H691.422ZM701.197 95.216C700.897 95.216 700.639 95.114 700.423 94.91C700.219 94.694 700.117 94.424 700.117 94.1C700.117 93.752 700.219 93.476 700.423 93.272C700.639 93.056 700.897 92.948 701.197 92.948C701.485 92.948 701.731 93.056 701.935 93.272C702.151 93.476 702.259 93.752 702.259 94.1C702.259 94.424 702.151 94.694 701.935 94.91C701.731 95.114 701.485 95.216 701.197 95.216ZM707.912 95.216C706.748 95.216 705.842 94.7 705.194 93.668C704.546 92.636 704.222 91.154 704.222 89.222C704.222 87.29 704.546 85.82 705.194 84.812C705.842 83.804 706.748 83.3 707.912 83.3C709.064 83.3 709.964 83.804 710.612 84.812C711.26 85.82 711.584 87.29 711.584 89.222C711.584 91.154 711.26 92.636 710.612 93.668C709.964 94.7 709.064 95.216 707.912 95.216ZM707.912 94.028C708.248 94.028 708.548 93.938 708.812 93.758C709.088 93.566 709.322 93.278 709.514 92.894C709.718 92.498 709.874 92 709.982 91.4C710.09 90.788 710.144 90.062 710.144 89.222C710.144 88.382 710.09 87.662 709.982 87.062C709.874 86.462 709.718 85.976 709.514 85.604C709.322 85.22 709.088 84.938 708.812 84.758C708.548 84.578 708.248 84.488 707.912 84.488C707.576 84.488 707.27 84.578 706.994 84.758C706.718 84.938 706.478 85.22 706.274 85.604C706.082 85.976 705.932 86.462 705.824 87.062C705.716 87.662 705.662 88.382 705.662 89.222C705.662 90.902 705.866 92.126 706.274 92.894C706.694 93.65 707.24 94.028 707.912 94.028ZM713.097 95V94.118C713.961 93.254 714.729 92.474 715.401 91.778C716.073 91.082 716.637 90.44 717.093 89.852C717.549 89.252 717.897 88.706 718.137 88.214C718.377 87.71 718.497 87.224 718.497 86.756C718.497 86.096 718.317 85.556 717.957 85.136C717.597 84.716 717.051 84.506 716.319 84.506C715.839 84.506 715.395 84.644 714.987 84.92C714.579 85.184 714.207 85.508 713.871 85.892L713.025 85.046C713.505 84.518 714.015 84.098 714.555 83.786C715.095 83.462 715.743 83.3 716.499 83.3C717.567 83.3 718.407 83.612 719.019 84.236C719.631 84.848 719.937 85.664 719.937 86.684C719.937 87.224 719.817 87.77 719.577 88.322C719.349 88.862 719.025 89.426 718.605 90.014C718.197 90.59 717.705 91.196 717.129 91.832C716.565 92.456 715.941 93.122 715.257 93.83C715.569 93.806 715.893 93.782 716.229 93.758C716.565 93.734 716.883 93.722 717.183 93.722H720.513V95H713.097ZM723.574 95.216C723.274 95.216 723.016 95.114 722.8 94.91C722.596 94.694 722.494 94.424 722.494 94.1C722.494 93.752 722.596 93.476 722.8 93.272C723.016 93.056 723.274 92.948 723.574 92.948C723.862 92.948 724.108 93.056 724.312 93.272C724.528 93.476 724.636 93.752 724.636 94.1C724.636 94.424 724.528 94.694 724.312 94.91C724.108 95.114 723.862 95.216 723.574 95.216ZM726.527 95V94.118C727.391 93.254 728.159 92.474 728.831 91.778C729.503 91.082 730.067 90.44 730.523 89.852C730.979 89.252 731.327 88.706 731.567 88.214C731.807 87.71 731.927 87.224 731.927 86.756C731.927 86.096 731.747 85.556 731.387 85.136C731.027 84.716 730.481 84.506 729.749 84.506C729.269 84.506 728.825 84.644 728.417 84.92C728.009 85.184 727.637 85.508 727.301 85.892L726.455 85.046C726.935 84.518 727.445 84.098 727.985 83.786C728.525 83.462 729.173 83.3 729.929 83.3C730.997 83.3 731.837 83.612 732.449 84.236C733.061 84.848 733.367 85.664 733.367 86.684C733.367 87.224 733.247 87.77 733.007 88.322C732.779 88.862 732.455 89.426 732.035 90.014C731.627 90.59 731.135 91.196 730.559 91.832C729.995 92.456 729.371 93.122 728.687 93.83C728.999 93.806 729.323 93.782 729.659 93.758C729.995 93.734 730.313 93.722 730.613 93.722H733.943V95H726.527ZM739.236 95.216C738.072 95.216 737.166 94.7 736.518 93.668C735.87 92.636 735.546 91.154 735.546 89.222C735.546 87.29 735.87 85.82 736.518 84.812C737.166 83.804 738.072 83.3 739.236 83.3C740.388 83.3 741.288 83.804 741.936 84.812C742.584 85.82 742.908 87.29 742.908 89.222C742.908 91.154 742.584 92.636 741.936 93.668C741.288 94.7 740.388 95.216 739.236 95.216ZM739.236 94.028C739.572 94.028 739.872 93.938 740.136 93.758C740.412 93.566 740.646 93.278 740.838 92.894C741.042 92.498 741.198 92 741.306 91.4C741.414 90.788 741.468 90.062 741.468 89.222C741.468 88.382 741.414 87.662 741.306 87.062C741.198 86.462 741.042 85.976 740.838 85.604C740.646 85.22 740.412 84.938 740.136 84.758C739.872 84.578 739.572 84.488 739.236 84.488C738.9 84.488 738.594 84.578 738.318 84.758C738.042 84.938 737.802 85.22 737.598 85.604C737.406 85.976 737.256 86.462 737.148 87.062C737.04 87.662 736.986 88.382 736.986 89.222C736.986 90.902 737.19 92.126 737.598 92.894C738.018 93.65 738.564 94.028 739.236 94.028ZM744.421 95V94.118C745.285 93.254 746.053 92.474 746.725 91.778C747.397 91.082 747.961 90.44 748.417 89.852C748.873 89.252 749.221 88.706 749.461 88.214C749.701 87.71 749.821 87.224 749.821 86.756C749.821 86.096 749.641 85.556 749.281 85.136C748.921 84.716 748.375 84.506 747.643 84.506C747.163 84.506 746.719 84.644 746.311 84.92C745.903 85.184 745.531 85.508 745.195 85.892L744.349 85.046C744.829 84.518 745.339 84.098 745.879 83.786C746.419 83.462 747.067 83.3 747.823 83.3C748.891 83.3 749.731 83.612 750.343 84.236C750.955 84.848 751.261 85.664 751.261 86.684C751.261 87.224 751.141 87.77 750.901 88.322C750.673 88.862 750.349 89.426 749.929 90.014C749.521 90.59 749.029 91.196 748.453 91.832C747.889 92.456 747.265 93.122 746.581 93.83C746.893 93.806 747.217 93.782 747.553 93.758C747.889 93.734 748.207 93.722 748.507 93.722H751.837V95H744.421ZM753.368 95V94.118C754.232 93.254 755 92.474 755.672 91.778C756.344 91.082 756.908 90.44 757.364 89.852C757.82 89.252 758.168 88.706 758.408 88.214C758.648 87.71 758.768 87.224 758.768 86.756C758.768 86.096 758.588 85.556 758.228 85.136C757.868 84.716 757.322 84.506 756.59 84.506C756.11 84.506 755.666 84.644 755.258 84.92C754.85 85.184 754.478 85.508 754.142 85.892L753.296 85.046C753.776 84.518 754.286 84.098 754.826 83.786C755.366 83.462 756.014 83.3 756.77 83.3C757.838 83.3 758.678 83.612 759.29 84.236C759.902 84.848 760.208 85.664 760.208 86.684C760.208 87.224 760.088 87.77 759.848 88.322C759.62 88.862 759.296 89.426 758.876 90.014C758.468 90.59 757.976 91.196 757.4 91.832C756.836 92.456 756.212 93.122 755.528 93.83C755.84 93.806 756.164 93.782 756.5 93.758C756.836 93.734 757.154 93.722 757.454 93.722H760.784V95H753.368Z" fill="#7F7F7F"/>
<path fill-rule="evenodd" clip-rule="evenodd" d="M32.5 83.1875C29.5706 83.1875 27.1875 85.5706 27.1875 88.5C27.1875 91.4294 29.5706 93.8125 32.5 93.8125C35.4294 93.8125 37.8125 91.4294 37.8125 88.5C37.8125 85.5706 35.4294 83.1875 32.5 83.1875ZM32.5 94.75C29.0538 94.75 26.25 91.9462 26.25 88.5C26.25 85.0538 29.0538 82.25 32.5 82.25C35.9462 82.25 38.75 85.0538 38.75 88.5C38.75 91.9462 35.9462 94.75 32.5 94.75Z" fill="#7F7F7F"/>
<path fill-rule="evenodd" clip-rule="evenodd" d="M34.6445 90.8077C34.5626 90.8077 34.4801 90.7864 34.4045 90.7421L32.0483 89.3364C31.907 89.2514 31.8195 89.0983 31.8195 88.9333V85.9033C31.8195 85.6446 32.0295 85.4346 32.2883 85.4346C32.5476 85.4346 32.757 85.6446 32.757 85.9033V88.6671L34.8851 89.9358C35.107 90.0689 35.1801 90.3564 35.0476 90.5789C34.9595 90.7258 34.8039 90.8077 34.6445 90.8077Z" fill="#7F7F7F"/>
<path fill-rule="evenodd" clip-rule="evenodd" d="M175.5 83.1875C172.571 83.1875 170.188 85.5706 170.188 88.5C170.188 91.4294 172.571 93.8125 175.5 93.8125C178.429 93.8125 180.812 91.4294 180.812 88.5C180.812 85.5706 178.429 83.1875 175.5 83.1875ZM175.5 94.75C172.054 94.75 169.25 91.9462 169.25 88.5C169.25 85.0538 172.054 82.25 175.5 82.25C178.946 82.25 181.75 85.0538 181.75 88.5C181.75 91.9462 178.946 94.75 175.5 94.75Z" fill="#7F7F7F"/>
<path fill-rule="evenodd" clip-rule="evenodd" d="M177.644 90.8077C177.563 90.8077 177.48 90.7864 177.404 90.7421L175.048 89.3364C174.907 89.2514 174.819 89.0983 174.819 88.9333V85.9033C174.819 85.6446 175.029 85.4346 175.288 85.4346C175.548 85.4346 175.757 85.6446 175.757 85.9033V88.6671L177.885 89.9358C178.107 90.0689 178.18 90.3564 178.048 90.5789C177.959 90.7258 177.804 90.8077 177.644 90.8077Z" fill="#7F7F7F"/>
<path fill-rule="evenodd" clip-rule="evenodd" d="M354.5 83.1875C351.571 83.1875 349.188 85.5706 349.188 88.5C349.188 91.4294 351.571 93.8125 354.5 93.8125C357.429 93.8125 359.812 91.4294 359.812 88.5C359.812 85.5706 357.429 83.1875 354.5 83.1875ZM354.5 94.75C351.054 94.75 348.25 91.9462 348.25 88.5C348.25 85.0538 351.054 82.25 354.5 82.25C357.946 82.25 360.75 85.0538 360.75 88.5C360.75 91.9462 357.946 94.75 354.5 94.75Z" fill="#7F7F7F"/>
<path fill-rule="evenodd" clip-rule="evenodd" d="M356.644 90.8077C356.563 90.8077 356.48 90.7864 356.404 90.7421L354.048 89.3364C353.907 89.2514 353.819 89.0983 353.819 88.9333V85.9033C353.819 85.6446 354.029 85.4346 354.288 85.4346C354.548 85.4346 354.757 85.6446 354.757 85.9033V88.6671L356.885 89.9358C357.107 90.0689 357.18 90.3564 357.048 90.5789C356.959 90.7258 356.804 90.8077 356.644 90.8077Z" fill="#7F7F7F"/>
<path fill-rule="evenodd" clip-rule="evenodd" d="M515.5 83.1875C512.571 83.1875 510.188 85.5706 510.188 88.5C510.188 91.4294 512.571 93.8125 515.5 93.8125C518.429 93.8125 520.812 91.4294 520.812 88.5C520.812 85.5706 518.429 83.1875 515.5 83.1875ZM515.5 94.75C512.054 94.75 509.25 91.9462 509.25 88.5C509.25 85.0538 512.054 82.25 515.5 82.25C518.946 82.25 521.75 85.0538 521.75 88.5C521.75 91.9462 518.946 94.75 515.5 94.75Z" fill="#7F7F7F"/>
<path fill-rule="evenodd" clip-rule="evenodd" d="M517.645 90.8077C517.563 90.8077 517.48 90.7864 517.405 90.7421L515.048 89.3364C514.907 89.2514 514.82 89.0983 514.82 88.9333V85.9033C514.82 85.6446 515.03 85.4346 515.288 85.4346C515.548 85.4346 515.757 85.6446 515.757 85.9033V88.6671L517.885 89.9358C518.107 90.0689 518.18 90.3564 518.048 90.5789C517.96 90.7258 517.804 90.8077 517.645 90.8077Z" fill="#7F7F7F"/>
<path fill-rule="evenodd" clip-rule="evenodd" d="M676.5 83.1875C673.571 83.1875 671.188 85.5706 671.188 88.5C671.188 91.4294 673.571 93.8125 676.5 93.8125C679.429 93.8125 681.812 91.4294 681.812 88.5C681.812 85.5706 679.429 83.1875 676.5 83.1875ZM676.5 94.75C673.054 94.75 670.25 91.9462 670.25 88.5C670.25 85.0538 673.054 82.25 676.5 82.25C679.946 82.25 682.75 85.0538 682.75 88.5C682.75 91.9462 679.946 94.75 676.5 94.75Z" fill="#7F7F7F"/>
<path fill-rule="evenodd" clip-rule="evenodd" d="M678.645 90.8077C678.563 90.8077 678.48 90.7864 678.405 90.7421L676.048 89.3364C675.907 89.2514 675.82 89.0983 675.82 88.9333V85.9033C675.82 85.6446 676.03 85.4346 676.288 85.4346C676.548 85.4346 676.757 85.6446 676.757 85.9033V88.6671L678.885 89.9358C679.107 90.0689 679.18 90.3564 679.048 90.5789C678.96 90.7258 678.804 90.8077 678.645 90.8077Z" fill="#7F7F7F"/>
<path d="M32 59V79" stroke="#7F7F7F" stroke-width="0.5" stroke-dasharray="1 1"/>
<path d="M175 59V79" stroke="#7F7F7F" stroke-width="0.5" stroke-dasharray="1 1"/>
<path d="M354 59V79" stroke="#7F7F7F" stroke-width="0.5" stroke-dasharray="1 1"/>
<path d="M515 59V79" stroke="#7F7F7F" stroke-width="0.5" stroke-dasharray="1 1"/>
<path d="M676 59V79" stroke="#7F7F7F" stroke-width="0.5" stroke-dasharray="1 1"/>
<defs>
<linearGradient id="paint0_linear_6_5331" x1="895" y1="49.0018" x2="-18" y2="48.9968" gradientUnits="userSpaceOnUse">
<stop stop-color="#CE02DF"/>
<stop offset="1" stop-color="#024EDF"/>
</linearGradient>
</defs>
</svg>
