<svg width="25" height="24" viewBox="0 0 25 24" fill="none" xmlns="http://www.w3.org/2000/svg">
<circle cx="12.3683" cy="11.7895" r="11.7895" fill="#024EDF"/>
<path d="M17.6736 8.14589C17.6736 7.26321 16.8947 6.48438 16.0121 6.48438H9.31405C8.43136 6.48438 7.65253 7.26321 7.65253 8.14589V14.8439C7.65253 15.7266 8.43136 16.5054 9.31405 16.5054H12.689V12.7151H11.4429V11.0536H12.689V10.3786C12.689 9.23627 13.5198 8.24974 14.5582 8.24974H15.9082V9.91126H14.5582C14.4025 9.91126 14.2467 10.067 14.2467 10.3786V11.0536H15.9082V12.7151H14.2467V16.5054H16.0121C16.8947 16.5054 17.6736 15.7266 17.6736 14.8439V8.14589Z" fill="white"/>
</svg>
