<svg width="25" height="24" viewBox="0 0 25 24" fill="none" xmlns="http://www.w3.org/2000/svg">
<circle cx="12.5263" cy="11.7895" r="11.7895" fill="#024EDF"/>
<path d="M16.4055 7.07373H9.23662C8.42723 7.07373 7.81055 7.69041 7.81055 8.4998V15.6687C7.81055 16.4781 8.42723 17.0948 9.23662 17.0948H16.4055C17.2149 17.0948 17.8316 16.4781 17.8316 15.6687V8.4998C17.8316 7.69041 17.2149 7.07373 16.4055 7.07373ZM12.8211 15.0906C14.4784 15.0906 15.8274 13.7801 15.8274 12.1999C15.8274 11.9301 15.7888 11.6217 15.7118 11.3905H16.5597V15.476C16.5597 15.6687 16.4055 15.8614 16.1743 15.8614H9.46788C9.27516 15.8614 9.08245 15.7073 9.08245 15.476V11.3519H9.96893C9.89184 11.6217 9.8533 11.8915 9.8533 12.1613C9.81476 13.7801 11.1637 15.0906 12.8211 15.0906ZM12.8211 13.9343C11.7419 13.9343 10.8939 13.0864 10.8939 12.0457C10.8939 11.0051 11.7419 10.1571 12.8211 10.1571C13.9003 10.1571 14.7482 11.0051 14.7482 12.0457C14.7482 13.1249 13.9003 13.9343 12.8211 13.9343ZM16.5212 9.81025C16.5212 10.0415 16.3284 10.2342 16.0972 10.2342H15.018C14.7867 10.2342 14.594 10.0415 14.594 9.81025V8.7696C14.594 8.53835 14.7867 8.34563 15.018 8.34563H16.0972C16.3284 8.34563 16.5212 8.53835 16.5212 8.7696V9.81025Z" fill="white"/>
</svg>
