<svg width="24" height="24" viewBox="0 0 24 24" fill="none" xmlns="http://www.w3.org/2000/svg">
<circle cx="11.7895" cy="11.7895" r="11.7895" fill="#024EDF"/>
<path d="M5.51197 12.01L8.22242 13.0207L9.27903 16.4202C9.32497 16.6499 9.60062 16.6959 9.78437 16.5581L11.3004 15.3177C11.4382 15.1799 11.6679 15.1799 11.8517 15.3177L14.5621 17.2931C14.7459 17.4309 15.0215 17.339 15.0674 17.1093L17.0888 7.46199C17.1347 7.23229 16.905 7.00259 16.6753 7.09447L5.51197 11.4128C5.23633 11.5047 5.23633 11.9182 5.51197 12.01ZM9.14122 12.5154L14.4702 9.25364C14.5621 9.2077 14.654 9.34552 14.5621 9.39146L10.1978 13.4801C10.06 13.6179 9.92219 13.8017 9.92219 14.0314L9.78437 15.1339C9.78437 15.2718 9.55467 15.3177 9.50873 15.1339L8.95745 13.1126C8.81963 12.8829 8.91152 12.6072 9.14122 12.5154Z" fill="white"/>
</svg>
