<svg width="24" height="24" viewBox="0 0 24 24" fill="none" xmlns="http://www.w3.org/2000/svg">
<circle cx="11.9473" cy="11.7895" r="11.7895" fill="#024EDF"/>
<path d="M17.7278 14.8047C17.7278 14.7557 17.6788 14.7557 17.6788 14.7068C17.4831 14.3153 17.0426 13.8259 16.4553 13.2875C16.1617 13.0428 16.0149 12.8471 15.917 12.7492C15.7702 12.5534 15.7702 12.4066 15.8191 12.2109C15.8681 12.064 16.0638 11.8193 16.4064 11.3789C16.6021 11.1342 16.7 10.9874 16.8468 10.8405C17.5809 9.86175 17.9235 9.22553 17.8256 8.93189L17.7767 8.88295C17.7278 8.83401 17.6788 8.78507 17.5809 8.78507C17.4831 8.73613 17.3362 8.73613 17.1894 8.78507H15.3297C15.2808 8.78507 15.2808 8.78507 15.1829 8.78507C15.134 8.78507 15.085 8.78507 15.085 8.78507H15.0361H14.9871L14.9382 8.83401C14.8893 8.88295 14.8893 8.88295 14.8893 8.93189C14.6935 9.47023 14.4488 9.91068 14.2041 10.4001C14.0573 10.6448 13.9105 10.8895 13.7636 11.0852C13.6168 11.281 13.5189 11.4278 13.4211 11.5257C13.3232 11.6236 13.2253 11.6725 13.1764 11.7704C13.1274 11.8193 13.0295 11.8683 13.0295 11.8193C12.9806 11.8193 12.9317 11.8193 12.9317 11.7704C12.8827 11.7215 12.8338 11.6725 12.7848 11.6236C12.7359 11.5746 12.7359 11.4768 12.687 11.3789C12.687 11.281 12.687 11.1831 12.687 11.1342C12.687 11.0852 12.687 10.9384 12.687 10.8405C12.687 10.6937 12.687 10.5958 12.687 10.5469C12.687 10.4001 12.687 10.2043 12.687 10.0086C12.687 9.81281 12.687 9.66599 12.687 9.56811C12.687 9.47023 12.687 9.32341 12.687 9.22553C12.687 9.07871 12.687 8.98083 12.687 8.93189C12.687 8.88295 12.638 8.78507 12.638 8.73613C12.5891 8.68719 12.5401 8.63825 12.4912 8.58931C12.4423 8.54037 12.3444 8.54037 12.2954 8.49143C12.0507 8.44249 11.7571 8.39355 11.4145 8.39355C10.6315 8.39355 10.0932 8.4425 9.8974 8.54038C9.79952 8.58932 9.70164 8.63825 9.6527 8.73613C9.55482 8.83401 9.55482 8.88295 9.60376 8.88295C9.84845 8.93189 10.0442 9.02977 10.1421 9.17659L10.191 9.27447C10.24 9.32341 10.24 9.42129 10.2889 9.56811C10.3379 9.71493 10.3379 9.86175 10.3379 10.0575C10.3379 10.3511 10.3379 10.6448 10.3379 10.8405C10.3379 11.0852 10.2889 11.2321 10.2889 11.3789C10.2889 11.5257 10.24 11.6236 10.191 11.6725C10.1421 11.7704 10.1421 11.8193 10.0932 11.8193C10.0932 11.8193 10.0932 11.8683 10.0442 11.8683C9.99527 11.8683 9.94633 11.9172 9.84845 11.9172C9.79952 11.9172 9.70164 11.8683 9.6527 11.8193C9.55482 11.7704 9.45694 11.6725 9.408 11.5746C9.31012 11.4768 9.21224 11.3299 9.11436 11.1342C9.01648 10.9384 8.86965 10.7427 8.77177 10.449L8.6739 10.2533C8.62496 10.1554 8.52708 9.95963 8.4292 9.71493C8.33132 9.47023 8.23344 9.27447 8.13556 9.02977C8.08662 8.93189 8.03769 8.88295 7.98875 8.83401H7.9398C7.9398 8.83401 7.89086 8.78507 7.84192 8.78507C7.79298 8.78507 7.74405 8.73613 7.69511 8.73613H5.93327C5.73751 8.73613 5.63963 8.78507 5.59069 8.83401L5.54175 8.88295C5.54175 8.88295 5.54175 8.93189 5.54175 8.98083C5.54175 9.02977 5.54175 9.07871 5.59069 9.17659C5.83539 9.76387 6.12903 10.3511 6.42267 10.9384C6.71631 11.4768 7.00995 11.9662 7.20571 12.3087C7.45041 12.6513 7.64616 12.9939 7.89086 13.2875C8.13556 13.5812 8.28238 13.7769 8.33132 13.8748C8.4292 13.9727 8.47813 14.0216 8.52707 14.0706L8.6739 14.2174C8.77178 14.3153 8.9186 14.4621 9.11436 14.6089C9.31012 14.7557 9.55481 14.9025 9.79951 15.0494C10.0442 15.1962 10.3379 15.2941 10.6315 15.392C10.9741 15.4898 11.2677 15.5388 11.5613 15.4898H12.2954C12.4423 15.4898 12.5402 15.4409 12.638 15.343L12.687 15.2941C12.687 15.2451 12.7359 15.2451 12.7359 15.1962C12.7359 15.1472 12.7359 15.0983 12.7359 15.0004C12.7359 14.8047 12.7359 14.6579 12.7848 14.511C12.8338 14.3642 12.8338 14.2663 12.8827 14.1685C12.9317 14.0706 12.9806 14.0216 13.0295 13.9727C13.0785 13.9238 13.1274 13.8748 13.1274 13.8748H13.1764C13.2742 13.8259 13.4211 13.8748 13.5189 13.9727C13.6658 14.0706 13.8126 14.2174 13.9105 14.3642C14.0083 14.511 14.1552 14.6579 14.3509 14.8536C14.5467 15.0494 14.6935 15.1962 14.7914 15.2451L14.9382 15.343C15.0361 15.3919 15.134 15.4409 15.2808 15.4898C15.4276 15.5388 15.5255 15.5388 15.6233 15.5388L17.2873 15.4898C17.4341 15.4898 17.5809 15.4409 17.6788 15.392C17.7767 15.343 17.8256 15.2941 17.8256 15.1962C17.8256 15.1472 17.8256 15.0494 17.8256 15.0004C17.7278 14.9026 17.7278 14.8536 17.7278 14.8047Z" fill="white"/>
</svg>
