<svg width="348" height="97" viewBox="0 0 348 97" fill="none" xmlns="http://www.w3.org/2000/svg">
<path d="M5.46 36.638L7.254 27.044H4.134V16.592H14.586V27.278L11.856 36.638H5.46ZM20.124 36.638L21.918 27.044H18.798V16.592H29.25V27.278L26.52 36.638H20.124Z" fill="#E5E5E5"/>
<path d="M31.552 60V49.456H37.328V50.096H32.288V54.08H36.512V54.72H32.288V59.36H37.488V60H31.552ZM42.3981 60.192C41.8968 60.192 41.4328 60.1013 41.0061 59.92C40.5901 59.7387 40.2221 59.4773 39.9021 59.136C39.5928 58.7947 39.3475 58.3787 39.1661 57.888C38.9955 57.3867 38.9101 56.816 38.9101 56.176C38.9101 55.536 39.0061 54.9653 39.1981 54.464C39.3901 53.952 39.6461 53.5253 39.9661 53.184C40.2861 52.8427 40.6541 52.5813 41.0701 52.4C41.4968 52.2187 41.9448 52.128 42.4141 52.128C42.9475 52.128 43.3901 52.224 43.7421 52.416C44.0941 52.608 44.4035 52.8267 44.6701 53.072L44.2541 53.568C44.0088 53.3333 43.7368 53.1413 43.4381 52.992C43.1395 52.832 42.8035 52.752 42.4301 52.752C42.0355 52.752 41.6675 52.8373 41.3261 53.008C40.9955 53.168 40.7021 53.4027 40.4461 53.712C40.2008 54.0107 40.0035 54.368 39.8541 54.784C39.7155 55.2 39.6461 55.664 39.6461 56.176C39.6461 56.6773 39.7101 57.136 39.8381 57.552C39.9768 57.968 40.1635 58.3253 40.3981 58.624C40.6435 58.9227 40.9368 59.1573 41.2781 59.328C41.6301 59.488 42.0141 59.568 42.4301 59.568C42.8355 59.568 43.2088 59.4827 43.5501 59.312C43.9021 59.1413 44.2115 58.9333 44.4781 58.688L44.8461 59.184C44.5155 59.472 44.1475 59.712 43.7421 59.904C43.3368 60.096 42.8888 60.192 42.3981 60.192ZM46.3149 60.192C46.1015 60.192 45.9149 60.1547 45.7549 60.08L45.9149 59.408C45.9682 59.4293 46.0162 59.4453 46.0589 59.456C46.1122 59.4667 46.1762 59.472 46.2509 59.472C46.5602 59.472 46.8055 59.3173 46.9869 59.008C47.1789 58.6987 47.3122 58.2133 47.3869 57.552C47.4935 56.6773 47.6002 55.808 47.7069 54.944C47.8135 54.0693 47.9149 53.1947 48.0109 52.32H52.1549V60H51.4509V52.928H48.5869C48.4909 53.728 48.3949 54.5227 48.2989 55.312C48.2029 56.1013 48.1122 56.896 48.0269 57.696C47.9202 58.5493 47.7229 59.1787 47.4349 59.584C47.1575 59.9893 46.7842 60.192 46.3149 60.192ZM55.097 60V52.32H55.801V56.16C55.801 56.576 55.7903 57.0347 55.769 57.536C55.7583 58.0373 55.7423 58.544 55.721 59.056H55.785C55.9343 58.8107 56.1157 58.5333 56.329 58.224C56.5423 57.9147 56.7237 57.6373 56.873 57.392L60.329 52.32H61.017V60H60.313V56.16C60.313 55.7333 60.3183 55.2747 60.329 54.784C60.3503 54.2827 60.3717 53.776 60.393 53.264H60.329C60.1797 53.5093 59.9983 53.7867 59.785 54.096C59.5717 54.4053 59.3903 54.6827 59.241 54.928L55.785 60H55.097ZM66.4555 60.192C66.2422 60.192 66.0555 60.1547 65.8955 60.08L66.0555 59.408C66.1088 59.4293 66.1568 59.4453 66.1995 59.456C66.2528 59.4667 66.3168 59.472 66.3915 59.472C66.7008 59.472 66.9462 59.3173 67.1275 59.008C67.3195 58.6987 67.4528 58.2133 67.5275 57.552C67.6342 56.6773 67.7408 55.808 67.8475 54.944C67.9542 54.0693 68.0555 53.1947 68.1515 52.32H72.2955V60H71.5915V52.928H68.7275C68.6315 53.728 68.5355 54.5227 68.4395 55.312C68.3435 56.1013 68.2528 56.896 68.1675 57.696C68.0608 58.5493 67.8635 59.1787 67.5755 59.584C67.2982 59.9893 66.9248 60.192 66.4555 60.192ZM81.1736 60.192C80.7256 60.192 80.3043 60.1067 79.9096 59.936C79.5256 59.7653 79.1843 59.5147 78.8856 59.184C78.5976 58.8533 78.363 58.4533 78.1816 57.984C78.011 57.504 77.9203 56.96 77.9096 56.352H75.9416V60H75.2376V52.32H75.9416V55.696H77.9256C77.9683 55.1307 78.0803 54.6293 78.2616 54.192C78.443 53.744 78.6776 53.3707 78.9656 53.072C79.2536 52.7627 79.5843 52.528 79.9576 52.368C80.331 52.208 80.7363 52.128 81.1736 52.128C81.6216 52.128 82.0376 52.2187 82.4216 52.4C82.8163 52.5813 83.1576 52.8427 83.4456 53.184C83.7443 53.5253 83.9736 53.952 84.1336 54.464C84.3043 54.9653 84.3896 55.536 84.3896 56.176C84.3896 56.816 84.3043 57.3867 84.1336 57.888C83.9736 58.3787 83.7443 58.7947 83.4456 59.136C83.1576 59.4773 82.8163 59.7387 82.4216 59.92C82.0376 60.1013 81.6216 60.192 81.1736 60.192ZM81.1576 59.568C81.531 59.568 81.867 59.488 82.1656 59.328C82.475 59.1573 82.7363 58.9227 82.9496 58.624C83.1736 58.3253 83.3443 57.968 83.4616 57.552C83.5896 57.136 83.6536 56.6773 83.6536 56.176C83.6536 55.664 83.5896 55.2 83.4616 54.784C83.3443 54.368 83.1736 54.0107 82.9496 53.712C82.7363 53.4027 82.475 53.168 82.1656 53.008C81.867 52.8373 81.531 52.752 81.1576 52.752C80.7843 52.752 80.4376 52.8373 80.1176 53.008C79.8083 53.168 79.5416 53.4027 79.3176 53.712C79.0936 54.0107 78.9176 54.368 78.7896 54.784C78.6616 55.2 78.5976 55.664 78.5976 56.176C78.5976 56.6773 78.6616 57.136 78.7896 57.552C78.9176 57.968 79.0936 58.3253 79.3176 58.624C79.5416 58.9227 79.8083 59.1573 80.1176 59.328C80.4376 59.488 80.7843 59.568 81.1576 59.568ZM89.6828 60.192C88.5734 60.192 87.7094 59.7867 87.0908 58.976C86.4828 58.1547 86.1788 56.976 86.1788 55.44C86.1788 54.0533 86.2854 52.944 86.4988 52.112C86.7228 51.28 87.0428 50.6347 87.4588 50.176C87.8748 49.7173 88.3761 49.392 88.9628 49.2C89.5601 49.008 90.2268 48.8533 90.9628 48.736C91.1654 48.704 91.3361 48.6773 91.4748 48.656C91.6134 48.624 91.7308 48.592 91.8268 48.56C91.9228 48.528 92.0134 48.496 92.0988 48.464C92.1841 48.4213 92.2854 48.3733 92.4028 48.32L92.5788 49.024C92.3654 49.1413 92.1414 49.232 91.9068 49.296C91.6828 49.3493 91.4161 49.4027 91.1068 49.456C90.4561 49.5627 89.8801 49.68 89.3788 49.808C88.8881 49.936 88.4668 50.1547 88.1148 50.464C87.7734 50.7627 87.5014 51.1947 87.2988 51.76C87.1068 52.3147 86.9788 53.072 86.9148 54.032C87.3094 53.5307 87.7521 53.1573 88.2428 52.912C88.7441 52.656 89.2508 52.528 89.7628 52.528C90.2534 52.528 90.6908 52.6187 91.0748 52.8C91.4694 52.9707 91.8001 53.216 92.0668 53.536C92.3441 53.8453 92.5521 54.224 92.6908 54.672C92.8401 55.12 92.9148 55.616 92.9148 56.16C92.9148 56.7787 92.8294 57.3387 92.6588 57.84C92.4881 58.3307 92.2534 58.752 91.9548 59.104C91.6561 59.456 91.3094 59.728 90.9148 59.92C90.5308 60.1013 90.1201 60.192 89.6828 60.192ZM89.6828 59.568C90.0348 59.568 90.3601 59.488 90.6588 59.328C90.9681 59.1573 91.2348 58.9227 91.4588 58.624C91.6828 58.3253 91.8588 57.968 91.9868 57.552C92.1148 57.1253 92.1788 56.6613 92.1788 56.16C92.1788 55.7333 92.1254 55.3333 92.0188 54.96C91.9121 54.5867 91.7521 54.2667 91.5388 54C91.3254 53.7333 91.0588 53.5253 90.7388 53.376C90.4294 53.216 90.0668 53.136 89.6508 53.136C89.2028 53.136 88.7494 53.2533 88.2908 53.488C87.8321 53.7227 87.3628 54.1547 86.8828 54.784C86.8721 54.9013 86.8668 55.0187 86.8668 55.136C86.8668 55.2533 86.8668 55.376 86.8668 55.504C86.8668 56.752 87.0961 57.744 87.5548 58.48C88.0241 59.2053 88.7334 59.568 89.6828 59.568ZM95.2376 60V52.32H95.9416V56.16C95.9416 56.576 95.931 57.0347 95.9096 57.536C95.899 58.0373 95.883 58.544 95.8616 59.056H95.9256C96.075 58.8107 96.2563 58.5333 96.4696 58.224C96.683 57.9147 96.8643 57.6373 97.0136 57.392L100.47 52.32H101.158V60H100.454V56.16C100.454 55.7333 100.459 55.2747 100.47 54.784C100.491 54.2827 100.512 53.776 100.534 53.264H100.47C100.32 53.5093 100.139 53.7867 99.9256 54.096C99.7123 54.4053 99.531 54.6827 99.3816 54.928L95.9256 60H95.2376ZM104.097 60V52.32H104.801V59.376H108.017V52.32H108.721V59.376H111.937V52.32H112.641V60H104.097ZM115.581 60V52.32H116.285V55.376H118.093C119 55.376 119.709 55.568 120.221 55.952C120.744 56.3253 121.005 56.896 121.005 57.664C121.005 58.4427 120.744 59.0293 120.221 59.424C119.709 59.808 119 60 118.093 60H115.581ZM116.285 59.392H117.933C118.733 59.392 119.325 59.2587 119.709 58.992C120.093 58.7147 120.285 58.272 120.285 57.664C120.285 57.0667 120.093 56.64 119.709 56.384C119.325 56.1173 118.733 55.984 117.933 55.984H116.285V59.392ZM126.394 60V52.32H132.09V60H131.386V52.928H127.098V60H126.394ZM137.85 60.192C137.391 60.192 136.954 60.1013 136.538 59.92C136.122 59.7387 135.754 59.4773 135.434 59.136C135.125 58.7947 134.874 58.3787 134.682 57.888C134.501 57.3867 134.41 56.816 134.41 56.176C134.41 55.536 134.501 54.9653 134.682 54.464C134.874 53.952 135.125 53.5253 135.434 53.184C135.754 52.8427 136.122 52.5813 136.538 52.4C136.954 52.2187 137.391 52.128 137.85 52.128C138.309 52.128 138.746 52.2187 139.162 52.4C139.589 52.5813 139.957 52.8427 140.266 53.184C140.586 53.5253 140.837 53.952 141.018 54.464C141.21 54.9653 141.306 55.536 141.306 56.176C141.306 56.816 141.21 57.3867 141.018 57.888C140.837 58.3787 140.586 58.7947 140.266 59.136C139.957 59.4773 139.589 59.7387 139.162 59.92C138.746 60.1013 138.309 60.192 137.85 60.192ZM137.85 59.568C138.234 59.568 138.591 59.488 138.922 59.328C139.263 59.1573 139.551 58.9227 139.786 58.624C140.031 58.3253 140.223 57.968 140.362 57.552C140.501 57.136 140.57 56.6773 140.57 56.176C140.57 55.664 140.501 55.2 140.362 54.784C140.223 54.368 140.031 54.0107 139.786 53.712C139.551 53.4027 139.263 53.168 138.922 53.008C138.591 52.8373 138.234 52.752 137.85 52.752C137.466 52.752 137.109 52.8373 136.778 53.008C136.447 53.168 136.159 53.4027 135.914 53.712C135.679 54.0107 135.493 54.368 135.354 54.784C135.215 55.2 135.146 55.664 135.146 56.176C135.146 56.6773 135.215 57.136 135.354 57.552C135.493 57.968 135.679 58.3253 135.914 58.624C136.159 58.9227 136.447 59.1573 136.778 59.328C137.109 59.488 137.466 59.568 137.85 59.568ZM146.605 60.192C145.495 60.192 144.631 59.7867 144.013 58.976C143.405 58.1547 143.101 56.976 143.101 55.44C143.101 54.0533 143.207 52.944 143.421 52.112C143.645 51.28 143.965 50.6347 144.381 50.176C144.797 49.7173 145.298 49.392 145.885 49.2C146.482 49.008 147.149 48.8533 147.885 48.736C148.087 48.704 148.258 48.6773 148.397 48.656C148.535 48.624 148.653 48.592 148.749 48.56C148.845 48.528 148.935 48.496 149.021 48.464C149.106 48.4213 149.207 48.3733 149.325 48.32L149.501 49.024C149.287 49.1413 149.063 49.232 148.829 49.296C148.605 49.3493 148.338 49.4027 148.029 49.456C147.378 49.5627 146.802 49.68 146.301 49.808C145.81 49.936 145.389 50.1547 145.037 50.464C144.695 50.7627 144.423 51.1947 144.221 51.76C144.029 52.3147 143.901 53.072 143.837 54.032C144.231 53.5307 144.674 53.1573 145.165 52.912C145.666 52.656 146.173 52.528 146.685 52.528C147.175 52.528 147.613 52.6187 147.997 52.8C148.391 52.9707 148.722 53.216 148.989 53.536C149.266 53.8453 149.474 54.224 149.613 54.672C149.762 55.12 149.837 55.616 149.837 56.16C149.837 56.7787 149.751 57.3387 149.581 57.84C149.41 58.3307 149.175 58.752 148.877 59.104C148.578 59.456 148.231 59.728 147.837 59.92C147.453 60.1013 147.042 60.192 146.605 60.192ZM146.605 59.568C146.957 59.568 147.282 59.488 147.581 59.328C147.89 59.1573 148.157 58.9227 148.381 58.624C148.605 58.3253 148.781 57.968 148.909 57.552C149.037 57.1253 149.101 56.6613 149.101 56.16C149.101 55.7333 149.047 55.3333 148.941 54.96C148.834 54.5867 148.674 54.2667 148.461 54C148.247 53.7333 147.981 53.5253 147.661 53.376C147.351 53.216 146.989 53.136 146.573 53.136C146.125 53.136 145.671 53.2533 145.213 53.488C144.754 53.7227 144.285 54.1547 143.805 54.784C143.794 54.9013 143.789 55.0187 143.789 55.136C143.789 55.2533 143.789 55.376 143.789 55.504C143.789 56.752 144.018 57.744 144.477 58.48C144.946 59.2053 145.655 59.568 146.605 59.568ZM155.072 60.192C154.581 60.192 154.117 60.1013 153.68 59.92C153.253 59.7387 152.88 59.4773 152.56 59.136C152.24 58.784 151.984 58.3627 151.792 57.872C151.61 57.3707 151.52 56.8053 151.52 56.176C151.52 55.5467 151.61 54.9813 151.792 54.48C151.984 53.9787 152.234 53.5573 152.544 53.216C152.864 52.864 153.221 52.5973 153.616 52.416C154.021 52.224 154.437 52.128 154.864 52.128C155.781 52.128 156.501 52.4373 157.024 53.056C157.546 53.6747 157.808 54.5493 157.808 55.68C157.808 55.776 157.808 55.872 157.808 55.968C157.808 56.064 157.797 56.16 157.776 56.256H152.24C152.25 56.736 152.325 57.184 152.464 57.6C152.602 58.0053 152.794 58.3573 153.039 58.656C153.296 58.944 153.6 59.1733 153.952 59.344C154.304 59.504 154.698 59.584 155.136 59.584C155.552 59.584 155.925 59.5253 156.256 59.408C156.597 59.28 156.912 59.1093 157.2 58.896L157.488 59.44C157.178 59.6213 156.837 59.792 156.464 59.952C156.101 60.112 155.637 60.192 155.072 60.192ZM152.24 55.68H157.136C157.136 54.688 156.933 53.952 156.528 53.472C156.122 52.9813 155.573 52.736 154.88 52.736C154.549 52.736 154.234 52.8053 153.936 52.944C153.637 53.072 153.365 53.264 153.12 53.52C152.885 53.776 152.688 54.0853 152.528 54.448C152.378 54.8107 152.282 55.2213 152.24 55.68ZM158.694 60L161.094 55.888L160.374 54.064C160.267 53.808 160.166 53.6 160.07 53.44C159.974 53.28 159.878 53.1573 159.782 53.072C159.686 52.976 159.585 52.9173 159.478 52.896C159.382 52.864 159.286 52.848 159.19 52.848C159.137 52.848 159.094 52.848 159.062 52.848C159.041 52.848 159.003 52.8587 158.95 52.88L158.79 52.192C158.897 52.1493 159.019 52.128 159.158 52.128C159.489 52.128 159.798 52.2453 160.086 52.48C160.374 52.704 160.651 53.1413 160.918 53.792L161.67 55.68H163.174V52.32H163.814V55.68H165.302L166.07 53.792C166.326 53.1413 166.598 52.704 166.886 52.48C167.174 52.2453 167.489 52.128 167.83 52.128C167.958 52.128 168.075 52.1493 168.182 52.192L168.038 52.88C167.985 52.8587 167.942 52.848 167.91 52.848C167.889 52.848 167.851 52.848 167.798 52.848C167.691 52.848 167.59 52.864 167.494 52.896C167.398 52.9173 167.302 52.976 167.206 53.072C167.11 53.1573 167.014 53.28 166.918 53.44C166.822 53.6 166.721 53.808 166.614 54.064L165.894 55.904L168.294 60H167.51L165.398 56.304H163.814V60H163.174V56.304H161.59L159.478 60H158.694ZM169.713 60V62.752H169.089L169.009 59.792V59.376H169.329C169.446 59.312 169.558 59.2213 169.665 59.104C169.772 58.9867 169.873 58.8053 169.969 58.56C170.065 58.3147 170.156 57.984 170.241 57.568C170.337 57.1413 170.428 56.5973 170.513 55.936L170.945 52.32H175.153V59.376H176.209V59.792L176.113 62.752H175.505V60H169.713ZM171.153 56.032C171.089 56.5333 171.02 56.9653 170.945 57.328C170.881 57.6907 170.806 58.0053 170.721 58.272C170.646 58.5387 170.561 58.7627 170.465 58.944C170.38 59.1147 170.294 59.2587 170.209 59.376H174.449V52.928H171.505L171.153 56.032ZM179.793 60.192C179.483 60.192 179.195 60.1493 178.929 60.064C178.662 59.9787 178.427 59.8507 178.225 59.68C178.022 59.5093 177.862 59.2907 177.745 59.024C177.627 58.7573 177.569 58.4427 177.569 58.08C177.569 57.2267 177.963 56.5813 178.753 56.144C179.553 55.696 180.811 55.376 182.529 55.184C182.529 54.896 182.507 54.608 182.465 54.32C182.422 54.0213 182.331 53.76 182.193 53.536C182.054 53.3013 181.867 53.1147 181.633 52.976C181.398 52.8267 181.089 52.752 180.705 52.752C180.193 52.752 179.723 52.8533 179.297 53.056C178.87 53.2587 178.523 53.456 178.257 53.648L177.937 53.12C178.075 53.024 178.241 52.9173 178.433 52.8C178.635 52.6827 178.859 52.576 179.105 52.48C179.35 52.384 179.617 52.304 179.905 52.24C180.193 52.1653 180.491 52.128 180.801 52.128C181.249 52.128 181.627 52.208 181.937 52.368C182.246 52.5173 182.497 52.7253 182.689 52.992C182.881 53.2587 183.019 53.5733 183.105 53.936C183.19 54.288 183.233 54.672 183.233 55.088V60H182.625L182.561 59.008H182.513C182.118 59.3173 181.691 59.5947 181.233 59.84C180.785 60.0747 180.305 60.192 179.793 60.192ZM179.921 59.584C180.369 59.584 180.795 59.4773 181.201 59.264C181.606 59.0507 182.049 58.7413 182.529 58.336V55.728C181.739 55.824 181.073 55.9413 180.529 56.08C179.985 56.2187 179.547 56.384 179.217 56.576C178.886 56.768 178.646 56.9867 178.497 57.232C178.358 57.4773 178.289 57.7493 178.289 58.048C178.289 58.3253 178.331 58.56 178.417 58.752C178.502 58.944 178.619 59.104 178.769 59.232C178.918 59.3493 179.089 59.44 179.281 59.504C179.483 59.5573 179.697 59.584 179.921 59.584ZM187.496 60V52.928H184.744V52.32H190.968V52.928H188.216V60H187.496ZM192.863 60V52.32H193.567V55.376H195.375C196.281 55.376 196.991 55.568 197.503 55.952C198.025 56.3253 198.287 56.896 198.287 57.664C198.287 58.4427 198.025 59.0293 197.503 59.424C196.991 59.808 196.281 60 195.375 60H192.863ZM193.567 59.392H195.215C196.015 59.392 196.607 59.2587 196.991 58.992C197.375 58.7147 197.567 58.272 197.567 57.664C197.567 57.0667 197.375 56.64 196.991 56.384C196.607 56.1173 196.015 55.984 195.215 55.984H193.567V59.392ZM202.843 56.32V55.696H206.363V56.32H202.843ZM211.66 60V52.32H217.356V60H216.652V52.928H212.364V60H211.66ZM223.116 60.192C222.657 60.192 222.22 60.1013 221.804 59.92C221.388 59.7387 221.02 59.4773 220.7 59.136C220.39 58.7947 220.14 58.3787 219.948 57.888C219.766 57.3867 219.676 56.816 219.676 56.176C219.676 55.536 219.766 54.9653 219.948 54.464C220.14 53.952 220.39 53.5253 220.7 53.184C221.02 52.8427 221.388 52.5813 221.804 52.4C222.22 52.2187 222.657 52.128 223.116 52.128C223.574 52.128 224.012 52.2187 224.428 52.4C224.854 52.5813 225.222 52.8427 225.532 53.184C225.852 53.5253 226.102 53.952 226.284 54.464C226.476 54.9653 226.572 55.536 226.572 56.176C226.572 56.816 226.476 57.3867 226.284 57.888C226.102 58.3787 225.852 58.7947 225.532 59.136C225.222 59.4773 224.854 59.7387 224.428 59.92C224.012 60.1013 223.574 60.192 223.116 60.192ZM223.116 59.568C223.5 59.568 223.857 59.488 224.188 59.328C224.529 59.1573 224.817 58.9227 225.052 58.624C225.297 58.3253 225.489 57.968 225.628 57.552C225.766 57.136 225.836 56.6773 225.836 56.176C225.836 55.664 225.766 55.2 225.628 54.784C225.489 54.368 225.297 54.0107 225.052 53.712C224.817 53.4027 224.529 53.168 224.188 53.008C223.857 52.8373 223.5 52.752 223.116 52.752C222.732 52.752 222.374 52.8373 222.044 53.008C221.713 53.168 221.425 53.4027 221.18 53.712C220.945 54.0107 220.758 54.368 220.62 54.784C220.481 55.2 220.412 55.664 220.412 56.176C220.412 56.6773 220.481 57.136 220.62 57.552C220.758 57.968 220.945 58.3253 221.18 58.624C221.425 58.9227 221.713 59.1573 222.044 59.328C222.374 59.488 222.732 59.568 223.116 59.568ZM231.87 60.192C230.761 60.192 229.897 59.7867 229.278 58.976C228.67 58.1547 228.366 56.976 228.366 55.44C228.366 54.0533 228.473 52.944 228.686 52.112C228.91 51.28 229.23 50.6347 229.646 50.176C230.062 49.7173 230.564 49.392 231.15 49.2C231.748 49.008 232.414 48.8533 233.15 48.736C233.353 48.704 233.524 48.6773 233.662 48.656C233.801 48.624 233.918 48.592 234.014 48.56C234.11 48.528 234.201 48.496 234.286 48.464C234.372 48.4213 234.473 48.3733 234.59 48.32L234.766 49.024C234.553 49.1413 234.329 49.232 234.094 49.296C233.87 49.3493 233.604 49.4027 233.294 49.456C232.644 49.5627 232.068 49.68 231.566 49.808C231.076 49.936 230.654 50.1547 230.302 50.464C229.961 50.7627 229.689 51.1947 229.486 51.76C229.294 52.3147 229.166 53.072 229.102 54.032C229.497 53.5307 229.94 53.1573 230.43 52.912C230.932 52.656 231.438 52.528 231.95 52.528C232.441 52.528 232.878 52.6187 233.262 52.8C233.657 52.9707 233.988 53.216 234.254 53.536C234.532 53.8453 234.74 54.224 234.878 54.672C235.028 55.12 235.102 55.616 235.102 56.16C235.102 56.7787 235.017 57.3387 234.846 57.84C234.676 58.3307 234.441 58.752 234.142 59.104C233.844 59.456 233.497 59.728 233.102 59.92C232.718 60.1013 232.308 60.192 231.87 60.192ZM231.87 59.568C232.222 59.568 232.548 59.488 232.846 59.328C233.156 59.1573 233.422 58.9227 233.646 58.624C233.87 58.3253 234.046 57.968 234.174 57.552C234.302 57.1253 234.366 56.6613 234.366 56.16C234.366 55.7333 234.313 55.3333 234.206 54.96C234.1 54.5867 233.94 54.2667 233.726 54C233.513 53.7333 233.246 53.5253 232.926 53.376C232.617 53.216 232.254 53.136 231.838 53.136C231.39 53.136 230.937 53.2533 230.478 53.488C230.02 53.7227 229.55 54.1547 229.07 54.784C229.06 54.9013 229.054 55.0187 229.054 55.136C229.054 55.2533 229.054 55.376 229.054 55.504C229.054 56.752 229.284 57.744 229.742 58.48C230.212 59.2053 230.921 59.568 231.87 59.568ZM240.337 60.192C239.846 60.192 239.382 60.1013 238.945 59.92C238.518 59.7387 238.145 59.4773 237.825 59.136C237.505 58.784 237.249 58.3627 237.057 57.872C236.876 57.3707 236.785 56.8053 236.785 56.176C236.785 55.5467 236.876 54.9813 237.057 54.48C237.249 53.9787 237.5 53.5573 237.809 53.216C238.129 52.864 238.486 52.5973 238.881 52.416C239.286 52.224 239.702 52.128 240.129 52.128C241.046 52.128 241.766 52.4373 242.289 53.056C242.812 53.6747 243.073 54.5493 243.073 55.68C243.073 55.776 243.073 55.872 243.073 55.968C243.073 56.064 243.062 56.16 243.041 56.256H237.505C237.516 56.736 237.59 57.184 237.729 57.6C237.868 58.0053 238.06 58.3573 238.305 58.656C238.561 58.944 238.865 59.1733 239.217 59.344C239.569 59.504 239.964 59.584 240.401 59.584C240.817 59.584 241.19 59.5253 241.521 59.408C241.862 59.28 242.177 59.1093 242.465 58.896L242.753 59.44C242.444 59.6213 242.102 59.792 241.729 59.952C241.366 60.112 240.902 60.192 240.337 60.192ZM237.505 55.68H242.401C242.401 54.688 242.198 53.952 241.793 53.472C241.388 52.9813 240.838 52.736 240.145 52.736C239.814 52.736 239.5 52.8053 239.201 52.944C238.902 53.072 238.63 53.264 238.385 53.52C238.15 53.776 237.953 54.0853 237.793 54.448C237.644 54.8107 237.548 55.2213 237.505 55.68ZM243.96 60L246.36 55.888L245.64 54.064C245.533 53.808 245.432 53.6 245.336 53.44C245.24 53.28 245.144 53.1573 245.048 53.072C244.952 52.976 244.85 52.9173 244.743 52.896C244.648 52.864 244.552 52.848 244.456 52.848C244.402 52.848 244.36 52.848 244.328 52.848C244.306 52.848 244.269 52.8587 244.215 52.88L244.056 52.192C244.162 52.1493 244.285 52.128 244.424 52.128C244.754 52.128 245.064 52.2453 245.352 52.48C245.64 52.704 245.917 53.1413 246.184 53.792L246.936 55.68H248.44V52.32H249.08V55.68H250.568L251.336 53.792C251.592 53.1413 251.864 52.704 252.152 52.48C252.44 52.2453 252.754 52.128 253.095 52.128C253.224 52.128 253.341 52.1493 253.448 52.192L253.304 52.88C253.25 52.8587 253.208 52.848 253.176 52.848C253.154 52.848 253.117 52.848 253.064 52.848C252.957 52.848 252.856 52.864 252.76 52.896C252.664 52.9173 252.568 52.976 252.472 53.072C252.376 53.1573 252.28 53.28 252.184 53.44C252.088 53.6 251.986 53.808 251.88 54.064L251.16 55.904L253.56 60H252.776L250.664 56.304H249.08V60H248.44V56.304H246.856L244.743 60H243.96ZM254.979 60V62.752H254.355L254.275 59.792V59.376H254.595C254.712 59.312 254.824 59.2213 254.931 59.104C255.037 58.9867 255.139 58.8053 255.235 58.56C255.331 58.3147 255.421 57.984 255.507 57.568C255.603 57.1413 255.693 56.5973 255.779 55.936L256.211 52.32H260.419V59.376H261.475V59.792L261.379 62.752H260.771V60H254.979ZM256.419 56.032C256.355 56.5333 256.285 56.9653 256.211 57.328C256.147 57.6907 256.072 58.0053 255.987 58.272C255.912 58.5387 255.827 58.7627 255.731 58.944C255.645 59.1147 255.56 59.2587 255.475 59.376H259.715V52.928H256.771L256.419 56.032ZM265.058 60.192C264.749 60.192 264.461 60.1493 264.194 60.064C263.928 59.9787 263.693 59.8507 263.49 59.68C263.288 59.5093 263.128 59.2907 263.01 59.024C262.893 58.7573 262.834 58.4427 262.834 58.08C262.834 57.2267 263.229 56.5813 264.018 56.144C264.818 55.696 266.077 55.376 267.794 55.184C267.794 54.896 267.773 54.608 267.73 54.32C267.688 54.0213 267.597 53.76 267.458 53.536C267.32 53.3013 267.133 53.1147 266.898 52.976C266.664 52.8267 266.354 52.752 265.97 52.752C265.458 52.752 264.989 52.8533 264.562 53.056C264.136 53.2587 263.789 53.456 263.522 53.648L263.202 53.12C263.341 53.024 263.506 52.9173 263.698 52.8C263.901 52.6827 264.125 52.576 264.37 52.48C264.616 52.384 264.882 52.304 265.17 52.24C265.458 52.1653 265.757 52.128 266.066 52.128C266.514 52.128 266.893 52.208 267.202 52.368C267.512 52.5173 267.762 52.7253 267.954 52.992C268.146 53.2587 268.285 53.5733 268.37 53.936C268.456 54.288 268.498 54.672 268.498 55.088V60H267.89L267.826 59.008H267.778C267.384 59.3173 266.957 59.5947 266.498 59.84C266.05 60.0747 265.57 60.192 265.058 60.192ZM265.186 59.584C265.634 59.584 266.061 59.4773 266.466 59.264C266.872 59.0507 267.314 58.7413 267.794 58.336V55.728C267.005 55.824 266.338 55.9413 265.794 56.08C265.25 56.2187 264.813 56.384 264.482 56.576C264.152 56.768 263.912 56.9867 263.762 57.232C263.624 57.4773 263.554 57.7493 263.554 58.048C263.554 58.3253 263.597 58.56 263.682 58.752C263.768 58.944 263.885 59.104 264.034 59.232C264.184 59.3493 264.354 59.44 264.546 59.504C264.749 59.5573 264.962 59.584 265.186 59.584ZM271.238 60V52.32H271.942V56.16C271.942 56.576 271.931 57.0347 271.91 57.536C271.899 58.0373 271.883 58.544 271.862 59.056H271.926C272.075 58.8107 272.256 58.5333 272.47 58.224C272.683 57.9147 272.864 57.6373 273.014 57.392L276.47 52.32H277.158V60H276.454V56.16C276.454 55.7333 276.459 55.2747 276.47 54.784C276.491 54.2827 276.512 53.776 276.534 53.264H276.47C276.32 53.5093 276.139 53.7867 275.926 54.096C275.712 54.4053 275.531 54.6827 275.382 54.928L271.926 60H271.238ZM274.23 50.816C273.782 50.816 273.408 50.7413 273.11 50.592C272.822 50.4427 272.587 50.256 272.406 50.032C272.235 49.808 272.107 49.5573 272.022 49.28C271.936 49.0027 271.888 48.736 271.878 48.48H272.518C272.528 48.704 272.56 48.928 272.614 49.152C272.678 49.376 272.774 49.5733 272.902 49.744C273.04 49.9147 273.216 50.0533 273.43 50.16C273.643 50.2667 273.91 50.32 274.23 50.32C274.55 50.32 274.816 50.2667 275.03 50.16C275.243 50.0533 275.414 49.9147 275.542 49.744C275.68 49.5733 275.776 49.376 275.83 49.152C275.894 48.928 275.931 48.704 275.942 48.48H276.582C276.56 48.736 276.507 49.0027 276.422 49.28C276.347 49.5573 276.219 49.808 276.038 50.032C275.867 50.256 275.632 50.4427 275.334 50.592C275.046 50.7413 274.678 50.816 274.23 50.816Z" fill="black"/>
<path d="M237.738 92L240.456 79.148H241.986L240.474 86.222C240.402 86.582 240.312 86.99 240.204 87.446C240.096 87.902 239.994 88.334 239.898 88.742C239.814 89.15 239.742 89.462 239.682 89.678H239.718L247.854 79.148H249.726L247.008 92H245.496L247.008 84.854C247.104 84.446 247.2 84.02 247.296 83.576C247.392 83.12 247.482 82.694 247.566 82.298C247.662 81.89 247.746 81.554 247.818 81.29H247.782L239.61 92H237.738ZM254.301 92.18C252.981 92.18 252.015 91.82 251.403 91.1C250.803 90.368 250.503 89.402 250.503 88.202C250.503 87.074 250.701 86.06 251.097 85.16C251.505 84.248 252.087 83.528 252.843 83C253.611 82.46 254.535 82.19 255.615 82.19C256.647 82.19 257.445 82.394 258.009 82.802C258.573 83.21 258.855 83.822 258.855 84.638C258.855 85.346 258.627 85.898 258.171 86.294C257.715 86.69 257.133 86.966 256.425 87.122V87.158C256.953 87.29 257.385 87.512 257.721 87.824C258.057 88.124 258.225 88.586 258.225 89.21C258.225 89.654 258.099 90.11 257.847 90.578C257.607 91.034 257.199 91.418 256.623 91.73C256.047 92.03 255.273 92.18 254.301 92.18ZM254.247 86.546C254.775 86.546 255.267 86.492 255.723 86.384C256.191 86.276 256.563 86.096 256.839 85.844C257.127 85.58 257.271 85.232 257.271 84.8C257.271 84.44 257.145 84.134 256.893 83.882C256.641 83.63 256.221 83.504 255.633 83.504C254.793 83.504 254.079 83.768 253.491 84.296C252.915 84.824 252.513 85.574 252.285 86.546H254.247ZM254.409 90.884C255.201 90.884 255.777 90.716 256.137 90.38C256.509 90.032 256.695 89.636 256.695 89.192C256.695 88.736 256.509 88.394 256.137 88.166C255.765 87.938 255.177 87.824 254.373 87.824H252.105V88.256C252.105 89.18 252.315 89.852 252.735 90.272C253.155 90.68 253.713 90.884 254.409 90.884ZM262.851 92.18C262.083 92.18 261.453 91.904 260.961 91.352C260.481 90.788 260.241 89.966 260.241 88.886C260.241 87.986 260.355 87.134 260.583 86.33C260.823 85.514 261.153 84.8 261.573 84.188C261.993 83.564 262.491 83.072 263.067 82.712C263.643 82.352 264.279 82.172 264.975 82.172C265.611 82.172 266.127 82.34 266.523 82.676C266.919 83.012 267.213 83.402 267.405 83.846H267.495L268.071 82.352H269.277L267.225 92H265.965L266.199 90.218H266.127C265.719 90.746 265.239 91.208 264.687 91.604C264.135 91.988 263.523 92.18 262.851 92.18ZM263.373 90.866C263.817 90.866 264.249 90.704 264.669 90.38C265.101 90.056 265.491 89.618 265.839 89.066C266.187 88.514 266.451 87.896 266.631 87.212C266.727 86.864 266.787 86.546 266.811 86.258C266.847 85.958 266.865 85.682 266.865 85.43C266.865 84.866 266.709 84.404 266.397 84.044C266.085 83.684 265.665 83.504 265.137 83.504C264.669 83.504 264.237 83.654 263.841 83.954C263.445 84.242 263.097 84.644 262.797 85.16C262.497 85.664 262.263 86.24 262.095 86.888C261.939 87.536 261.861 88.214 261.861 88.922C261.861 89.57 261.993 90.056 262.257 90.38C262.521 90.704 262.893 90.866 263.373 90.866ZM270.111 92L272.163 82.352H273.729L272.901 86.366H277.437L278.301 82.352H279.885L277.851 92H276.249L277.149 87.68H272.613L271.695 92H270.111ZM284.882 92.144C283.766 92.144 282.884 91.814 282.236 91.154C281.6 90.482 281.282 89.576 281.282 88.436C281.282 87.692 281.384 86.954 281.588 86.222C281.792 85.49 282.092 84.824 282.488 84.224C282.896 83.624 283.4 83.144 284 82.784C284.612 82.412 285.314 82.226 286.106 82.226C287.234 82.226 288.116 82.562 288.752 83.234C289.388 83.894 289.706 84.8 289.706 85.952C289.706 86.684 289.604 87.416 289.4 88.148C289.196 88.88 288.89 89.546 288.482 90.146C288.086 90.746 287.588 91.232 286.988 91.604C286.388 91.964 285.686 92.144 284.882 92.144ZM284.972 90.83C285.548 90.83 286.07 90.632 286.538 90.236C287.006 89.828 287.378 89.246 287.654 88.49C287.942 87.734 288.086 86.828 288.086 85.772C288.086 85.412 288.02 85.064 287.888 84.728C287.768 84.38 287.564 84.098 287.276 83.882C286.988 83.654 286.604 83.54 286.124 83.54C285.464 83.54 284.888 83.768 284.396 84.224C283.916 84.668 283.544 85.268 283.28 86.024C283.016 86.768 282.884 87.59 282.884 88.49C282.884 89.234 283.064 89.81 283.424 90.218C283.796 90.626 284.312 90.83 284.972 90.83ZM295.223 92.18C293.903 92.18 292.937 91.82 292.325 91.1C291.725 90.368 291.425 89.402 291.425 88.202C291.425 87.074 291.623 86.06 292.019 85.16C292.427 84.248 293.009 83.528 293.765 83C294.533 82.46 295.457 82.19 296.537 82.19C297.569 82.19 298.367 82.394 298.931 82.802C299.495 83.21 299.777 83.822 299.777 84.638C299.777 85.346 299.549 85.898 299.093 86.294C298.637 86.69 298.055 86.966 297.347 87.122V87.158C297.875 87.29 298.307 87.512 298.643 87.824C298.979 88.124 299.147 88.586 299.147 89.21C299.147 89.654 299.021 90.11 298.769 90.578C298.529 91.034 298.121 91.418 297.545 91.73C296.969 92.03 296.195 92.18 295.223 92.18ZM295.169 86.546C295.697 86.546 296.189 86.492 296.645 86.384C297.113 86.276 297.485 86.096 297.761 85.844C298.049 85.58 298.193 85.232 298.193 84.8C298.193 84.44 298.067 84.134 297.815 83.882C297.563 83.63 297.143 83.504 296.555 83.504C295.715 83.504 295.001 83.768 294.413 84.296C293.837 84.824 293.435 85.574 293.207 86.546H295.169ZM295.331 90.884C296.123 90.884 296.699 90.716 297.059 90.38C297.431 90.032 297.617 89.636 297.617 89.192C297.617 88.736 297.431 88.394 297.059 88.166C296.687 87.938 296.099 87.824 295.295 87.824H293.027V88.256C293.027 89.18 293.237 89.852 293.657 90.272C294.077 90.68 294.635 90.884 295.331 90.884ZM304.5 92L307.218 79.148H308.748L307.236 86.222C307.164 86.582 307.074 86.99 306.966 87.446C306.858 87.902 306.756 88.334 306.66 88.742C306.576 89.15 306.504 89.462 306.444 89.678H306.48L314.616 79.148H316.488L313.77 92H312.258L313.77 84.854C313.866 84.446 313.962 84.02 314.058 83.576C314.154 83.12 314.244 82.694 314.328 82.298C314.424 81.89 314.508 81.554 314.58 81.29H314.544L306.372 92H304.5ZM321.062 92.18C319.742 92.18 318.776 91.82 318.164 91.1C317.564 90.368 317.264 89.402 317.264 88.202C317.264 87.074 317.462 86.06 317.858 85.16C318.266 84.248 318.848 83.528 319.604 83C320.372 82.46 321.296 82.19 322.376 82.19C323.408 82.19 324.206 82.394 324.77 82.802C325.334 83.21 325.616 83.822 325.616 84.638C325.616 85.346 325.388 85.898 324.932 86.294C324.476 86.69 323.894 86.966 323.186 87.122V87.158C323.714 87.29 324.146 87.512 324.482 87.824C324.818 88.124 324.986 88.586 324.986 89.21C324.986 89.654 324.86 90.11 324.608 90.578C324.368 91.034 323.96 91.418 323.384 91.73C322.808 92.03 322.034 92.18 321.062 92.18ZM321.008 86.546C321.536 86.546 322.028 86.492 322.484 86.384C322.952 86.276 323.324 86.096 323.6 85.844C323.888 85.58 324.032 85.232 324.032 84.8C324.032 84.44 323.906 84.134 323.654 83.882C323.402 83.63 322.982 83.504 322.394 83.504C321.554 83.504 320.84 83.768 320.252 84.296C319.676 84.824 319.274 85.574 319.046 86.546H321.008ZM321.17 90.884C321.962 90.884 322.538 90.716 322.898 90.38C323.27 90.032 323.456 89.636 323.456 89.192C323.456 88.736 323.27 88.394 322.898 88.166C322.526 87.938 321.938 87.824 321.134 87.824H318.866V88.256C318.866 89.18 319.076 89.852 319.496 90.272C319.916 90.68 320.474 90.884 321.17 90.884ZM329.613 92.18C328.845 92.18 328.215 91.904 327.723 91.352C327.243 90.788 327.003 89.966 327.003 88.886C327.003 87.986 327.117 87.134 327.345 86.33C327.585 85.514 327.915 84.8 328.335 84.188C328.755 83.564 329.253 83.072 329.829 82.712C330.405 82.352 331.041 82.172 331.737 82.172C332.373 82.172 332.889 82.34 333.285 82.676C333.681 83.012 333.975 83.402 334.167 83.846H334.257L334.833 82.352H336.039L333.987 92H332.727L332.961 90.218H332.889C332.481 90.746 332.001 91.208 331.449 91.604C330.897 91.988 330.285 92.18 329.613 92.18ZM330.135 90.866C330.579 90.866 331.011 90.704 331.431 90.38C331.863 90.056 332.253 89.618 332.601 89.066C332.949 88.514 333.213 87.896 333.393 87.212C333.489 86.864 333.549 86.546 333.573 86.258C333.609 85.958 333.627 85.682 333.627 85.43C333.627 84.866 333.471 84.404 333.159 84.044C332.847 83.684 332.427 83.504 331.899 83.504C331.431 83.504 330.999 83.654 330.603 83.954C330.207 84.242 329.859 84.644 329.559 85.16C329.259 85.664 329.025 86.24 328.857 86.888C328.701 87.536 328.623 88.214 328.623 88.922C328.623 89.57 328.755 90.056 329.019 90.38C329.283 90.704 329.655 90.866 330.135 90.866ZM336.873 92L338.925 82.352H340.491L339.663 86.366H344.199L345.063 82.352H346.647L344.613 92H343.011L343.911 87.68H339.375L338.457 92H336.873Z" fill="#024EDF"/>
</svg>
