<svg width="399" height="152" viewBox="0 0 399 152" fill="none" xmlns="http://www.w3.org/2000/svg">
<g filter="url(#filter0_b_1_3356)">
<rect y="24" width="384" height="128" rx="9" fill="white" fill-opacity="0.4"/>
</g>
<path d="M23.46 36.638L25.254 27.044H22.134V16.592H32.586V27.278L29.856 36.638H23.46ZM38.124 36.638L39.918 27.044H36.798V16.592H47.25V27.278L44.52 36.638H38.124Z" fill="#024EDF"/>
<path d="M35.214 62.216C34.998 62.216 34.818 62.204 34.674 62.18C34.542 62.156 34.398 62.114 34.242 62.054L34.458 61.28C34.638 61.352 34.86 61.388 35.124 61.388C35.58 61.388 35.94 61.292 36.204 61.1C36.468 60.908 36.696 60.602 36.888 60.182L37.194 59.408L33.126 50.138H34.008L36.708 56.474L37.554 58.508H37.626L38.4 56.474L40.884 50.138H41.748L37.734 60.164C37.482 60.812 37.158 61.316 36.762 61.676C36.378 62.036 35.862 62.216 35.214 62.216ZM45.9811 62.216C45.4171 62.216 44.8951 62.114 44.4151 61.91C43.9471 61.706 43.5331 61.412 43.1731 61.028C42.8251 60.644 42.5491 60.176 42.3451 59.624C42.1531 59.06 42.0571 58.418 42.0571 57.698C42.0571 56.978 42.1651 56.336 42.3811 55.772C42.5971 55.196 42.8851 54.716 43.2451 54.332C43.6051 53.948 44.0191 53.654 44.4871 53.45C44.9671 53.246 45.4711 53.144 45.9991 53.144C46.5991 53.144 47.0971 53.252 47.4931 53.468C47.8891 53.684 48.2371 53.93 48.5371 54.206L48.0691 54.764C47.7931 54.5 47.4871 54.284 47.1511 54.116C46.8151 53.936 46.4371 53.846 46.0171 53.846C45.5731 53.846 45.1591 53.942 44.7751 54.134C44.4031 54.314 44.0731 54.578 43.7851 54.926C43.5091 55.262 43.2871 55.664 43.1191 56.132C42.9631 56.6 42.8851 57.122 42.8851 57.698C42.8851 58.262 42.9571 58.778 43.1011 59.246C43.2571 59.714 43.4671 60.116 43.7311 60.452C44.0071 60.788 44.3371 61.052 44.7211 61.244C45.1171 61.424 45.5491 61.514 46.0171 61.514C46.4731 61.514 46.8931 61.418 47.2771 61.226C47.6731 61.034 48.0211 60.8 48.3211 60.524L48.7351 61.082C48.3631 61.406 47.9491 61.676 47.4931 61.892C47.0371 62.108 46.5331 62.216 45.9811 62.216ZM50.863 62V53.36H57.271V62H56.479V54.044H51.655V62H50.863ZM63.8773 62.216C63.3253 62.216 62.8033 62.114 62.3113 61.91C61.8313 61.706 61.4113 61.412 61.0513 61.028C60.6913 60.632 60.4033 60.158 60.1873 59.606C59.9833 59.042 59.8813 58.406 59.8813 57.698C59.8813 56.99 59.9833 56.354 60.1873 55.79C60.4033 55.226 60.6853 54.752 61.0333 54.368C61.3933 53.972 61.7953 53.672 62.2393 53.468C62.6953 53.252 63.1633 53.144 63.6433 53.144C64.6753 53.144 65.4853 53.492 66.0733 54.188C66.6613 54.884 66.9553 55.868 66.9553 57.14C66.9553 57.248 66.9553 57.356 66.9553 57.464C66.9553 57.572 66.9433 57.68 66.9193 57.788H60.6913C60.7033 58.328 60.7873 58.832 60.9433 59.3C61.0993 59.756 61.3153 60.152 61.5913 60.488C61.8793 60.812 62.2213 61.07 62.6173 61.262C63.0133 61.442 63.4573 61.532 63.9493 61.532C64.4173 61.532 64.8373 61.466 65.2093 61.334C65.5933 61.19 65.9473 60.998 66.2713 60.758L66.5953 61.37C66.2473 61.574 65.8633 61.766 65.4433 61.946C65.0353 62.126 64.5133 62.216 63.8773 62.216ZM60.6913 57.14H66.1993C66.1993 56.024 65.9713 55.196 65.5153 54.656C65.0593 54.104 64.4413 53.828 63.6613 53.828C63.2893 53.828 62.9353 53.906 62.5993 54.062C62.2633 54.206 61.9573 54.422 61.6813 54.71C61.4173 54.998 61.1953 55.346 61.0153 55.754C60.8473 56.162 60.7393 56.624 60.6913 57.14ZM67.8985 62L70.8325 57.482L68.1325 53.36H69.0145L70.4185 55.556C70.5625 55.796 70.7065 56.036 70.8505 56.276C71.0065 56.504 71.1685 56.738 71.3365 56.978H71.4085C71.5645 56.738 71.7085 56.504 71.8405 56.276C71.9845 56.036 72.1345 55.796 72.2905 55.556L73.6405 53.36H74.4685L71.7865 57.554L74.7205 62H73.8385L72.3085 59.642C72.1405 59.366 71.9725 59.096 71.8045 58.832C71.6365 58.568 71.4625 58.31 71.2825 58.058H71.2105C71.0425 58.31 70.8745 58.568 70.7065 58.832C70.5505 59.096 70.3885 59.366 70.2205 59.642L68.7445 62H67.8985ZM79.3001 57.824V57.176H92.2601V57.824H79.3001ZM99.8381 62.216C99.2501 62.216 98.7221 62.108 98.2541 61.892C97.7861 61.676 97.3781 61.406 97.0301 61.082L97.4441 60.542C97.7441 60.83 98.0861 61.07 98.4701 61.262C98.8541 61.442 99.2981 61.532 99.8021 61.532C100.762 61.532 101.518 61.208 102.07 60.56C102.634 59.912 102.916 58.988 102.916 57.788H98.6501V57.14H102.898C102.802 56.048 102.484 55.226 101.944 54.674C101.404 54.11 100.738 53.828 99.9461 53.828C99.4301 53.828 98.9921 53.918 98.6321 54.098C98.2841 54.266 97.9721 54.482 97.6961 54.746L97.2461 54.206C97.5341 53.93 97.8881 53.684 98.3081 53.468C98.7401 53.252 99.2981 53.144 99.9821 53.144C100.486 53.144 100.96 53.234 101.404 53.414C101.86 53.594 102.256 53.876 102.592 54.26C102.94 54.632 103.216 55.106 103.42 55.682C103.624 56.246 103.726 56.918 103.726 57.698C103.726 58.454 103.624 59.114 103.42 59.678C103.228 60.242 102.958 60.716 102.61 61.1C102.274 61.472 101.866 61.754 101.386 61.946C100.906 62.126 100.39 62.216 99.8381 62.216ZM108.019 62V54.044H104.923V53.36H111.925V54.044H108.829V62H108.019ZM117.013 62.216C116.497 62.216 116.005 62.114 115.537 61.91C115.069 61.706 114.655 61.412 114.295 61.028C113.947 60.644 113.665 60.176 113.449 59.624C113.245 59.06 113.143 58.418 113.143 57.698C113.143 56.978 113.245 56.336 113.449 55.772C113.665 55.196 113.947 54.716 114.295 54.332C114.655 53.948 115.069 53.654 115.537 53.45C116.005 53.246 116.497 53.144 117.013 53.144C117.529 53.144 118.021 53.246 118.489 53.45C118.969 53.654 119.383 53.948 119.731 54.332C120.091 54.716 120.373 55.196 120.577 55.772C120.793 56.336 120.901 56.978 120.901 57.698C120.901 58.418 120.793 59.06 120.577 59.624C120.373 60.176 120.091 60.644 119.731 61.028C119.383 61.412 118.969 61.706 118.489 61.91C118.021 62.114 117.529 62.216 117.013 62.216ZM117.013 61.514C117.445 61.514 117.847 61.424 118.219 61.244C118.603 61.052 118.927 60.788 119.191 60.452C119.467 60.116 119.683 59.714 119.839 59.246C119.995 58.778 120.073 58.262 120.073 57.698C120.073 57.122 119.995 56.6 119.839 56.132C119.683 55.664 119.467 55.262 119.191 54.926C118.927 54.578 118.603 54.314 118.219 54.134C117.847 53.942 117.445 53.846 117.013 53.846C116.581 53.846 116.179 53.942 115.807 54.134C115.435 54.314 115.111 54.578 114.835 54.926C114.571 55.262 114.361 55.664 114.205 56.132C114.049 56.6 113.971 57.122 113.971 57.698C113.971 58.262 114.049 58.778 114.205 59.246C114.361 59.714 114.571 60.116 114.835 60.452C115.111 60.788 115.435 61.052 115.807 61.244C116.179 61.424 116.581 61.514 117.013 61.514ZM130.303 62.216C129.739 62.216 129.217 62.114 128.737 61.91C128.269 61.706 127.855 61.412 127.495 61.028C127.147 60.644 126.871 60.176 126.667 59.624C126.475 59.06 126.379 58.418 126.379 57.698C126.379 56.978 126.487 56.336 126.703 55.772C126.919 55.196 127.207 54.716 127.567 54.332C127.927 53.948 128.341 53.654 128.809 53.45C129.289 53.246 129.793 53.144 130.321 53.144C130.921 53.144 131.419 53.252 131.815 53.468C132.211 53.684 132.559 53.93 132.859 54.206L132.391 54.764C132.115 54.5 131.809 54.284 131.473 54.116C131.137 53.936 130.759 53.846 130.339 53.846C129.895 53.846 129.481 53.942 129.097 54.134C128.725 54.314 128.395 54.578 128.107 54.926C127.831 55.262 127.609 55.664 127.441 56.132C127.285 56.6 127.207 57.122 127.207 57.698C127.207 58.262 127.279 58.778 127.423 59.246C127.579 59.714 127.789 60.116 128.053 60.452C128.329 60.788 128.659 61.052 129.043 61.244C129.439 61.424 129.871 61.514 130.339 61.514C130.795 61.514 131.215 61.418 131.599 61.226C131.995 61.034 132.343 60.8 132.643 60.524L133.057 61.082C132.685 61.406 132.271 61.676 131.815 61.892C131.359 62.108 130.855 62.216 130.303 62.216ZM135.185 62V53.36H141.593V62H140.801V54.044H135.977V62H135.185ZM148.074 62.216C147.558 62.216 147.066 62.114 146.598 61.91C146.13 61.706 145.716 61.412 145.356 61.028C145.008 60.644 144.726 60.176 144.51 59.624C144.306 59.06 144.204 58.418 144.204 57.698C144.204 56.978 144.306 56.336 144.51 55.772C144.726 55.196 145.008 54.716 145.356 54.332C145.716 53.948 146.13 53.654 146.598 53.45C147.066 53.246 147.558 53.144 148.074 53.144C148.59 53.144 149.082 53.246 149.55 53.45C150.03 53.654 150.444 53.948 150.792 54.332C151.152 54.716 151.434 55.196 151.638 55.772C151.854 56.336 151.962 56.978 151.962 57.698C151.962 58.418 151.854 59.06 151.638 59.624C151.434 60.176 151.152 60.644 150.792 61.028C150.444 61.412 150.03 61.706 149.55 61.91C149.082 62.114 148.59 62.216 148.074 62.216ZM148.074 61.514C148.506 61.514 148.908 61.424 149.28 61.244C149.664 61.052 149.988 60.788 150.252 60.452C150.528 60.116 150.744 59.714 150.9 59.246C151.056 58.778 151.134 58.262 151.134 57.698C151.134 57.122 151.056 56.6 150.9 56.132C150.744 55.664 150.528 55.262 150.252 54.926C149.988 54.578 149.664 54.314 149.28 54.134C148.908 53.942 148.506 53.846 148.074 53.846C147.642 53.846 147.24 53.942 146.868 54.134C146.496 54.314 146.172 54.578 145.896 54.926C145.632 55.262 145.422 55.664 145.266 56.132C145.11 56.6 145.032 57.122 145.032 57.698C145.032 58.262 145.11 58.778 145.266 59.246C145.422 59.714 145.632 60.116 145.896 60.452C146.172 60.788 146.496 61.052 146.868 61.244C147.24 61.424 147.642 61.514 148.074 61.514ZM157.76 62.216C157.196 62.216 156.674 62.114 156.194 61.91C155.726 61.706 155.312 61.412 154.952 61.028C154.604 60.644 154.328 60.176 154.124 59.624C153.932 59.06 153.836 58.418 153.836 57.698C153.836 56.978 153.944 56.336 154.16 55.772C154.376 55.196 154.664 54.716 155.024 54.332C155.384 53.948 155.798 53.654 156.266 53.45C156.746 53.246 157.25 53.144 157.778 53.144C158.378 53.144 158.876 53.252 159.272 53.468C159.668 53.684 160.016 53.93 160.316 54.206L159.848 54.764C159.572 54.5 159.266 54.284 158.93 54.116C158.594 53.936 158.216 53.846 157.796 53.846C157.352 53.846 156.938 53.942 156.554 54.134C156.182 54.314 155.852 54.578 155.564 54.926C155.288 55.262 155.066 55.664 154.898 56.132C154.742 56.6 154.664 57.122 154.664 57.698C154.664 58.262 154.736 58.778 154.88 59.246C155.036 59.714 155.246 60.116 155.51 60.452C155.786 60.788 156.116 61.052 156.5 61.244C156.896 61.424 157.328 61.514 157.796 61.514C158.252 61.514 158.672 61.418 159.056 61.226C159.452 61.034 159.8 60.8 160.1 60.524L160.514 61.082C160.142 61.406 159.728 61.676 159.272 61.892C158.816 62.108 158.312 62.216 157.76 62.216ZM165.494 62.216C164.978 62.216 164.486 62.114 164.018 61.91C163.55 61.706 163.136 61.412 162.776 61.028C162.428 60.644 162.146 60.176 161.93 59.624C161.726 59.06 161.624 58.418 161.624 57.698C161.624 56.978 161.726 56.336 161.93 55.772C162.146 55.196 162.428 54.716 162.776 54.332C163.136 53.948 163.55 53.654 164.018 53.45C164.486 53.246 164.978 53.144 165.494 53.144C166.01 53.144 166.502 53.246 166.97 53.45C167.45 53.654 167.864 53.948 168.212 54.332C168.572 54.716 168.854 55.196 169.058 55.772C169.274 56.336 169.382 56.978 169.382 57.698C169.382 58.418 169.274 59.06 169.058 59.624C168.854 60.176 168.572 60.644 168.212 61.028C167.864 61.412 167.45 61.706 166.97 61.91C166.502 62.114 166.01 62.216 165.494 62.216ZM165.494 61.514C165.926 61.514 166.328 61.424 166.7 61.244C167.084 61.052 167.408 60.788 167.672 60.452C167.948 60.116 168.164 59.714 168.32 59.246C168.476 58.778 168.554 58.262 168.554 57.698C168.554 57.122 168.476 56.6 168.32 56.132C168.164 55.664 167.948 55.262 167.672 54.926C167.408 54.578 167.084 54.314 166.7 54.134C166.328 53.942 165.926 53.846 165.494 53.846C165.062 53.846 164.66 53.942 164.288 54.134C163.916 54.314 163.592 54.578 163.316 54.926C163.052 55.262 162.842 55.664 162.686 56.132C162.53 56.6 162.452 57.122 162.452 57.698C162.452 58.262 162.53 58.778 162.686 59.246C162.842 59.714 163.052 60.116 163.316 60.452C163.592 60.788 163.916 61.052 164.288 61.244C164.66 61.424 165.062 61.514 165.494 61.514ZM175.342 62.216C174.094 62.216 173.122 61.76 172.426 60.848C171.742 59.924 171.4 58.598 171.4 56.87C171.4 55.31 171.52 54.062 171.76 53.126C172.012 52.19 172.372 51.464 172.84 50.948C173.308 50.432 173.872 50.066 174.532 49.85C175.204 49.634 175.954 49.46 176.782 49.328C177.01 49.292 177.202 49.262 177.358 49.238C177.514 49.202 177.646 49.166 177.754 49.13C177.862 49.094 177.964 49.058 178.06 49.022C178.156 48.974 178.27 48.92 178.402 48.86L178.6 49.652C178.36 49.784 178.108 49.886 177.844 49.958C177.592 50.018 177.292 50.078 176.944 50.138C176.212 50.258 175.564 50.39 175 50.534C174.448 50.678 173.974 50.924 173.578 51.272C173.194 51.608 172.888 52.094 172.66 52.73C172.444 53.354 172.3 54.206 172.228 55.286C172.672 54.722 173.17 54.302 173.722 54.026C174.286 53.738 174.856 53.594 175.432 53.594C175.984 53.594 176.476 53.696 176.908 53.9C177.352 54.092 177.724 54.368 178.024 54.728C178.336 55.076 178.57 55.502 178.726 56.006C178.894 56.51 178.978 57.068 178.978 57.68C178.978 58.376 178.882 59.006 178.69 59.57C178.498 60.122 178.234 60.596 177.898 60.992C177.562 61.388 177.172 61.694 176.728 61.91C176.296 62.114 175.834 62.216 175.342 62.216ZM175.342 61.514C175.738 61.514 176.104 61.424 176.44 61.244C176.788 61.052 177.088 60.788 177.34 60.452C177.592 60.116 177.79 59.714 177.934 59.246C178.078 58.766 178.15 58.244 178.15 57.68C178.15 57.2 178.09 56.75 177.97 56.33C177.85 55.91 177.67 55.55 177.43 55.25C177.19 54.95 176.89 54.716 176.53 54.548C176.182 54.368 175.774 54.278 175.306 54.278C174.802 54.278 174.292 54.41 173.776 54.674C173.26 54.938 172.732 55.424 172.192 56.132C172.18 56.264 172.174 56.396 172.174 56.528C172.174 56.66 172.174 56.798 172.174 56.942C172.174 58.346 172.432 59.462 172.948 60.29C173.476 61.106 174.274 61.514 175.342 61.514ZM181.592 62V53.36H182.384V57.104H187.388V53.36H188.18V62H187.388V57.824H182.384V62H181.592ZM194.638 62.216C194.122 62.216 193.63 62.114 193.162 61.91C192.694 61.706 192.28 61.412 191.92 61.028C191.572 60.644 191.29 60.176 191.074 59.624C190.87 59.06 190.768 58.418 190.768 57.698C190.768 56.978 190.87 56.336 191.074 55.772C191.29 55.196 191.572 54.716 191.92 54.332C192.28 53.948 192.694 53.654 193.162 53.45C193.63 53.246 194.122 53.144 194.638 53.144C195.154 53.144 195.646 53.246 196.114 53.45C196.594 53.654 197.008 53.948 197.356 54.332C197.716 54.716 197.998 55.196 198.202 55.772C198.418 56.336 198.526 56.978 198.526 57.698C198.526 58.418 198.418 59.06 198.202 59.624C197.998 60.176 197.716 60.644 197.356 61.028C197.008 61.412 196.594 61.706 196.114 61.91C195.646 62.114 195.154 62.216 194.638 62.216ZM194.638 61.514C195.07 61.514 195.472 61.424 195.844 61.244C196.228 61.052 196.552 60.788 196.816 60.452C197.092 60.116 197.308 59.714 197.464 59.246C197.62 58.778 197.698 58.262 197.698 57.698C197.698 57.122 197.62 56.6 197.464 56.132C197.308 55.664 197.092 55.262 196.816 54.926C196.552 54.578 196.228 54.314 195.844 54.134C195.472 53.942 195.07 53.846 194.638 53.846C194.206 53.846 193.804 53.942 193.432 54.134C193.06 54.314 192.736 54.578 192.46 54.926C192.196 55.262 191.986 55.664 191.83 56.132C191.674 56.6 191.596 57.122 191.596 57.698C191.596 58.262 191.674 58.778 191.83 59.246C191.986 59.714 192.196 60.116 192.46 60.452C192.736 60.788 193.06 61.052 193.432 61.244C193.804 61.424 194.206 61.514 194.638 61.514ZM204.325 62.216C203.761 62.216 203.239 62.114 202.759 61.91C202.291 61.706 201.877 61.412 201.517 61.028C201.169 60.644 200.893 60.176 200.689 59.624C200.497 59.06 200.401 58.418 200.401 57.698C200.401 56.978 200.509 56.336 200.725 55.772C200.941 55.196 201.229 54.716 201.589 54.332C201.949 53.948 202.363 53.654 202.831 53.45C203.311 53.246 203.815 53.144 204.343 53.144C204.943 53.144 205.441 53.252 205.837 53.468C206.233 53.684 206.581 53.93 206.881 54.206L206.413 54.764C206.137 54.5 205.831 54.284 205.495 54.116C205.159 53.936 204.781 53.846 204.361 53.846C203.917 53.846 203.503 53.942 203.119 54.134C202.747 54.314 202.417 54.578 202.129 54.926C201.853 55.262 201.631 55.664 201.463 56.132C201.307 56.6 201.229 57.122 201.229 57.698C201.229 58.262 201.301 58.778 201.445 59.246C201.601 59.714 201.811 60.116 202.075 60.452C202.351 60.788 202.681 61.052 203.065 61.244C203.461 61.424 203.893 61.514 204.361 61.514C204.817 61.514 205.237 61.418 205.621 61.226C206.017 61.034 206.365 60.8 206.665 60.524L207.079 61.082C206.707 61.406 206.293 61.676 205.837 61.892C205.381 62.108 204.877 62.216 204.325 62.216ZM210.939 62V54.044H207.843V53.36H214.845V54.044H211.749V62H210.939ZM216.976 62V53.36H217.768V56.798H219.802C220.822 56.798 221.62 57.014 222.196 57.446C222.784 57.866 223.078 58.508 223.078 59.372C223.078 60.248 222.784 60.908 222.196 61.352C221.62 61.784 220.822 62 219.802 62H216.976ZM217.768 61.316H219.622C220.522 61.316 221.188 61.166 221.62 60.866C222.052 60.554 222.268 60.056 222.268 59.372C222.268 58.7 222.052 58.22 221.62 57.932C221.188 57.632 220.522 57.482 219.622 57.482H217.768V61.316ZM229.14 62V53.36H229.932V61.298H233.55V53.36H234.342V61.298H237.96V53.36H238.752V62H229.14ZM243.95 62.216C243.602 62.216 243.278 62.168 242.978 62.072C242.678 61.976 242.414 61.832 242.186 61.64C241.958 61.448 241.778 61.202 241.646 60.902C241.514 60.602 241.448 60.248 241.448 59.84C241.448 58.88 241.892 58.154 242.78 57.662C243.68 57.158 245.096 56.798 247.028 56.582C247.028 56.258 247.004 55.934 246.956 55.61C246.908 55.274 246.806 54.98 246.65 54.728C246.494 54.464 246.284 54.254 246.02 54.098C245.756 53.93 245.408 53.846 244.976 53.846C244.4 53.846 243.872 53.96 243.392 54.188C242.912 54.416 242.522 54.638 242.222 54.854L241.862 54.26C242.018 54.152 242.204 54.032 242.42 53.9C242.648 53.768 242.9 53.648 243.176 53.54C243.452 53.432 243.752 53.342 244.076 53.27C244.4 53.186 244.736 53.144 245.084 53.144C245.588 53.144 246.014 53.234 246.362 53.414C246.71 53.582 246.992 53.816 247.208 54.116C247.424 54.416 247.58 54.77 247.676 55.178C247.772 55.574 247.82 56.006 247.82 56.474V62H247.136L247.064 60.884H247.01C246.566 61.232 246.086 61.544 245.57 61.82C245.066 62.084 244.526 62.216 243.95 62.216ZM244.094 61.532C244.598 61.532 245.078 61.412 245.534 61.172C245.99 60.932 246.488 60.584 247.028 60.128V57.194C246.14 57.302 245.39 57.434 244.778 57.59C244.166 57.746 243.674 57.932 243.302 58.148C242.93 58.364 242.66 58.61 242.492 58.886C242.336 59.162 242.258 59.468 242.258 59.804C242.258 60.116 242.306 60.38 242.402 60.596C242.498 60.812 242.63 60.992 242.798 61.136C242.966 61.268 243.158 61.37 243.374 61.442C243.602 61.502 243.842 61.532 244.094 61.532ZM250.902 62V53.36H255.96V54.044H251.694V62H250.902ZM259.419 62.216C259.071 62.216 258.747 62.168 258.447 62.072C258.147 61.976 257.883 61.832 257.655 61.64C257.427 61.448 257.247 61.202 257.115 60.902C256.983 60.602 256.917 60.248 256.917 59.84C256.917 58.88 257.361 58.154 258.249 57.662C259.149 57.158 260.565 56.798 262.497 56.582C262.497 56.258 262.473 55.934 262.425 55.61C262.377 55.274 262.275 54.98 262.119 54.728C261.963 54.464 261.753 54.254 261.489 54.098C261.225 53.93 260.877 53.846 260.445 53.846C259.869 53.846 259.341 53.96 258.861 54.188C258.381 54.416 257.991 54.638 257.691 54.854L257.331 54.26C257.487 54.152 257.673 54.032 257.889 53.9C258.117 53.768 258.369 53.648 258.645 53.54C258.921 53.432 259.221 53.342 259.545 53.27C259.869 53.186 260.205 53.144 260.553 53.144C261.057 53.144 261.483 53.234 261.831 53.414C262.179 53.582 262.461 53.816 262.677 54.116C262.893 54.416 263.049 54.77 263.145 55.178C263.241 55.574 263.289 56.006 263.289 56.474V62H262.605L262.533 60.884H262.479C262.035 61.232 261.555 61.544 261.039 61.82C260.535 62.084 259.995 62.216 259.419 62.216ZM259.563 61.532C260.067 61.532 260.547 61.412 261.003 61.172C261.459 60.932 261.957 60.584 262.497 60.128V57.194C261.609 57.302 260.859 57.434 260.247 57.59C259.635 57.746 259.143 57.932 258.771 58.148C258.399 58.364 258.129 58.61 257.961 58.886C257.805 59.162 257.727 59.468 257.727 59.804C257.727 60.116 257.775 60.38 257.871 60.596C257.967 60.812 258.099 60.992 258.267 61.136C258.435 61.268 258.627 61.37 258.843 61.442C259.071 61.502 259.311 61.532 259.563 61.532ZM268.085 62V54.044H264.989V53.36H271.991V54.044H268.895V62H268.085ZM274.123 62V53.36H274.915V56.798H276.949C277.969 56.798 278.767 57.014 279.343 57.446C279.931 57.866 280.225 58.508 280.225 59.372C280.225 60.248 279.931 60.908 279.343 61.352C278.767 61.784 277.969 62 276.949 62H274.123ZM274.915 61.316H276.769C277.669 61.316 278.335 61.166 278.767 60.866C279.199 60.554 279.415 60.056 279.415 59.372C279.415 58.7 279.199 58.22 278.767 57.932C278.335 57.632 277.669 57.482 276.769 57.482H274.915V61.316ZM289.437 62.216C288.921 62.216 288.429 62.114 287.961 61.91C287.493 61.706 287.079 61.412 286.719 61.028C286.371 60.644 286.089 60.176 285.873 59.624C285.669 59.06 285.567 58.418 285.567 57.698C285.567 56.978 285.669 56.336 285.873 55.772C286.089 55.196 286.371 54.716 286.719 54.332C287.079 53.948 287.493 53.654 287.961 53.45C288.429 53.246 288.921 53.144 289.437 53.144C289.953 53.144 290.445 53.246 290.913 53.45C291.393 53.654 291.807 53.948 292.155 54.332C292.515 54.716 292.797 55.196 293.001 55.772C293.217 56.336 293.325 56.978 293.325 57.698C293.325 58.418 293.217 59.06 293.001 59.624C292.797 60.176 292.515 60.644 292.155 61.028C291.807 61.412 291.393 61.706 290.913 61.91C290.445 62.114 289.953 62.216 289.437 62.216ZM289.437 61.514C289.869 61.514 290.271 61.424 290.643 61.244C291.027 61.052 291.351 60.788 291.615 60.452C291.891 60.116 292.107 59.714 292.263 59.246C292.419 58.778 292.497 58.262 292.497 57.698C292.497 57.122 292.419 56.6 292.263 56.132C292.107 55.664 291.891 55.262 291.615 54.926C291.351 54.578 291.027 54.314 290.643 54.134C290.271 53.942 289.869 53.846 289.437 53.846C289.005 53.846 288.603 53.942 288.231 54.134C287.859 54.314 287.535 54.578 287.259 54.926C286.995 55.262 286.785 55.664 286.629 56.132C286.473 56.6 286.395 57.122 286.395 57.698C286.395 58.262 286.473 58.778 286.629 59.246C286.785 59.714 286.995 60.116 287.259 60.452C287.535 60.788 287.859 61.052 288.231 61.244C288.603 61.424 289.005 61.514 289.437 61.514ZM297.617 62V54.044H294.521V53.36H301.523V54.044H298.427V62H297.617ZM310.408 62.216C309.892 62.216 309.4 62.114 308.932 61.91C308.464 61.706 308.05 61.412 307.69 61.028C307.342 60.644 307.06 60.176 306.844 59.624C306.64 59.06 306.538 58.418 306.538 57.698C306.538 56.978 306.64 56.336 306.844 55.772C307.06 55.196 307.342 54.716 307.69 54.332C308.05 53.948 308.464 53.654 308.932 53.45C309.4 53.246 309.892 53.144 310.408 53.144C310.924 53.144 311.416 53.246 311.884 53.45C312.364 53.654 312.778 53.948 313.126 54.332C313.486 54.716 313.768 55.196 313.972 55.772C314.188 56.336 314.296 56.978 314.296 57.698C314.296 58.418 314.188 59.06 313.972 59.624C313.768 60.176 313.486 60.644 313.126 61.028C312.778 61.412 312.364 61.706 311.884 61.91C311.416 62.114 310.924 62.216 310.408 62.216ZM310.408 61.514C310.84 61.514 311.242 61.424 311.614 61.244C311.998 61.052 312.322 60.788 312.586 60.452C312.862 60.116 313.078 59.714 313.234 59.246C313.39 58.778 313.468 58.262 313.468 57.698C313.468 57.122 313.39 56.6 313.234 56.132C313.078 55.664 312.862 55.262 312.586 54.926C312.322 54.578 311.998 54.314 311.614 54.134C311.242 53.942 310.84 53.846 310.408 53.846C309.976 53.846 309.574 53.942 309.202 54.134C308.83 54.314 308.506 54.578 308.23 54.926C307.966 55.262 307.756 55.664 307.6 56.132C307.444 56.6 307.366 57.122 307.366 57.698C307.366 58.262 307.444 58.778 307.6 59.246C307.756 59.714 307.966 60.116 308.23 60.452C308.506 60.788 308.83 61.052 309.202 61.244C309.574 61.424 309.976 61.514 310.408 61.514ZM316.458 62V65.096H315.756L315.666 61.766V61.298H316.026C316.158 61.226 316.284 61.124 316.404 60.992C316.524 60.86 316.638 60.656 316.746 60.38C316.854 60.104 316.956 59.732 317.052 59.264C317.16 58.784 317.262 58.172 317.358 57.428L317.844 53.36H322.578V61.298H323.766V61.766L323.658 65.096H322.974V62H316.458ZM318.078 57.536C318.006 58.1 317.928 58.586 317.844 58.994C317.772 59.402 317.688 59.756 317.592 60.056C317.508 60.356 317.412 60.608 317.304 60.812C317.208 61.004 317.112 61.166 317.016 61.298H321.786V54.044H318.474L318.078 57.536ZM325.908 62V53.36H326.7V57.104H331.704V53.36H332.496V62H331.704V57.824H326.7V62H325.908ZM338.954 62.216C338.438 62.216 337.946 62.114 337.478 61.91C337.01 61.706 336.596 61.412 336.236 61.028C335.888 60.644 335.606 60.176 335.39 59.624C335.186 59.06 335.084 58.418 335.084 57.698C335.084 56.978 335.186 56.336 335.39 55.772C335.606 55.196 335.888 54.716 336.236 54.332C336.596 53.948 337.01 53.654 337.478 53.45C337.946 53.246 338.438 53.144 338.954 53.144C339.47 53.144 339.962 53.246 340.43 53.45C340.91 53.654 341.324 53.948 341.672 54.332C342.032 54.716 342.314 55.196 342.518 55.772C342.734 56.336 342.842 56.978 342.842 57.698C342.842 58.418 342.734 59.06 342.518 59.624C342.314 60.176 342.032 60.644 341.672 61.028C341.324 61.412 340.91 61.706 340.43 61.91C339.962 62.114 339.47 62.216 338.954 62.216ZM338.954 61.514C339.386 61.514 339.788 61.424 340.16 61.244C340.544 61.052 340.868 60.788 341.132 60.452C341.408 60.116 341.624 59.714 341.78 59.246C341.936 58.778 342.014 58.262 342.014 57.698C342.014 57.122 341.936 56.6 341.78 56.132C341.624 55.664 341.408 55.262 341.132 54.926C340.868 54.578 340.544 54.314 340.16 54.134C339.788 53.942 339.386 53.846 338.954 53.846C338.522 53.846 338.12 53.942 337.748 54.134C337.376 54.314 337.052 54.578 336.776 54.926C336.512 55.262 336.302 55.664 336.146 56.132C335.99 56.6 335.912 57.122 335.912 57.698C335.912 58.262 335.99 58.778 336.146 59.246C336.302 59.714 336.512 60.116 336.776 60.452C337.052 60.788 337.376 61.052 337.748 61.244C338.12 61.424 338.522 61.514 338.954 61.514ZM345.437 62V53.36H346.229V57.68C346.229 58.148 346.217 58.664 346.193 59.228C346.181 59.792 346.163 60.362 346.139 60.938H346.211C346.379 60.662 346.583 60.35 346.823 60.002C347.063 59.654 347.267 59.342 347.435 59.066L351.323 53.36H352.097V62H351.305V57.68C351.305 57.2 351.311 56.684 351.323 56.132C351.347 55.568 351.371 54.998 351.395 54.422H351.323C351.155 54.698 350.951 55.01 350.711 55.358C350.471 55.706 350.267 56.018 350.099 56.294L346.211 62H345.437ZM348.803 51.668C348.299 51.668 347.879 51.584 347.543 51.416C347.219 51.248 346.955 51.038 346.751 50.786C346.559 50.534 346.415 50.252 346.319 49.94C346.223 49.628 346.169 49.328 346.157 49.04H346.877C346.889 49.292 346.925 49.544 346.985 49.796C347.057 50.048 347.165 50.27 347.309 50.462C347.465 50.654 347.663 50.81 347.903 50.93C348.143 51.05 348.443 51.11 348.803 51.11C349.163 51.11 349.463 51.05 349.703 50.93C349.943 50.81 350.135 50.654 350.279 50.462C350.435 50.27 350.543 50.048 350.603 49.796C350.675 49.544 350.717 49.292 350.729 49.04H351.449C351.425 49.328 351.365 49.628 351.269 49.94C351.185 50.252 351.041 50.534 350.837 50.786C350.645 51.038 350.381 51.248 350.045 51.416C349.721 51.584 349.307 51.668 348.803 51.668ZM34.656 85V76.36H35.448V80.104H40.452V76.36H41.244V85H40.452V80.824H35.448V85H34.656ZM47.8285 85.216C47.2765 85.216 46.7545 85.114 46.2625 84.91C45.7825 84.706 45.3625 84.412 45.0025 84.028C44.6425 83.632 44.3545 83.158 44.1385 82.606C43.9345 82.042 43.8325 81.406 43.8325 80.698C43.8325 79.99 43.9345 79.354 44.1385 78.79C44.3545 78.226 44.6365 77.752 44.9845 77.368C45.3445 76.972 45.7465 76.672 46.1905 76.468C46.6465 76.252 47.1145 76.144 47.5945 76.144C48.6265 76.144 49.4365 76.492 50.0245 77.188C50.6125 77.884 50.9065 78.868 50.9065 80.14C50.9065 80.248 50.9065 80.356 50.9065 80.464C50.9065 80.572 50.8945 80.68 50.8705 80.788H44.6425C44.6545 81.328 44.7385 81.832 44.8945 82.3C45.0505 82.756 45.2665 83.152 45.5425 83.488C45.8305 83.812 46.1725 84.07 46.5685 84.262C46.9645 84.442 47.4085 84.532 47.9005 84.532C48.3685 84.532 48.7885 84.466 49.1605 84.334C49.5445 84.19 49.8985 83.998 50.2225 83.758L50.5465 84.37C50.1985 84.574 49.8145 84.766 49.3945 84.946C48.9865 85.126 48.4645 85.216 47.8285 85.216ZM44.6425 80.14H50.1505C50.1505 79.024 49.9225 78.196 49.4665 77.656C49.0105 77.104 48.3925 76.828 47.6125 76.828C47.2405 76.828 46.8865 76.906 46.5505 77.062C46.2145 77.206 45.9085 77.422 45.6325 77.71C45.3685 77.998 45.1465 78.346 44.9665 78.754C44.7985 79.162 44.6905 79.624 44.6425 80.14ZM53.1226 88.942C52.7986 88.942 52.5046 88.882 52.2406 88.762L52.4206 88.06C52.5166 88.096 52.6246 88.126 52.7446 88.15C52.8646 88.186 52.9906 88.204 53.1226 88.204C53.6626 88.204 54.1126 87.988 54.4726 87.556C54.8326 87.124 55.1206 86.578 55.3366 85.918L55.5706 85.162L52.0246 76.36H52.8886L54.9766 81.796C55.1086 82.156 55.2526 82.552 55.4086 82.984C55.5766 83.416 55.7446 83.824 55.9126 84.208H55.9846C56.1166 83.824 56.2486 83.416 56.3806 82.984C56.5246 82.552 56.6566 82.156 56.7766 81.796L58.6306 76.36H59.4406L56.0206 86.08C55.9006 86.44 55.7506 86.794 55.5706 87.142C55.4026 87.49 55.1986 87.796 54.9586 88.06C54.7306 88.324 54.4606 88.534 54.1486 88.69C53.8486 88.858 53.5066 88.942 53.1226 88.942ZM60.8724 85V88.096H60.1704L60.0804 84.766V84.298H60.4404C60.5724 84.226 60.6984 84.124 60.8184 83.992C60.9384 83.86 61.0524 83.656 61.1604 83.38C61.2684 83.104 61.3704 82.732 61.4664 82.264C61.5744 81.784 61.6764 81.172 61.7724 80.428L62.2584 76.36H66.9924V84.298H68.1804V84.766L68.0724 88.096H67.3884V85H60.8724ZM62.4924 80.536C62.4204 81.1 62.3424 81.586 62.2584 81.994C62.1864 82.402 62.1024 82.756 62.0064 83.056C61.9224 83.356 61.8264 83.608 61.7184 83.812C61.6224 84.004 61.5264 84.166 61.4304 84.298H66.2004V77.044H62.8884L62.4924 80.536ZM72.212 85.216C71.864 85.216 71.54 85.168 71.24 85.072C70.94 84.976 70.676 84.832 70.448 84.64C70.22 84.448 70.04 84.202 69.908 83.902C69.776 83.602 69.71 83.248 69.71 82.84C69.71 81.88 70.154 81.154 71.042 80.662C71.942 80.158 73.358 79.798 75.29 79.582C75.29 79.258 75.266 78.934 75.218 78.61C75.17 78.274 75.068 77.98 74.912 77.728C74.756 77.464 74.546 77.254 74.282 77.098C74.018 76.93 73.67 76.846 73.238 76.846C72.662 76.846 72.134 76.96 71.654 77.188C71.174 77.416 70.784 77.638 70.484 77.854L70.124 77.26C70.28 77.152 70.466 77.032 70.682 76.9C70.91 76.768 71.162 76.648 71.438 76.54C71.714 76.432 72.014 76.342 72.338 76.27C72.662 76.186 72.998 76.144 73.346 76.144C73.85 76.144 74.276 76.234 74.624 76.414C74.972 76.582 75.254 76.816 75.47 77.116C75.686 77.416 75.842 77.77 75.938 78.178C76.034 78.574 76.082 79.006 76.082 79.474V85H75.398L75.326 83.884H75.272C74.828 84.232 74.348 84.544 73.832 84.82C73.328 85.084 72.788 85.216 72.212 85.216ZM72.356 84.532C72.86 84.532 73.34 84.412 73.796 84.172C74.252 83.932 74.75 83.584 75.29 83.128V80.194C74.402 80.302 73.652 80.434 73.04 80.59C72.428 80.746 71.936 80.932 71.564 81.148C71.192 81.364 70.922 81.61 70.754 81.886C70.598 82.162 70.52 82.468 70.52 82.804C70.52 83.116 70.568 83.38 70.664 83.596C70.76 83.812 70.892 83.992 71.06 84.136C71.228 84.268 71.42 84.37 71.636 84.442C71.864 84.502 72.104 84.532 72.356 84.532ZM83.8798 85V81.238C83.6998 81.274 83.5438 81.31 83.4118 81.346C83.2798 81.37 83.1478 81.394 83.0158 81.418C82.8838 81.43 82.7458 81.442 82.6018 81.454C82.4578 81.454 82.2838 81.454 82.0798 81.454C80.9518 81.454 80.1058 81.238 79.5418 80.806C78.9778 80.374 78.6958 79.654 78.6958 78.646V76.36H79.4878V78.646C79.4878 79.402 79.7038 79.942 80.1358 80.266C80.5798 80.59 81.2698 80.752 82.2058 80.752C82.5178 80.752 82.7938 80.74 83.0338 80.716C83.2858 80.68 83.5678 80.626 83.8798 80.554V76.36H84.6718V85H83.8798ZM87.988 85V76.36H88.78V80.68C88.78 81.148 88.768 81.664 88.744 82.228C88.732 82.792 88.714 83.362 88.69 83.938H88.762C88.93 83.662 89.134 83.35 89.374 83.002C89.614 82.654 89.818 82.342 89.986 82.066L93.874 76.36H94.648V85H93.856V80.68C93.856 80.2 93.862 79.684 93.874 79.132C93.898 78.568 93.922 77.998 93.946 77.422H93.874C93.706 77.698 93.502 78.01 93.262 78.358C93.022 78.706 92.818 79.018 92.65 79.294L88.762 85H87.988ZM101.558 85V76.36H102.35V80.14H104.51L105.41 78.016C105.566 77.632 105.722 77.32 105.878 77.08C106.034 76.828 106.19 76.636 106.346 76.504C106.514 76.36 106.682 76.264 106.85 76.216C107.018 76.168 107.198 76.144 107.39 76.144C107.546 76.144 107.684 76.168 107.804 76.216L107.624 76.99C107.564 76.966 107.516 76.954 107.48 76.954C107.456 76.954 107.414 76.954 107.354 76.954C107.246 76.954 107.138 76.972 107.03 77.008C106.922 77.032 106.814 77.092 106.706 77.188C106.598 77.284 106.484 77.422 106.364 77.602C106.256 77.782 106.142 78.022 106.022 78.322L105.122 80.446L108.074 85H107.174L104.528 80.842H102.35V85H101.558ZM113.185 85V88.096H112.483L112.393 84.766V84.298H112.753C112.885 84.226 113.011 84.124 113.131 83.992C113.251 83.86 113.365 83.656 113.473 83.38C113.581 83.104 113.683 82.732 113.779 82.264C113.887 81.784 113.989 81.172 114.085 80.428L114.571 76.36H119.305V84.298H120.493V84.766L120.385 88.096H119.701V85H113.185ZM114.805 80.536C114.733 81.1 114.655 81.586 114.571 81.994C114.499 82.402 114.415 82.756 114.319 83.056C114.235 83.356 114.139 83.608 114.031 83.812C113.935 84.004 113.839 84.166 113.743 84.298H118.513V77.044H115.201L114.805 80.536ZM122.81 88.906V76.36H123.494L123.566 77.44H123.62C124.04 77.104 124.496 76.804 124.988 76.54C125.492 76.276 126.014 76.144 126.554 76.144C127.706 76.144 128.57 76.546 129.146 77.35C129.722 78.142 130.01 79.21 130.01 80.554C130.01 81.286 129.908 81.94 129.704 82.516C129.5 83.092 129.218 83.584 128.858 83.992C128.51 84.388 128.102 84.694 127.634 84.91C127.178 85.114 126.698 85.216 126.194 85.216C125.786 85.216 125.366 85.126 124.934 84.946C124.502 84.754 124.058 84.49 123.602 84.154V88.906H122.81ZM126.158 84.514C126.59 84.514 126.992 84.418 127.364 84.226C127.736 84.034 128.054 83.764 128.318 83.416C128.582 83.068 128.786 82.654 128.93 82.174C129.086 81.682 129.164 81.142 129.164 80.554C129.164 80.026 129.11 79.534 129.002 79.078C128.906 78.622 128.75 78.232 128.534 77.908C128.318 77.572 128.036 77.314 127.688 77.134C127.34 76.942 126.92 76.846 126.428 76.846C125.996 76.846 125.546 76.972 125.078 77.224C124.622 77.464 124.13 77.812 123.602 78.268V83.398C124.106 83.806 124.574 84.094 125.006 84.262C125.438 84.43 125.822 84.514 126.158 84.514ZM132.259 88.942C131.935 88.942 131.641 88.882 131.377 88.762L131.557 88.06C131.653 88.096 131.761 88.126 131.881 88.15C132.001 88.186 132.127 88.204 132.259 88.204C132.799 88.204 133.249 87.988 133.609 87.556C133.969 87.124 134.257 86.578 134.473 85.918L134.707 85.162L131.161 76.36H132.025L134.113 81.796C134.245 82.156 134.389 82.552 134.545 82.984C134.713 83.416 134.881 83.824 135.049 84.208H135.121C135.253 83.824 135.385 83.416 135.517 82.984C135.661 82.552 135.793 82.156 135.913 81.796L137.767 76.36H138.577L135.157 86.08C135.037 86.44 134.887 86.794 134.707 87.142C134.539 87.49 134.335 87.796 134.095 88.06C133.867 88.324 133.597 88.534 133.285 88.69C132.985 88.858 132.643 88.942 132.259 88.942ZM140.441 85V76.36H145.499V77.044H141.233V85H140.441ZM149.919 85.216C149.403 85.216 148.911 85.114 148.443 84.91C147.975 84.706 147.561 84.412 147.201 84.028C146.853 83.644 146.571 83.176 146.355 82.624C146.151 82.06 146.049 81.418 146.049 80.698C146.049 79.978 146.151 79.336 146.355 78.772C146.571 78.196 146.853 77.716 147.201 77.332C147.561 76.948 147.975 76.654 148.443 76.45C148.911 76.246 149.403 76.144 149.919 76.144C150.435 76.144 150.927 76.246 151.395 76.45C151.875 76.654 152.289 76.948 152.637 77.332C152.997 77.716 153.279 78.196 153.483 78.772C153.699 79.336 153.807 79.978 153.807 80.698C153.807 81.418 153.699 82.06 153.483 82.624C153.279 83.176 152.997 83.644 152.637 84.028C152.289 84.412 151.875 84.706 151.395 84.91C150.927 85.114 150.435 85.216 149.919 85.216ZM149.919 84.514C150.351 84.514 150.753 84.424 151.125 84.244C151.509 84.052 151.833 83.788 152.097 83.452C152.373 83.116 152.589 82.714 152.745 82.246C152.901 81.778 152.979 81.262 152.979 80.698C152.979 80.122 152.901 79.6 152.745 79.132C152.589 78.664 152.373 78.262 152.097 77.926C151.833 77.578 151.509 77.314 151.125 77.134C150.753 76.942 150.351 76.846 149.919 76.846C149.487 76.846 149.085 76.942 148.713 77.134C148.341 77.314 148.017 77.578 147.741 77.926C147.477 78.262 147.267 78.664 147.111 79.132C146.955 79.6 146.877 80.122 146.877 80.698C146.877 81.262 146.955 81.778 147.111 82.246C147.267 82.714 147.477 83.116 147.741 83.452C148.017 83.788 148.341 84.052 148.713 84.244C149.085 84.424 149.487 84.514 149.919 84.514ZM156.402 85V76.36H157.194V80.68C157.194 81.148 157.182 81.664 157.158 82.228C157.146 82.792 157.128 83.362 157.104 83.938H157.176C157.344 83.662 157.548 83.35 157.788 83.002C158.028 82.654 158.232 82.342 158.4 82.066L162.288 76.36H163.062V85H162.27V80.68C162.27 80.2 162.276 79.684 162.288 79.132C162.312 78.568 162.336 77.998 162.36 77.422H162.288C162.12 77.698 161.916 78.01 161.676 78.358C161.436 78.706 161.232 79.018 161.064 79.294L157.176 85H156.402ZM159.768 74.668C159.264 74.668 158.844 74.584 158.508 74.416C158.184 74.248 157.92 74.038 157.716 73.786C157.524 73.534 157.38 73.252 157.284 72.94C157.188 72.628 157.134 72.328 157.122 72.04H157.842C157.854 72.292 157.89 72.544 157.95 72.796C158.022 73.048 158.13 73.27 158.274 73.462C158.43 73.654 158.628 73.81 158.868 73.93C159.108 74.05 159.408 74.11 159.768 74.11C160.128 74.11 160.428 74.05 160.668 73.93C160.908 73.81 161.1 73.654 161.244 73.462C161.4 73.27 161.508 73.048 161.568 72.796C161.64 72.544 161.682 72.292 161.694 72.04H162.414C162.39 72.328 162.33 72.628 162.234 72.94C162.15 73.252 162.006 73.534 161.802 73.786C161.61 74.038 161.346 74.248 161.01 74.416C160.686 74.584 160.272 74.668 159.768 74.668ZM165.829 87.79L165.577 87.25C165.997 87.034 166.333 86.74 166.585 86.368C166.837 85.996 166.963 85.564 166.963 85.072C166.915 85.084 166.843 85.09 166.747 85.09C166.543 85.09 166.363 85.024 166.207 84.892C166.063 84.76 165.991 84.574 165.991 84.334C165.991 84.094 166.069 83.908 166.225 83.776C166.381 83.644 166.561 83.578 166.765 83.578C167.041 83.578 167.263 83.692 167.431 83.92C167.599 84.148 167.683 84.46 167.683 84.856C167.683 85.516 167.509 86.098 167.161 86.602C166.813 87.106 166.369 87.502 165.829 87.79ZM173.91 85V76.36H174.702V80.104H179.706V76.36H180.498V85H179.706V80.824H174.702V85H173.91ZM187.082 85.216C186.53 85.216 186.008 85.114 185.516 84.91C185.036 84.706 184.616 84.412 184.256 84.028C183.896 83.632 183.608 83.158 183.392 82.606C183.188 82.042 183.086 81.406 183.086 80.698C183.086 79.99 183.188 79.354 183.392 78.79C183.608 78.226 183.89 77.752 184.238 77.368C184.598 76.972 185 76.672 185.444 76.468C185.9 76.252 186.368 76.144 186.848 76.144C187.88 76.144 188.69 76.492 189.278 77.188C189.866 77.884 190.16 78.868 190.16 80.14C190.16 80.248 190.16 80.356 190.16 80.464C190.16 80.572 190.148 80.68 190.124 80.788H183.896C183.908 81.328 183.992 81.832 184.148 82.3C184.304 82.756 184.52 83.152 184.796 83.488C185.084 83.812 185.426 84.07 185.822 84.262C186.218 84.442 186.662 84.532 187.154 84.532C187.622 84.532 188.042 84.466 188.414 84.334C188.798 84.19 189.152 83.998 189.476 83.758L189.8 84.37C189.452 84.574 189.068 84.766 188.648 84.946C188.24 85.126 187.718 85.216 187.082 85.216ZM183.896 80.14H189.404C189.404 79.024 189.176 78.196 188.72 77.656C188.264 77.104 187.646 76.828 186.866 76.828C186.494 76.828 186.14 76.906 185.804 77.062C185.468 77.206 185.162 77.422 184.886 77.71C184.622 77.998 184.4 78.346 184.22 78.754C184.052 79.162 183.944 79.624 183.896 80.14ZM198.019 85V77.044H194.923V76.36H201.925V77.044H198.829V85H198.019ZM207.139 85.216C206.587 85.216 206.065 85.114 205.573 84.91C205.093 84.706 204.673 84.412 204.313 84.028C203.953 83.632 203.665 83.158 203.449 82.606C203.245 82.042 203.143 81.406 203.143 80.698C203.143 79.99 203.245 79.354 203.449 78.79C203.665 78.226 203.947 77.752 204.295 77.368C204.655 76.972 205.057 76.672 205.501 76.468C205.957 76.252 206.425 76.144 206.905 76.144C207.937 76.144 208.747 76.492 209.335 77.188C209.923 77.884 210.217 78.868 210.217 80.14C210.217 80.248 210.217 80.356 210.217 80.464C210.217 80.572 210.205 80.68 210.181 80.788H203.953C203.965 81.328 204.049 81.832 204.205 82.3C204.361 82.756 204.577 83.152 204.853 83.488C205.141 83.812 205.483 84.07 205.879 84.262C206.275 84.442 206.719 84.532 207.211 84.532C207.679 84.532 208.099 84.466 208.471 84.334C208.855 84.19 209.209 83.998 209.533 83.758L209.857 84.37C209.509 84.574 209.125 84.766 208.705 84.946C208.297 85.126 207.775 85.216 207.139 85.216ZM203.953 80.14H209.461C209.461 79.024 209.233 78.196 208.777 77.656C208.321 77.104 207.703 76.828 206.923 76.828C206.551 76.828 206.197 76.906 205.861 77.062C205.525 77.206 205.219 77.422 204.943 77.71C204.679 77.998 204.457 78.346 204.277 78.754C204.109 79.162 204.001 79.624 203.953 80.14ZM212.564 88.906V76.36H213.248L213.32 77.44H213.374C213.794 77.104 214.25 76.804 214.742 76.54C215.246 76.276 215.768 76.144 216.308 76.144C217.46 76.144 218.324 76.546 218.9 77.35C219.476 78.142 219.764 79.21 219.764 80.554C219.764 81.286 219.662 81.94 219.458 82.516C219.254 83.092 218.972 83.584 218.612 83.992C218.264 84.388 217.856 84.694 217.388 84.91C216.932 85.114 216.452 85.216 215.948 85.216C215.54 85.216 215.12 85.126 214.688 84.946C214.256 84.754 213.812 84.49 213.356 84.154V88.906H212.564ZM215.912 84.514C216.344 84.514 216.746 84.418 217.118 84.226C217.49 84.034 217.808 83.764 218.072 83.416C218.336 83.068 218.54 82.654 218.684 82.174C218.84 81.682 218.918 81.142 218.918 80.554C218.918 80.026 218.864 79.534 218.756 79.078C218.66 78.622 218.504 78.232 218.288 77.908C218.072 77.572 217.79 77.314 217.442 77.134C217.094 76.942 216.674 76.846 216.182 76.846C215.75 76.846 215.3 76.972 214.832 77.224C214.376 77.464 213.884 77.812 213.356 78.268V83.398C213.86 83.806 214.328 84.094 214.76 84.262C215.192 84.43 215.576 84.514 215.912 84.514ZM227.179 85V81.238H225.199H225.181L222.391 85H221.455L224.353 81.166C223.693 81.058 223.141 80.812 222.697 80.428C222.253 80.032 222.031 79.468 222.031 78.736C222.031 78.304 222.109 77.938 222.265 77.638C222.433 77.326 222.661 77.08 222.949 76.9C223.237 76.708 223.579 76.57 223.975 76.486C224.383 76.402 224.827 76.36 225.307 76.36H227.971V85H227.179ZM225.505 80.572H227.179V77.026H225.505C224.689 77.026 224.041 77.164 223.561 77.44C223.093 77.704 222.859 78.142 222.859 78.754C222.859 79.366 223.093 79.822 223.561 80.122C224.041 80.422 224.689 80.572 225.505 80.572ZM236.126 85V81.238H234.146H234.128L231.338 85H230.402L233.3 81.166C232.64 81.058 232.088 80.812 231.644 80.428C231.2 80.032 230.978 79.468 230.978 78.736C230.978 78.304 231.056 77.938 231.212 77.638C231.38 77.326 231.608 77.08 231.896 76.9C232.184 76.708 232.526 76.57 232.922 76.486C233.33 76.402 233.774 76.36 234.254 76.36H236.918V85H236.126ZM234.452 80.572H236.126V77.026H234.452C233.636 77.026 232.988 77.164 232.508 77.44C232.04 77.704 231.806 78.142 231.806 78.754C231.806 79.366 232.04 79.822 232.508 80.122C232.988 80.422 233.636 80.572 234.452 80.572ZM245.455 85.216C244.867 85.216 244.339 85.108 243.871 84.892C243.403 84.676 242.995 84.406 242.647 84.082L243.061 83.542C243.361 83.83 243.703 84.07 244.087 84.262C244.471 84.442 244.915 84.532 245.419 84.532C246.379 84.532 247.135 84.208 247.687 83.56C248.251 82.912 248.533 81.988 248.533 80.788H244.267V80.14H248.515C248.419 79.048 248.101 78.226 247.561 77.674C247.021 77.11 246.355 76.828 245.563 76.828C245.047 76.828 244.609 76.918 244.249 77.098C243.901 77.266 243.589 77.482 243.313 77.746L242.863 77.206C243.151 76.93 243.505 76.684 243.925 76.468C244.357 76.252 244.915 76.144 245.599 76.144C246.103 76.144 246.577 76.234 247.021 76.414C247.477 76.594 247.873 76.876 248.209 77.26C248.557 77.632 248.833 78.106 249.037 78.682C249.241 79.246 249.343 79.918 249.343 80.698C249.343 81.454 249.241 82.114 249.037 82.678C248.845 83.242 248.575 83.716 248.227 84.1C247.891 84.472 247.483 84.754 247.003 84.946C246.523 85.126 246.007 85.216 245.455 85.216ZM251.939 85V76.36H252.731V80.104H257.735V76.36H258.527V85H257.735V80.824H252.731V85H251.939ZM263.744 85V77.044H260.648V76.36H267.65V77.044H264.554V85H263.744ZM269.439 88.942C269.115 88.942 268.821 88.882 268.557 88.762L268.737 88.06C268.833 88.096 268.941 88.126 269.061 88.15C269.181 88.186 269.307 88.204 269.439 88.204C269.979 88.204 270.429 87.988 270.789 87.556C271.149 87.124 271.437 86.578 271.653 85.918L271.887 85.162L268.341 76.36H269.205L271.293 81.796C271.425 82.156 271.569 82.552 271.725 82.984C271.893 83.416 272.061 83.824 272.229 84.208H272.301C272.433 83.824 272.565 83.416 272.697 82.984C272.841 82.552 272.973 82.156 273.093 81.796L274.947 76.36H275.757L272.337 86.08C272.217 86.44 272.067 86.794 271.887 87.142C271.719 87.49 271.515 87.796 271.275 88.06C271.047 88.324 270.777 88.534 270.465 88.69C270.165 88.858 269.823 88.942 269.439 88.942ZM279.749 85.216C279.137 85.216 278.567 85.132 278.039 84.964C277.511 84.796 277.007 84.502 276.527 84.082L276.941 83.524C277.361 83.908 277.793 84.172 278.237 84.316C278.693 84.46 279.179 84.532 279.695 84.532C280.031 84.532 280.349 84.49 280.649 84.406C280.949 84.31 281.213 84.184 281.441 84.028C281.669 83.86 281.849 83.656 281.981 83.416C282.113 83.176 282.179 82.912 282.179 82.624C282.179 82.012 281.939 81.556 281.459 81.256C280.979 80.944 280.307 80.788 279.443 80.788H278.363V80.14H279.209C280.073 80.14 280.721 79.99 281.153 79.69C281.585 79.378 281.801 78.964 281.801 78.448C281.801 77.884 281.597 77.476 281.189 77.224C280.793 76.96 280.301 76.828 279.713 76.828C279.137 76.828 278.657 76.906 278.273 77.062C277.901 77.218 277.535 77.428 277.175 77.692L276.761 77.134C277.145 76.858 277.571 76.624 278.039 76.432C278.507 76.24 279.071 76.144 279.731 76.144C280.127 76.144 280.499 76.192 280.847 76.288C281.195 76.384 281.495 76.528 281.747 76.72C282.011 76.9 282.221 77.128 282.377 77.404C282.533 77.68 282.611 78.004 282.611 78.376C282.611 78.844 282.473 79.246 282.197 79.582C281.933 79.918 281.579 80.182 281.135 80.374V80.446C281.387 80.506 281.621 80.596 281.837 80.716C282.065 80.836 282.263 80.986 282.431 81.166C282.611 81.346 282.749 81.562 282.845 81.814C282.953 82.054 283.007 82.336 283.007 82.66C283.007 83.044 282.923 83.392 282.755 83.704C282.587 84.016 282.353 84.286 282.053 84.514C281.753 84.742 281.405 84.916 281.009 85.036C280.613 85.156 280.193 85.216 279.749 85.216ZM285.426 85V76.36H286.218V80.68C286.218 81.148 286.206 81.664 286.182 82.228C286.17 82.792 286.152 83.362 286.128 83.938H286.2C286.368 83.662 286.572 83.35 286.812 83.002C287.052 82.654 287.256 82.342 287.424 82.066L291.312 76.36H292.086V85H291.294V80.68C291.294 80.2 291.3 79.684 291.312 79.132C291.336 78.568 291.36 77.998 291.384 77.422H291.312C291.144 77.698 290.94 78.01 290.7 78.358C290.46 78.706 290.256 79.018 290.088 79.294L286.2 85H285.426ZM297.282 85.216C296.934 85.216 296.61 85.168 296.31 85.072C296.01 84.976 295.746 84.832 295.518 84.64C295.29 84.448 295.11 84.202 294.978 83.902C294.846 83.602 294.78 83.248 294.78 82.84C294.78 81.88 295.224 81.154 296.112 80.662C297.012 80.158 298.428 79.798 300.36 79.582C300.36 79.258 300.336 78.934 300.288 78.61C300.24 78.274 300.138 77.98 299.982 77.728C299.826 77.464 299.616 77.254 299.352 77.098C299.088 76.93 298.74 76.846 298.308 76.846C297.732 76.846 297.204 76.96 296.724 77.188C296.244 77.416 295.854 77.638 295.554 77.854L295.194 77.26C295.35 77.152 295.536 77.032 295.752 76.9C295.98 76.768 296.232 76.648 296.508 76.54C296.784 76.432 297.084 76.342 297.408 76.27C297.732 76.186 298.068 76.144 298.416 76.144C298.92 76.144 299.346 76.234 299.694 76.414C300.042 76.582 300.324 76.816 300.54 77.116C300.756 77.416 300.912 77.77 301.008 78.178C301.104 78.574 301.152 79.006 301.152 79.474V85H300.468L300.396 83.884H300.342C299.898 84.232 299.418 84.544 298.902 84.82C298.398 85.084 297.858 85.216 297.282 85.216ZM297.426 84.532C297.93 84.532 298.41 84.412 298.866 84.172C299.322 83.932 299.82 83.584 300.36 83.128V80.194C299.472 80.302 298.722 80.434 298.11 80.59C297.498 80.746 297.006 80.932 296.634 81.148C296.262 81.364 295.992 81.61 295.824 81.886C295.668 82.162 295.59 82.468 295.59 82.804C295.59 83.116 295.638 83.38 295.734 83.596C295.83 83.812 295.962 83.992 296.13 84.136C296.298 84.268 296.49 84.37 296.706 84.442C296.934 84.502 297.174 84.532 297.426 84.532ZM306.556 85.216C305.944 85.216 305.374 85.132 304.846 84.964C304.318 84.796 303.814 84.502 303.334 84.082L303.748 83.524C304.168 83.908 304.6 84.172 305.044 84.316C305.5 84.46 305.986 84.532 306.502 84.532C306.838 84.532 307.156 84.49 307.456 84.406C307.756 84.31 308.02 84.184 308.248 84.028C308.476 83.86 308.656 83.656 308.788 83.416C308.92 83.176 308.986 82.912 308.986 82.624C308.986 82.012 308.746 81.556 308.266 81.256C307.786 80.944 307.114 80.788 306.25 80.788H305.17V80.14H306.016C306.88 80.14 307.528 79.99 307.96 79.69C308.392 79.378 308.608 78.964 308.608 78.448C308.608 77.884 308.404 77.476 307.996 77.224C307.6 76.96 307.108 76.828 306.52 76.828C305.944 76.828 305.464 76.906 305.08 77.062C304.708 77.218 304.342 77.428 303.982 77.692L303.568 77.134C303.952 76.858 304.378 76.624 304.846 76.432C305.314 76.24 305.878 76.144 306.538 76.144C306.934 76.144 307.306 76.192 307.654 76.288C308.002 76.384 308.302 76.528 308.554 76.72C308.818 76.9 309.028 77.128 309.184 77.404C309.34 77.68 309.418 78.004 309.418 78.376C309.418 78.844 309.28 79.246 309.004 79.582C308.74 79.918 308.386 80.182 307.942 80.374V80.446C308.194 80.506 308.428 80.596 308.644 80.716C308.872 80.836 309.07 80.986 309.238 81.166C309.418 81.346 309.556 81.562 309.652 81.814C309.76 82.054 309.814 82.336 309.814 82.66C309.814 83.044 309.73 83.392 309.562 83.704C309.394 84.016 309.16 84.286 308.86 84.514C308.56 84.742 308.212 84.916 307.816 85.036C307.42 85.156 307 85.216 306.556 85.216ZM312.232 85V76.36H313.168L315.238 81.058C315.382 81.43 315.526 81.802 315.67 82.174C315.826 82.534 315.97 82.9 316.102 83.272H316.174C316.33 82.9 316.486 82.534 316.642 82.174C316.798 81.802 316.942 81.43 317.074 81.058L319.108 76.36H320.044V85H319.27V80.104C319.27 79.768 319.282 79.372 319.306 78.916C319.33 78.448 319.354 78.004 319.378 77.584H319.306C319.174 77.896 319.042 78.202 318.91 78.502C318.79 78.802 318.664 79.102 318.532 79.402L316.516 84.154H315.796L313.744 79.402C313.612 79.102 313.48 78.802 313.348 78.502C313.228 78.202 313.102 77.896 312.97 77.584H312.898C312.922 78.004 312.94 78.448 312.952 78.916C312.976 79.372 312.988 79.768 312.988 80.104V85H312.232ZM325.249 85.216C324.901 85.216 324.577 85.168 324.277 85.072C323.977 84.976 323.713 84.832 323.485 84.64C323.257 84.448 323.077 84.202 322.945 83.902C322.813 83.602 322.747 83.248 322.747 82.84C322.747 81.88 323.191 81.154 324.079 80.662C324.979 80.158 326.395 79.798 328.327 79.582C328.327 79.258 328.303 78.934 328.255 78.61C328.207 78.274 328.105 77.98 327.949 77.728C327.793 77.464 327.583 77.254 327.319 77.098C327.055 76.93 326.707 76.846 326.275 76.846C325.699 76.846 325.171 76.96 324.691 77.188C324.211 77.416 323.821 77.638 323.521 77.854L323.161 77.26C323.317 77.152 323.503 77.032 323.719 76.9C323.947 76.768 324.199 76.648 324.475 76.54C324.751 76.432 325.051 76.342 325.375 76.27C325.699 76.186 326.035 76.144 326.383 76.144C326.887 76.144 327.313 76.234 327.661 76.414C328.009 76.582 328.291 76.816 328.507 77.116C328.723 77.416 328.879 77.77 328.975 78.178C329.071 78.574 329.119 79.006 329.119 79.474V85H328.435L328.363 83.884H328.309C327.865 84.232 327.385 84.544 326.869 84.82C326.365 85.084 325.825 85.216 325.249 85.216ZM325.393 84.532C325.897 84.532 326.377 84.412 326.833 84.172C327.289 83.932 327.787 83.584 328.327 83.128V80.194C327.439 80.302 326.689 80.434 326.077 80.59C325.465 80.746 324.973 80.932 324.601 81.148C324.229 81.364 323.959 81.61 323.791 81.886C323.635 82.162 323.557 82.468 323.557 82.804C323.557 83.116 323.605 83.38 323.701 83.596C323.797 83.812 323.929 83.992 324.097 84.136C324.265 84.268 324.457 84.37 324.673 84.442C324.901 84.502 325.141 84.532 325.393 84.532ZM332.525 85.216C332.321 85.216 332.141 85.144 331.985 85C331.829 84.856 331.751 84.658 331.751 84.406C331.751 84.142 331.829 83.938 331.985 83.794C332.141 83.65 332.321 83.578 332.525 83.578C332.729 83.578 332.903 83.65 333.047 83.794C333.203 83.938 333.281 84.142 333.281 84.406C333.281 84.658 333.203 84.856 333.047 85C332.903 85.144 332.729 85.216 332.525 85.216Z" fill="black"/>
<path d="M196 117C196 113.686 198.686 111 202 111H393C396.314 111 399 113.686 399 117V123V129C399 132.314 396.314 135 393 135H202C198.686 135 196 132.314 196 129V117Z" fill="white"/>
<path d="M222.494 129.18C222.23 129.18 221.954 129.15 221.666 129.09C221.39 129.042 221.168 128.988 221 128.928V127.362C221.204 127.458 221.432 127.542 221.684 127.614C221.936 127.674 222.194 127.704 222.458 127.704C223.106 127.704 223.652 127.518 224.096 127.146C224.552 126.762 225.038 126.15 225.554 125.31L222.854 116.148H224.474L226.022 121.782C226.13 122.19 226.232 122.598 226.328 123.006C226.436 123.414 226.526 123.816 226.598 124.212C226.766 123.864 226.934 123.516 227.102 123.168C227.27 122.82 227.456 122.478 227.66 122.142L231.17 116.148H232.988L227.066 125.796C226.562 126.624 226.076 127.284 225.608 127.776C225.14 128.268 224.654 128.628 224.15 128.856C223.658 129.072 223.106 129.18 222.494 129.18ZM234.738 129.18C234.006 129.18 233.418 128.976 232.974 128.568C232.542 128.16 232.326 127.566 232.326 126.786C232.326 126.51 232.344 126.252 232.38 126.012C232.428 125.76 232.476 125.502 232.524 125.238L233.784 119.352H235.386L234.09 125.418C233.982 125.934 233.928 126.336 233.928 126.624C233.928 127.008 234.024 127.314 234.216 127.542C234.42 127.758 234.744 127.866 235.188 127.866C235.596 127.866 236.034 127.722 236.502 127.434C236.982 127.146 237.426 126.684 237.834 126.048C238.242 125.412 238.56 124.566 238.788 123.51L239.67 119.352H241.236L239.184 129H237.888L238.086 127.218H237.996C237.768 127.506 237.498 127.806 237.186 128.118C236.886 128.418 236.532 128.67 236.124 128.874C235.728 129.078 235.266 129.18 234.738 129.18ZM242.264 129L244.316 119.352H245.882L245.054 123.366H249.59L250.454 119.352H252.038L250.004 129H248.402L249.302 124.68H244.766L243.848 129H242.264ZM257.016 129.18C255.948 129.18 255.084 128.88 254.424 128.28C253.764 127.68 253.434 126.78 253.434 125.58C253.434 124.716 253.548 123.9 253.776 123.132C254.016 122.352 254.352 121.668 254.784 121.08C255.228 120.492 255.762 120.03 256.386 119.694C257.01 119.346 257.706 119.172 258.474 119.172C258.894 119.172 259.314 119.214 259.734 119.298C260.154 119.382 260.532 119.496 260.868 119.64L260.418 120.954C260.178 120.846 259.89 120.744 259.554 120.648C259.23 120.552 258.876 120.504 258.492 120.504C257.808 120.504 257.208 120.738 256.692 121.206C256.176 121.662 255.774 122.274 255.486 123.042C255.198 123.81 255.054 124.65 255.054 125.562C255.054 126.294 255.24 126.864 255.612 127.272C255.996 127.668 256.518 127.866 257.178 127.866C257.598 127.866 257.994 127.806 258.366 127.686C258.75 127.566 259.128 127.428 259.5 127.272V128.604C259.164 128.772 258.786 128.91 258.366 129.018C257.958 129.126 257.508 129.18 257.016 129.18ZM261.231 129L263.283 119.352H264.579L264.381 121.134H264.471C264.687 120.834 264.939 120.534 265.227 120.234C265.527 119.934 265.869 119.682 266.253 119.478C266.649 119.274 267.093 119.172 267.585 119.172C268.245 119.172 268.749 119.364 269.097 119.748C269.457 120.12 269.673 120.642 269.745 121.314H269.817C270.057 120.954 270.339 120.612 270.663 120.288C270.999 119.964 271.371 119.7 271.779 119.496C272.187 119.28 272.637 119.172 273.129 119.172C273.873 119.172 274.449 119.376 274.857 119.784C275.265 120.192 275.469 120.78 275.469 121.548C275.469 121.836 275.451 122.106 275.415 122.358C275.379 122.598 275.331 122.856 275.271 123.132L274.029 129H272.427L273.723 122.952C273.783 122.676 273.825 122.442 273.849 122.25C273.873 122.058 273.885 121.872 273.885 121.692C273.885 121.332 273.783 121.044 273.579 120.828C273.387 120.612 273.081 120.504 272.661 120.504C272.277 120.504 271.863 120.648 271.419 120.936C270.987 121.224 270.579 121.674 270.195 122.286C269.823 122.886 269.535 123.672 269.331 124.644L268.413 129H266.829L268.107 122.952C268.215 122.412 268.269 122.016 268.269 121.764C268.269 121.368 268.179 121.062 267.999 120.846C267.819 120.618 267.519 120.504 267.099 120.504C266.715 120.504 266.301 120.648 265.857 120.936C265.413 121.212 264.999 121.668 264.615 122.304C264.231 122.94 263.925 123.786 263.697 124.842L262.815 129H261.231ZM280.941 129.144C279.825 129.144 278.943 128.814 278.295 128.154C277.659 127.482 277.341 126.576 277.341 125.436C277.341 124.692 277.443 123.954 277.647 123.222C277.851 122.49 278.151 121.824 278.547 121.224C278.955 120.624 279.459 120.144 280.059 119.784C280.671 119.412 281.373 119.226 282.165 119.226C283.293 119.226 284.175 119.562 284.811 120.234C285.447 120.894 285.765 121.8 285.765 122.952C285.765 123.684 285.663 124.416 285.459 125.148C285.255 125.88 284.949 126.546 284.541 127.146C284.145 127.746 283.647 128.232 283.047 128.604C282.447 128.964 281.745 129.144 280.941 129.144ZM281.031 127.83C281.607 127.83 282.129 127.632 282.597 127.236C283.065 126.828 283.437 126.246 283.713 125.49C284.001 124.734 284.145 123.828 284.145 122.772C284.145 122.412 284.079 122.064 283.947 121.728C283.827 121.38 283.623 121.098 283.335 120.882C283.047 120.654 282.663 120.54 282.183 120.54C281.523 120.54 280.947 120.768 280.455 121.224C279.975 121.668 279.603 122.268 279.339 123.024C279.075 123.768 278.943 124.59 278.943 125.49C278.943 126.234 279.123 126.81 279.483 127.218C279.855 127.626 280.371 127.83 281.031 127.83ZM287.123 129L289.175 119.352H290.741L289.913 123.366H294.449L295.313 119.352H296.897L294.863 129H293.261L294.161 124.68H289.625L288.707 129H287.123ZM309.317 123.762C308.909 123.942 308.405 124.116 307.805 124.284C307.205 124.452 306.551 124.536 305.843 124.536C304.943 124.536 304.247 124.326 303.755 123.906C303.275 123.474 303.035 122.862 303.035 122.07C303.035 121.818 303.053 121.584 303.089 121.368C303.125 121.14 303.173 120.894 303.233 120.63L304.187 116.148H305.789L304.853 120.594C304.805 120.834 304.763 121.056 304.727 121.26C304.691 121.452 304.673 121.614 304.673 121.746C304.673 122.19 304.793 122.532 305.033 122.772C305.273 123 305.681 123.114 306.257 123.114C306.857 123.114 307.445 123.042 308.021 122.898C308.609 122.742 309.143 122.58 309.623 122.412L310.919 116.148H312.539L309.821 129H308.201L309.317 123.762ZM316.797 129.18C315.681 129.18 314.817 128.856 314.205 128.208C313.605 127.548 313.305 126.66 313.305 125.544C313.305 124.776 313.413 124.02 313.629 123.276C313.857 122.52 314.181 121.836 314.601 121.224C315.021 120.6 315.525 120.102 316.113 119.73C316.713 119.358 317.385 119.172 318.129 119.172C319.041 119.172 319.725 119.37 320.181 119.766C320.649 120.162 320.883 120.714 320.883 121.422C320.883 122.046 320.685 122.616 320.289 123.132C319.905 123.648 319.299 124.062 318.471 124.374C317.643 124.674 316.569 124.824 315.249 124.824H314.943C314.931 124.932 314.919 125.046 314.907 125.166C314.907 125.286 314.907 125.394 314.907 125.49C314.907 126.222 315.087 126.804 315.447 127.236C315.807 127.656 316.353 127.866 317.085 127.866C317.541 127.866 317.973 127.8 318.381 127.668C318.789 127.536 319.233 127.356 319.713 127.128V128.478C319.257 128.682 318.807 128.85 318.363 128.982C317.931 129.114 317.409 129.18 316.797 129.18ZM315.303 123.546C316.023 123.546 316.689 123.486 317.301 123.366C317.913 123.234 318.405 123.024 318.777 122.736C319.149 122.436 319.335 122.04 319.335 121.548C319.335 121.236 319.227 120.984 319.011 120.792C318.807 120.588 318.483 120.486 318.039 120.486C317.463 120.486 316.905 120.756 316.365 121.296C315.837 121.824 315.441 122.574 315.177 123.546H315.303ZM321.028 133.32L323.98 119.352H325.276L325.06 121.152H325.132C325.552 120.624 326.026 120.168 326.554 119.784C327.082 119.388 327.682 119.19 328.354 119.19C329.134 119.19 329.764 119.466 330.244 120.018C330.724 120.57 330.964 121.392 330.964 122.484C330.964 123.36 330.856 124.2 330.64 125.004C330.424 125.808 330.112 126.528 329.704 127.164C329.296 127.788 328.798 128.28 328.21 128.64C327.634 129 326.986 129.18 326.266 129.18C325.618 129.18 325.096 129.018 324.7 128.694C324.304 128.358 324.004 127.968 323.8 127.524H323.71C323.698 127.716 323.668 127.986 323.62 128.334C323.572 128.67 323.524 128.946 323.476 129.162L322.594 133.32H321.028ZM326.14 127.866C326.62 127.866 327.058 127.716 327.454 127.416C327.85 127.104 328.186 126.69 328.462 126.174C328.75 125.658 328.966 125.076 329.11 124.428C329.266 123.78 329.344 123.12 329.344 122.448C329.344 121.152 328.834 120.504 327.814 120.504C327.418 120.504 327.01 120.654 326.59 120.954C326.182 121.242 325.804 121.638 325.456 122.142C325.108 122.646 324.826 123.222 324.61 123.87C324.406 124.518 324.304 125.202 324.304 125.922C324.304 126.498 324.454 126.966 324.754 127.326C325.054 127.686 325.516 127.866 326.14 127.866ZM338.116 126.282C338.2 125.862 338.296 125.454 338.404 125.058C338.524 124.662 338.626 124.314 338.71 124.014H338.638C338.278 124.494 337.834 124.89 337.306 125.202C336.79 125.514 336.196 125.67 335.524 125.67C334.72 125.67 334.108 125.46 333.688 125.04C333.268 124.62 333.058 124.008 333.058 123.204C333.058 122.976 333.082 122.718 333.13 122.43C333.178 122.142 333.226 121.854 333.274 121.566L333.742 119.352H335.344L334.858 121.692C334.786 122.004 334.732 122.268 334.696 122.484C334.672 122.688 334.66 122.88 334.66 123.06C334.66 123.54 334.774 123.876 335.002 124.068C335.242 124.248 335.566 124.338 335.974 124.338C336.394 124.338 336.82 124.224 337.252 123.996C337.696 123.768 338.11 123.366 338.494 122.79C338.878 122.214 339.184 121.404 339.412 120.36L339.628 119.352H341.212L339.16 129H337.54L338.116 126.282ZM345.129 129.18C344.397 129.18 343.809 128.976 343.365 128.568C342.933 128.16 342.717 127.566 342.717 126.786C342.717 126.51 342.735 126.252 342.771 126.012C342.819 125.76 342.867 125.502 342.915 125.238L344.175 119.352H345.777L344.481 125.418C344.373 125.934 344.319 126.336 344.319 126.624C344.319 127.008 344.415 127.314 344.607 127.542C344.811 127.758 345.135 127.866 345.579 127.866C345.987 127.866 346.425 127.722 346.893 127.434C347.373 127.146 347.817 126.684 348.225 126.048C348.633 125.412 348.951 124.566 349.179 123.51L350.061 119.352H351.627L349.575 129H348.279L348.477 127.218H348.387C348.159 127.506 347.889 127.806 347.577 128.118C347.277 128.418 346.923 128.67 346.515 128.874C346.119 129.078 345.657 129.18 345.129 129.18ZM352.096 129.126C351.94 129.126 351.796 129.108 351.664 129.072C351.532 129.048 351.43 129.024 351.358 129V127.632C351.526 127.704 351.724 127.74 351.952 127.74C352.336 127.74 352.666 127.614 352.942 127.362C353.218 127.11 353.482 126.708 353.734 126.156C353.986 125.604 354.262 124.878 354.562 123.978C354.838 123.174 355.102 122.478 355.354 121.89C355.606 121.302 355.888 120.816 356.2 120.432C356.524 120.036 356.92 119.742 357.388 119.55C357.856 119.358 358.438 119.262 359.134 119.262C359.542 119.262 359.938 119.292 360.322 119.352C360.706 119.4 361.054 119.472 361.366 119.568L359.35 129H357.748L359.566 120.666C359.482 120.642 359.38 120.624 359.26 120.612C359.14 120.6 359.014 120.594 358.882 120.594C358.39 120.594 357.988 120.714 357.676 120.954C357.376 121.182 357.1 121.578 356.848 122.142C356.596 122.706 356.296 123.498 355.948 124.518C355.6 125.502 355.264 126.342 354.94 127.038C354.628 127.722 354.25 128.244 353.806 128.604C353.374 128.952 352.804 129.126 352.096 129.126ZM366.279 129.18C365.259 129.18 364.467 128.952 363.903 128.496C363.339 128.04 363.057 127.338 363.057 126.39C363.057 126.15 363.075 125.88 363.111 125.58C363.159 125.268 363.207 124.98 363.255 124.716L364.389 119.352H365.991L365.073 123.546C365.385 123.486 365.721 123.438 366.081 123.402C366.441 123.354 366.813 123.33 367.197 123.33C368.289 123.33 369.069 123.57 369.537 124.05C370.005 124.53 370.239 125.142 370.239 125.886C370.239 126.474 370.089 127.02 369.789 127.524C369.501 128.016 369.063 128.418 368.475 128.73C367.899 129.03 367.167 129.18 366.279 129.18ZM366.423 127.884C367.215 127.884 367.785 127.698 368.133 127.326C368.493 126.954 368.673 126.516 368.673 126.012C368.673 125.58 368.535 125.244 368.259 125.004C367.983 124.752 367.503 124.626 366.819 124.626C366.447 124.626 366.093 124.644 365.757 124.68C365.421 124.704 365.109 124.746 364.821 124.806C364.749 125.142 364.695 125.43 364.659 125.67C364.635 125.898 364.623 126.096 364.623 126.264C364.623 126.72 364.749 127.104 365.001 127.416C365.253 127.728 365.727 127.884 366.423 127.884Z" fill="#024EDF"/>
<defs>
<filter id="filter0_b_1_3356" x="-20" y="4" width="424" height="168" filterUnits="userSpaceOnUse" color-interpolation-filters="sRGB">
<feFlood flood-opacity="0" result="BackgroundImageFix"/>
<feGaussianBlur in="BackgroundImageFix" stdDeviation="10"/>
<feComposite in2="SourceAlpha" operator="in" result="effect1_backgroundBlur_1_3356"/>
<feBlend mode="normal" in="SourceGraphic" in2="effect1_backgroundBlur_1_3356" result="shape"/>
</filter>
</defs>
</svg>
